<svg height="496pt" viewBox="0 0 496 496" width="496pt" xmlns="http://www.w3.org/2000/svg" xmlns:xlink="http://www.w3.org/1999/xlink"><linearGradient id="a" gradientUnits="userSpaceOnUse" x1="248" x2="248" y1="496" y2="0"><stop offset="0" stop-color="#9f2fff"/><stop offset="1" stop-color="#0bb1d3"/></linearGradient><path d="m392 96c-13.742188 0-27.335938 2.785156-40.007812 8.105469 0-.035157.007812-.074219.007812-.105469 0-57.34375-46.65625-104-104-104s-104 46.65625-104 104c0 .03125.007812.070312.007812.105469-12.671874-5.320313-26.265624-8.105469-40.007812-8.105469-57.34375 0-104 46.65625-104 104s46.65625 104 104 104c22.089844 0 42.542969-6.96875 59.40625-18.761719l37.042969 45.265625c-5.472657 8.769532-8.449219 18.871094-8.449219 29.496094v16c0 18.3125 9.089844 35.496094 24 45.902344v3.539062l-34.34375 6.863282c-26.457031 5.296874-45.65625 28.71875-45.65625 55.695312v8h224v-8c0-26.976562-19.199219-50.398438-45.65625-55.6875l-34.351562-6.871094v-3.519531c14.910156-10.417969 24.007812-27.609375 24.007812-45.921875v-13.984375c0-11.34375-3.273438-21.992187-8.847656-31.015625l37.441406-45.761719c16.863281 11.792969 37.316406 18.761719 59.40625 18.761719 57.34375 0 104-46.65625 104-104s-46.65625-104-104-104zm-136-79.59375c44.785156 4.058594 80 41.769531 80 87.59375 0 19.886719-6.710938 38.191406-17.871094 52.945312l-62.128906-56.488281zm-16 0v79.59375h-79.59375c3.816406-42.144531 37.449219-75.777344 79.59375-79.59375zm4.902344 95.59375 62.457031 56.777344c-15.671875 14.367187-36.480469 23.222656-59.359375 23.222656-45.824219 0-83.535156-35.214844-87.59375-80zm-140.902344 176c-48.519531 0-88-39.480469-88-88s39.480469-88 88-88c14.574219 0 28.902344 3.839844 41.800781 10.855469 5.253907 28.535156 22.160157 53 45.625 68.289062.34375 3.167969.574219 6.128907.574219 8.855469 0 48.519531-39.480469 88-88 88zm71.769531-12.921875c19.816407-18.941406 32.230469-45.566406 32.230469-75.078125 0-.007812 0-.015625 0-.023438 9.976562 4.175782 20.753906 6.757813 32 7.617188v97.03125c-10.761719 1.535156-20.785156 6.152344-29.039062 13.464844zm112.230469 100.921875c0 14.199219-7.671875 27.464844-20.023438 34.617188l-4 2.3125.03125 25.628906 47.191407 9.441406c16.328125 3.265625 28.816406 16.152344 32 32h-190.398438c3.183594-15.847656 15.671875-28.734375 32-32l47.199219-9.449219v-25.640625l-3.992188-2.308594c-12.34375-7.136718-20.007812-20.402343-20.007812-34.601562v-16c0-10.910156 4.3125-21.113281 12.152344-28.710938 7.832031-7.59375 18.261718-11.625 29.085937-11.265624 21.371094.640624 38.761719 19.480468 38.761719 41.992187zm-3.257812-57.542969c-7.949219-7.242187-17.855469-12.191406-28.742188-13.832031v-97.03125c11.257812-.867188 22.023438-3.449219 32-7.617188v.023438c0 29.511719 12.414062 56.136719 32.230469 75.078125zm107.257812-30.457031c-48.519531 0-88-39.480469-88-88 0-2.726562.230469-5.6875.585938-8.855469 12.652343-8.25 23.367187-19.175781 31.414062-31.976562v88.832031h48v-96h-43.832031c4.71875-9.023438 8.128906-18.816406 10.03125-29.144531 12.898437-7.015625 27.226562-10.855469 41.800781-10.855469 48.519531 0 88 39.480469 88 88s-39.480469 88-88 88zm-40-56v-64h16v64zm-288 28.945312 105.886719-52.945312-105.886719-52.945312zm16-80 54.113281 27.054688-54.113281 27.054688zm320 67.054688h48v-64h-48zm16-48h16v32h-16zm0 0" fill="url(#a)"/></svg>