<?xml version="1.0" encoding="UTF-8"?>
<svg xmlns="http://www.w3.org/2000/svg" xmlns:xlink="http://www.w3.org/1999/xlink" width="512" height="512" viewBox="0 0 56 58" version="1.1"><!-- Generator: Sketch 51.3 (57544) - http://www.bohemiancoding.com/sketch --><title>066 - Analyse</title><desc>Created with Sketch.</desc><defs/><g id="Page-1" stroke="none" stroke-width="1" fill="none" fill-rule="evenodd"><g id="066---Analyse" transform="translate(-1.000000, 0.000000)" fill-rule="nonzero"><path d="M40.208,21.22 C38.937,20.57 37.667,22.5 37.667,22.5 L37.588,22.49 C37.7509709,19.4955491 37.7509709,16.4944509 37.588,13.5 C37,0.64 22.187,0 22.187,0 L19.807,0 C19.807,0 5,0.64 4.407,13.5 C4.24402908,16.4944509 4.24402908,19.4955491 4.407,22.49 L4.328,22.5 C4.328,22.5 3.057,20.57 1.787,21.22 C0.528,21.85 1.148,27.64 1.148,27.64 C1.148,27.64 1.778,32.1 5.528,34.04 C5.367,37.76 5.088,41.14 9.148,45 C9.63007511,45.4551694 10.0873982,45.9358594 10.518,46.44 L10.518,55.96 C10.5179862,57.060676 11.4073377,57.9544966 12.508,57.96 L29.487,57.96 C30.5876623,57.9544966 31.4770138,57.060676 31.477,55.96 L31.477,46.44 C31.9076018,45.9358594 32.3649249,45.4551694 32.847,45 C36.907,41.14 36.627,37.76 36.467,34.04 C40.217,32.1 40.847,27.64 40.847,27.64 C40.847,27.64 41.467,21.85 40.208,21.22 Z" id="Shape" fill="#4FBA6F"/><path d="M5.588,32.14 C5.588,32.79 5.567,33.42 5.528,34.04 C1.778,32.1 1.148,27.64 1.148,27.64 C1.148,27.64 0.528,21.85 1.787,21.22 C3.057,20.57 4.328,22.5 4.328,22.5 L4.407,22.49 C4.727,27.45 5.588,29.02 5.588,32.14 Z" id="Shape" fill="#2C3E50"/><path d="M37.588,22.49 C37.268,27.45 36.407,29.02 36.407,32.14 C36.407,32.79 36.427,33.42 36.467,34.04 C36.627,37.76 36.907,41.14 32.847,45 C32.3646691,45.4549126 31.9073326,45.9356167 31.477,46.44 C28.057,50.41 27.6,54 23.367,54 L18.627,54 C14.398,54 13.937,50.41 10.518,46.44 C10.0873982,45.9358594 9.63007511,45.4551694 9.148,45 C5.088,41.14 5.367,37.76 5.528,34.04 C5.567,33.42 5.588,32.79 5.588,32.14 C5.588,29.02 4.727,27.45 4.407,22.49 C4.24402908,19.4955491 4.24402908,16.4944509 4.407,13.5 C5,0.64 19.807,0 19.807,0 L22.187,0 C22.187,0 36.997,0.64 37.587,13.5 C37.750304,16.4944328 37.7506378,19.495531 37.588,22.49 Z" id="Shape" fill="#35495E"/><path d="M40.847,27.64 C40.847,27.64 40.217,32.1 36.467,34.04 C36.427,33.42 36.407,32.79 36.407,32.14 C36.407,29.02 37.268,27.45 37.588,22.49 L37.667,22.5 C37.667,22.5 38.937,20.57 40.208,21.22 C41.467,21.85 40.847,27.64 40.847,27.64 Z" id="Shape" fill="#2C3E50"/><path d="M31.477,46.44 L31.477,55.96 C31.4770138,57.060676 30.5876623,57.9544966 29.487,57.96 L12.507,57.96 C11.4067287,57.9539484 10.5179834,57.060288 10.518,55.96 L10.518,46.44 C13.937,50.41 14.4,54 18.627,54 L23.367,54 C27.6,54 28.057,50.41 31.477,46.44 Z" id="Shape" fill="#2C3E50"/><path d="M22.81,26.19 C25.2446227,28.6318121 28.5518374,30.0029207 32,30 C32.34,30 32.67,29.99 33,29.96 L37,29 C38.4867728,28.3825143 39.843805,27.4902656 41,26.37 L42.24,25 C45.3032061,21.0853585 45.8645526,15.7661294 43.6859601,11.2983128 C41.5073677,6.83049621 36.9706782,3.99716646 32,4 L32,17 L22.81,26.19 Z" id="Shape" fill="#955BA5"/><path d="M18.9999953,17 C18.9970793,20.4481626 20.3681879,23.7553773 22.81,26.19 L32,17 L18.9999953,17 Z" id="Shape" fill="#F0C419"/><path d="M19,17 L32,17 L32,4 C24.8202983,4 19,9.82029825 19,17 Z" id="Shape" fill="#E64C3C"/><path d="M33,21 L37,21 L37,34 C37,34.5522847 36.5522847,35 36,35 L34,35 C33.4477153,35 33,34.5522847 33,34 L33,21 Z" id="Shape" fill="#2FA8CC" transform="translate(35.000000, 28.000000) rotate(-180.000000) translate(-35.000000, -28.000000) "/><path d="M41,25 L45,25 L45,34 C45,34.5522847 44.5522847,35 44,35 L42,35 C41.4477153,35 41,34.5522847 41,34 L41,25 Z" id="Shape" fill="#F0C419" transform="translate(43.000000, 30.000000) rotate(-180.000000) translate(-43.000000, -30.000000) "/><path d="M49,29 L53,29 L53,34 C53,34.5522847 52.5522847,35 52,35 L50,35 C49.4477153,35 49,34.5522847 49,34 L49,29 Z" id="Shape" fill="#2FA8CC" transform="translate(51.000000, 32.000000) rotate(-180.000000) translate(-51.000000, -32.000000) "/><path d="M30,36 L56,36 C56.5522847,36 57,35.5522847 57,35 C57,34.4477153 56.5522847,34 56,34 L30,34 C29.4477153,34 29,34.4477153 29,35 C29,35.5522847 29.4477153,36 30,36 Z" id="Shape" fill="#F29C1F"/></g></g></svg>
