<svg height="496pt" viewBox="0 0 496 496" width="496pt" xmlns="http://www.w3.org/2000/svg" xmlns:xlink="http://www.w3.org/1999/xlink"><linearGradient id="a" gradientUnits="userSpaceOnUse" x1="248" x2="248" y1="496" y2="0"><stop offset="0" stop-color="#9f2fff"/><stop offset="1" stop-color="#0bb1d3"/></linearGradient><path d="m96 400h16v16h-16zm-32 16h16v-16h-16zm-32 0h16v-16h-16zm464-264v256c0 22.054688-17.945312 40-40 40h-104v32h32v16h-272v-16h32v-32h-104c-22.054688 0-40-17.945312-40-40v-256c0-19.3125 13.769531-35.472656 32-39.191406v-88.808594c0-13.230469 10.769531-24 24-24h160c13.230469 0 24 10.769531 24 24v96c0 13.230469-10.769531 24-24 24h-80v38.953125l-58.425781-38.953125h-21.574219c-10.070312 0-18.6875-6.257812-22.238281-15.070312-10.203125 2.757812-17.761719 12.007812-17.761719 23.070312v216h98.425781l24 16h341.574219v-232c0-11.0625-7.558594-20.3125-17.761719-23.070312-3.550781 8.8125-12.167969 15.070312-22.238281 15.070312h-21.574219l-58.425781 38.953125v-38.953125h-80c-13.230469 0-24-10.769531-24-24v-96c0-13.230469 10.769531-24 24-24h160c13.230469 0 24 10.769531 24 24v88.808594c18.230469 3.71875 32 19.878906 32 39.191406zm-48-128c0-4.40625-3.585938-8-8-8h-160c-4.414062 0-8 3.59375-8 8v96c0 4.40625 3.585938 8 8 8h96v25.046875l37.574219-25.046875h26.425781c4.414062 0 8-3.59375 8-8zm-400 96c0 4.40625 3.585938 8 8 8h26.425781l37.574219 25.046875v-25.046875h96c4.414062 0 8-3.59375 8-8v-96c0-4.40625-3.585938-8-8-8h-160c-4.414062 0-8 3.59375-8 8zm432 288v-8h-346.425781l-24-16h-93.574219v24c0 13.230469 10.769531 24 24 24h120v48h176v-32h-160v-16h280c13.230469 0 24-10.769531 24-24zm-76.097656-164.558594 13.714844 20.558594-13.714844 20.558594c-34.824219 52.25-93.101563 83.441406-155.902344 83.441406s-121.078125-31.191406-155.902344-83.441406l-13.714844-20.558594 13.714844-20.558594c34.824219-52.25 93.101563-83.441406 155.902344-83.441406s121.078125 31.191406 155.902344 83.441406zm-155.902344-67.441406c-48.519531 0-88 39.480469-88 88s39.480469 88 88 88 88-39.480469 88-88-39.480469-88-88-88zm-76.945312 157.726562c-16.75-18.46875-27.054688-42.886718-27.054688-69.726562s10.304688-51.257812 27.054688-69.726562c-26.132813 13.125-48.886719 32.878906-65.65625 58.039062l-7.78125 11.6875 7.789062 11.6875c16.769531 25.160156 39.523438 44.90625 65.648438 58.039062zm227.328124-69.726562-7.789062-11.6875c-16.769531-25.160156-39.523438-44.914062-65.65625-58.039062 16.757812 18.46875 27.0625 42.886718 27.0625 69.726562s-10.304688 51.257812-27.054688 69.726562c26.132813-13.125 48.886719-32.878906 65.65625-58.039062zm-206.382812 0c0-30.878906 25.128906-56 56-56s56 25.121094 56 56-25.128906 56-56 56-56-25.121094-56-56zm16 0c0 22.054688 17.945312 40 40 40s40-17.945312 40-40-17.945312-40-40-40-40 17.945312-40 40zm16 0c0-13.230469 10.769531-24 24-24s24 10.769531 24 24-10.769531 24-24 24-24-10.769531-24-24zm16 0c0 4.40625 3.585938 8 8 8s8-3.59375 8-8-3.585938-8-8-8-8 3.59375-8 8zm-160-232h-16v16h16zm128 0h-112v16h112zm0 32h-144v16h144zm0 32h-144v16h144zm96-64h-16v16h16zm16 16h112v-16h-112zm-32 32h144v-16h-144zm0 32h112v-16h-112zm112 256h64v-16h-64zm64-48h-64v16h64zm-432 32h64v-16h-64zm64-48h-64v16h64zm0 0" fill="url(#a)"/></svg>