<?xml version="1.0" standalone="no"?>
<!--Generator: Gravit.io-->
<svg xmlns="http://www.w3.org/2000/svg" xmlns:xlink="http://www.w3.org/1999/xlink" width="376.9" height="460.1" style="isolation:isolate" viewBox="0 0 376.9 460.1">
    <defs>
        <clipPath id="_clipPath_F3vzBF9kPTzWhjPfzk0l2eMAJ7A8bmlt">
            <rect width="376.9" height="460.1"/>
        </clipPath>
    </defs>
    <g clip-path="url(#_clipPath_F3vzBF9kPTzWhjPfzk0l2eMAJ7A8bmlt)">
        <rect width="376.9" height="460.1" x="0" y="0" fill="rgb(255,255,255)" transform="matrix(1,0,0,1,0,0)"/>
        <g id="Group">
            <g id="Group">
                <g id="Group">
                    <g opacity="0.72">
                        <path fill="rgb(241,242,242)" d=" M 261 101.3 C 274.2 93.6 291.1 89.8 308.5 89.8 C 325.9 89.8 343.7 93.6 357 101.3 C 369.4 108.4 376 117.6 376.9 127 L 376.9 39.2 L 376.7 39.2 C 376.8 49.2 370.2 59.2 357.1 66.9 C 330.8 82.2 288 82.2 261.5 66.9 C 248.3 59.3 241.6 49.2 241.5 39.2 L 241.5 126.8 C 242.3 117.5 248.8 108.4 261 101.3 Z "/>
                    </g>
                    <path fill="rgb(8,83,148)" d=" M 357.3 156.9 C 330.9 172.2 287.9 172.3 261.3 156.9 C 248.9 149.8 242.3 140.6 241.4 131.2 L 241.4 355.3 C 241.5 365.3 248.1 375.3 261.4 383 C 287.9 398.3 330.7 398.3 357 383 C 370.2 375.4 376.7 365.3 376.6 355.3 L 376.8 355.3 L 376.8 131.4 C 376 140.7 369.5 149.8 357.3 156.9 Z "/>
                    <g opacity="0.72">
                        <path fill="rgb(230,231,232)" d=" M 356.7 11.5 C 343.5 3.9 325.7 0 308.4 0 C 291.1 0 274.2 3.8 261.1 11.5 C 247.9 19.1 241.4 29.2 241.5 39.2 C 241.5 39.2 241.5 39.2 241.5 39.2 C 241.6 49.2 248.2 59.2 261.5 66.9 C 288 82.2 330.8 82.2 357.1 66.9 C 370.3 59.3 376.8 49.2 376.7 39.2 C 376.6 29.2 369.9 19.2 356.7 11.5 Z "/>
                    </g>
                    <path fill="rgb(11,117,211)" d=" M 261.3 156.9 C 287.9 172.2 330.8 172.2 357.3 156.9 C 369.5 149.8 376 140.7 376.9 131.4 L 376.9 127 C 376 117.7 369.4 108.4 357 101.3 C 343.7 93.6 325.9 89.8 308.5 89.8 C 291.1 89.8 274.2 93.6 261 101.3 C 248.8 108.4 242.3 117.5 241.4 126.8 L 241.4 131.2 C 242.3 140.6 249 149.8 261.3 156.9 Z "/>
                </g>
                <path fill="rgb(255,255,255)" stroke="rgb(0,0,0)" stroke-linecap="butt" stroke-linejoin="miter" stroke-miterlimit="10" stroke-width="1" d=" M 278.4 39.2 L 278.4 39.2 L 278.4 39.2 L 278.4 39.2 Z " vector-effect="non-scaling-stroke"/>
                <path fill="rgb(255,255,255)" stroke="rgb(0,0,0)" stroke-linecap="butt" stroke-linejoin="miter" stroke-miterlimit="10" stroke-width="1" d=" M 122.7 39.2 L 122.7 39.2 L 122.7 39.2 L 122.7 39.2 Z " vector-effect="non-scaling-stroke"/>
                <g id="Group">
                    <g opacity="0.72">
                        <path fill="rgb(241,242,242)" d=" M 135.5 39.2 L 135.3 39.2 C 135.4 49.2 128.8 59.2 115.7 66.9 C 89.4 82.2 46.6 82.2 20.1 66.9 C 6.9 59.3 0.2 49.2 0.1 39.2 L 0.1 186.2 C 1.3 177.3 7.8 168.5 19.6 161.7 C 32.8 154 49.7 150.2 67.1 150.2 C 84.5 150.2 102.3 154 115.6 161.7 C 128.9 169.4 135.6 179.4 135.6 189.5 L 135.6 189.5 L 135.6 39.2 L 135.5 39.2 Z "/>
                    </g>
                    <path fill="rgb(11,117,211)" d=" M 135.5 189.5 C 135.6 199.6 129 209.6 115.8 217.3 C 89.4 232.6 46.4 232.7 19.8 217.3 C 7.8 210.4 1.2 201.5 0 192.5 L 0 355.3 C 0.1 365.3 6.7 375.3 20 383 C 46.5 398.3 89.3 398.3 115.6 383 C 128.8 375.4 135.3 365.3 135.2 355.3 L 135.4 355.3 L 135.5 189.5 L 135.5 189.5 Z "/>
                    <path fill="rgb(255,255,255)" stroke="rgb(0,0,0)" stroke-linecap="butt" stroke-linejoin="miter" stroke-miterlimit="10" stroke-width="1" d=" M 0 39.2 L 0 39.2 L 0 39.2 L 0 39.2 Z " vector-effect="non-scaling-stroke"/>
                    <g opacity="0.72">
                        <path fill="rgb(230,231,232)" d=" M 115.3 11.5 C 102.1 3.9 84.3 0 67 0 C 49.7 0 32.8 3.8 19.7 11.5 C 6.5 19.1 0 29.2 0.1 39.2 C 0.1 39.2 0.1 39.2 0.1 39.2 C 0.2 49.2 6.8 59.2 20.1 66.9 C 46.6 82.2 89.4 82.2 115.7 66.9 C 128.9 59.3 135.4 49.2 135.3 39.2 C 135.2 29.2 128.5 19.2 115.3 11.5 Z "/>
                    </g>
                    <path fill="rgb(11,146,211)" d=" M 19.8 217.3 C 46.4 232.6 89.3 232.6 115.8 217.3 C 142.2 202 142.1 177.1 115.5 161.7 C 102.2 154 84.4 150.2 67 150.2 C 49.6 150.2 32.7 154 19.5 161.7 C 7.7 168.5 1.2 177.3 0 186.2 L 0 192.5 C 1.3 201.6 7.8 210.4 19.8 217.3 Z "/>
                </g>
                <g id="Group">
                    <g opacity="0.72">
                        <path fill="rgb(241,242,242)" d=" M 142.3 309.6 C 155.5 301.9 172.4 298.1 189.8 298.1 C 207.2 298.1 225 301.9 238.3 309.6 C 250.7 316.7 257.3 325.9 258.2 335.3 L 258.2 104.8 L 257.9 104.8 C 258 114.8 251.4 124.8 238.3 132.5 C 212 147.8 169.2 147.8 142.7 132.5 C 129.5 124.9 122.8 114.8 122.7 104.8 L 122.7 335.1 C 123.6 325.8 130.1 316.7 142.3 309.6 Z "/>
                    </g>
                    <path fill="rgb(11,146,211)" d=" M 238.6 365.2 C 212.2 380.5 169.2 380.5 142.6 365.2 C 130.2 358.1 123.6 348.9 122.7 339.5 L 122.7 420.9 C 122.8 430.9 129.4 440.9 142.7 448.6 C 169.2 463.9 212 463.9 238.3 448.6 C 251.5 441 258 430.9 257.9 420.9 L 258.1 420.9 L 258.1 339.7 C 257.3 349 250.8 358.1 238.6 365.2 Z "/>
                    <g opacity="0.72">
                        <path fill="rgb(230,231,232)" d=" M 238 77.1 C 224.8 69.5 207 65.6 189.7 65.6 C 172.4 65.6 155.5 69.4 142.4 77.1 C 129.2 84.7 122.7 94.8 122.8 104.8 C 122.8 104.8 122.8 104.8 122.8 104.8 C 122.9 114.8 129.5 124.8 142.8 132.5 C 169.3 147.8 212.1 147.8 238.4 132.5 C 251.6 124.9 258.1 114.8 258 104.8 C 257.9 94.8 251.2 84.8 238 77.1 Z "/>
                    </g>
                    <path fill="rgb(11,177,211)" d=" M 238.3 309.6 C 225 301.9 207.2 298.1 189.8 298.1 C 172.4 298.1 155.5 301.9 142.3 309.6 C 130.1 316.7 123.6 325.8 122.7 335.1 L 122.7 339.5 C 123.6 348.8 130.2 358.1 142.6 365.2 C 169.2 380.5 212.1 380.5 238.6 365.2 C 250.8 358.1 257.3 349 258.2 339.7 L 258.2 335.3 C 257.3 325.9 250.6 316.7 238.3 309.6 Z "/>
                </g>
            </g>
        </g>
    </g>
</svg>
