<?xml version="1.0" encoding="utf-8"?>
<!--Generator: Adobe Illustrator 18.0.0, SVG Export Plug-In . SVG Version: 6.00 Build 0)-->
<!DOCTYPE svg PUBLIC "-//W3C//DTD SVG 1.1//EN" "http://www.w3.org/Graphics/SVG/1.1/DTD/svg11.dtd">
<svg xmlns="http://www.w3.org/2000/svg" xmlns:xlink="http://www.w3.org/1999/xlink" id="Layer_1" x="0px" y="0px" enable-background="new 0 0 1400 1100" version="1.1" viewBox="0 0 1400 1100" xml:space="preserve">
    <g>
        <rect width="1400" height="1100" fill="#ffffff"/>
        <g>
            <g>
                <g>
                    <g>
                        <g enable-background="new    ">
                            <g>
                                <polygon fill="#0B92D3" points="249.2,823.5 169.9,869.6 90,823.5 169.4,777.4 							"/>
                            </g>
                            <g>
                                <polygon fill="#0B75D3" points="249.2,823.5 249.2,835.7 169.9,881.8 169.9,869.6 							"/>
                            </g>
                            <g>
                                <polygon fill="#085394" points="169.9,869.6 169.9,881.8 90,835.7 90,823.5 							"/>
                            </g>
                        </g>
                    </g>
                    <g>
                        <g enable-background="new    ">
                            <g>
                                <polygon fill="#0B92D3" points="249.2,797.7 169.9,843.8 90,797.7 169.4,751.6 							"/>
                            </g>
                            <g>
                                <polygon fill="#0B75D3" points="249.2,797.7 249.2,809.9 169.9,856 169.9,843.8 							"/>
                            </g>
                            <g>
                                <polygon fill="#085394" points="169.9,843.8 169.9,856 90,809.9 90,797.7 							"/>
                            </g>
                        </g>
                    </g>
                    <g>
                        <g enable-background="new    ">
                            <g>
                                <polygon fill="#0B92D3" points="249.2,771.9 169.9,818 90,771.9 169.4,725.8 							"/>
                            </g>
                            <g>
                                <polygon fill="#0B75D3" points="249.2,771.9 249.2,784.1 169.9,830.2 169.9,818 							"/>
                            </g>
                            <g>
                                <polygon fill="#085394" points="169.9,818 169.9,830.2 90,784.1 90,771.9 							"/>
                            </g>
                        </g>
                    </g>
                    <g>
                        <g enable-background="new    ">
                            <g>
                                <polygon fill="#0B92D3" points="249.2,746.1 169.9,792.2 90,746.1 169.4,700 							"/>
                            </g>
                            <g>
                                <polygon fill="#0B75D3" points="249.2,746.1 249.2,758.3 169.9,804.5 169.9,792.2 							"/>
                            </g>
                            <g>
                                <polygon fill="#085394" points="169.9,792.2 169.9,804.5 90,758.4 90,746.1 							"/>
                            </g>
                        </g>
                    </g>
                    <g>
                        <g enable-background="new    ">
                            <g>
                                <polygon fill="#0B92D3" points="249.2,720.3 169.9,766.4 90,720.3 169.4,674.2 							"/>
                            </g>
                            <g>
                                <polygon fill="#0B75D3" points="249.2,720.3 249.2,732.6 169.9,778.7 169.9,766.4 							"/>
                            </g>
                            <g>
                                <polygon fill="#085394" points="169.9,766.4 169.9,778.7 90,732.6 90,720.3 							"/>
                            </g>
                        </g>
                    </g>
                </g>
                <g>
                    <g>
                        <g enable-background="new    ">
                            <g>
                                <polygon fill="#0BB1D3" points="352.9,889.3 273.6,935.4 193.7,889.3 273.1,843.2 							"/>
                            </g>
                            <g>
                                <polygon fill="#0B92D3" points="352.9,889.3 352.9,901.5 273.6,947.6 273.6,935.4 							"/>
                            </g>
                            <g>
                                <polygon fill="#0B75D3" points="273.6,935.4 273.6,947.6 193.7,901.5 193.7,889.3 							"/>
                            </g>
                        </g>
                    </g>
                    <g>
                        <g enable-background="new    ">
                            <g>
                                <polygon fill="#0BB1D3" points="352.9,863.5 273.6,909.6 193.7,863.5 273.1,817.4 							"/>
                            </g>
                            <g>
                                <polygon fill="#0B92D3" points="352.9,863.5 352.9,875.7 273.6,921.8 273.6,909.6 							"/>
                            </g>
                            <g>
                                <polygon fill="#0B75D3" points="273.6,909.6 273.6,921.8 193.7,875.7 193.7,863.5 							"/>
                            </g>
                        </g>
                    </g>
                    <g>
                        <g enable-background="new    ">
                            <g>
                                <polygon fill="#0BB1D3" points="352.9,837.7 273.6,883.8 193.7,837.7 273.1,791.6 							"/>
                            </g>
                            <g>
                                <polygon fill="#0B92D3" points="352.9,837.7 352.9,849.9 273.6,896 273.6,883.8 							"/>
                            </g>
                            <g>
                                <polygon fill="#0B75D3" points="273.6,883.8 273.6,896 193.7,849.9 193.7,837.7 							"/>
                            </g>
                        </g>
                    </g>
                    <g>
                        <g enable-background="new    ">
                            <g>
                                <polygon fill="#0BB1D3" points="352.9,811.9 273.6,858 193.7,811.9 273.1,765.8 							"/>
                            </g>
                            <g>
                                <polygon fill="#0B92D3" points="352.9,811.9 352.9,824.1 273.6,870.2 273.6,858 							"/>
                            </g>
                            <g>
                                <polygon fill="#0B75D3" points="273.6,858 273.6,870.2 193.7,824.1 193.7,811.9 							"/>
                            </g>
                        </g>
                    </g>
                    <g>
                        <g enable-background="new    ">
                            <g>
                                <polygon fill="#0BB1D3" points="352.9,786.1 273.6,832.2 193.7,786.1 273.1,740 							"/>
                            </g>
                            <g>
                                <polygon fill="#0B92D3" points="352.9,786.1 352.9,798.3 273.6,844.5 273.6,832.2 							"/>
                            </g>
                            <g>
                                <polygon fill="#0B75D3" points="273.6,832.2 273.6,844.5 193.7,798.3 193.7,786.1 							"/>
                            </g>
                        </g>
                    </g>
                    <g>
                        <g enable-background="new    ">
                            <g>
                                <polygon fill="#0BB1D3" points="352.9,760.3 273.6,806.4 193.7,760.3 273.1,714.2 							"/>
                            </g>
                            <g>
                                <polygon fill="#0B92D3" points="352.9,760.3 352.9,772.6 273.6,818.7 273.6,806.4 							"/>
                            </g>
                            <g>
                                <polygon fill="#0B75D3" points="273.6,806.4 273.6,818.7 193.7,772.6 193.7,760.3 							"/>
                            </g>
                        </g>
                    </g>
                    <g>
                        <g enable-background="new    ">
                            <g>
                                <polygon fill="#0BB1D3" points="352.9,734.5 273.6,780.7 193.7,734.5 273.1,688.4 							"/>
                            </g>
                            <g>
                                <polygon fill="#0B92D3" points="352.9,734.5 352.9,746.8 273.6,792.9 273.6,780.7 							"/>
                            </g>
                            <g>
                                <polygon fill="#0B75D3" points="273.6,780.7 273.6,792.9 193.7,746.8 193.7,734.5 							"/>
                            </g>
                        </g>
                    </g>
                    <g>
                        <g enable-background="new    ">
                            <g>
                                <polygon fill="#0BB1D3" points="352.9,708.8 273.6,754.9 193.7,708.8 273.1,662.6 							"/>
                            </g>
                            <g>
                                <polygon fill="#0B92D3" points="352.9,708.8 352.9,721 273.6,767.1 273.6,754.9 							"/>
                            </g>
                            <g>
                                <polygon fill="#0B75D3" points="273.6,754.9 273.6,767.1 193.7,721 193.7,708.8 							"/>
                            </g>
                        </g>
                    </g>
                    <g>
                        <g enable-background="new    ">
                            <g>
                                <polygon fill="#0BB1D3" points="352.9,683 273.6,729.1 193.7,683 273.1,636.9 							"/>
                            </g>
                            <g>
                                <polygon fill="#0B92D3" points="352.9,683 352.9,695.2 273.6,741.3 273.6,729.1 							"/>
                            </g>
                            <g>
                                <polygon fill="#0B75D3" points="273.6,729.1 273.6,741.3 193.7,695.2 193.7,683 							"/>
                            </g>
                        </g>
                    </g>
                </g>
                <g>
                    <g>
                        <g enable-background="new    ">
                            <g>
                                <polygon fill="#0B75D3" points="456.6,955 377.3,1001.2 297.4,955.1 376.8,908.9 							"/>
                            </g>
                            <g>
                                <polygon fill="#085394" points="456.6,955 456.6,967.3 377.3,1013.4 377.3,1001.2 							"/>
                            </g>
                            <g>
                                <polygon fill="#063A68" points="377.3,1001.2 377.3,1013.4 297.4,967.3 297.4,955.1 							"/>
                            </g>
                        </g>
                    </g>
                    <g>
                        <g enable-background="new    ">
                            <g>
                                <polygon fill="#0B75D3" points="456.6,929.3 377.3,975.4 297.4,929.3 376.8,883.2 							"/>
                            </g>
                            <g>
                                <polygon fill="#085394" points="456.6,929.3 456.6,941.5 377.3,987.6 377.3,975.4 							"/>
                            </g>
                            <g>
                                <polygon fill="#063A68" points="377.3,975.4 377.3,987.6 297.4,941.5 297.4,929.3 							"/>
                            </g>
                        </g>
                    </g>
                    <g>
                        <g enable-background="new    ">
                            <g>
                                <polygon fill="#0B75D3" points="456.6,903.5 377.3,949.6 297.4,903.5 376.8,857.4 							"/>
                            </g>
                            <g>
                                <polygon fill="#085394" points="456.6,903.5 456.6,915.7 377.3,961.8 377.3,949.6 							"/>
                            </g>
                            <g>
                                <polygon fill="#063A68" points="377.3,949.6 377.3,961.8 297.4,915.7 297.4,903.5 							"/>
                            </g>
                        </g>
                    </g>
                    <g>
                        <g enable-background="new    ">
                            <g>
                                <polygon fill="#0B75D3" points="456.6,877.7 377.3,923.8 297.4,877.7 376.8,831.6 							"/>
                            </g>
                            <g>
                                <polygon fill="#085394" points="456.6,877.7 456.6,889.9 377.3,936 377.3,923.8 							"/>
                            </g>
                            <g>
                                <polygon fill="#063A68" points="377.3,923.8 377.3,936 297.4,889.9 297.4,877.7 							"/>
                            </g>
                        </g>
                    </g>
                    <g>
                        <g enable-background="new    ">
                            <g>
                                <polygon fill="#0B75D3" points="456.6,851.9 377.3,898 297.4,851.9 376.8,805.8 							"/>
                            </g>
                            <g>
                                <polygon fill="#085394" points="456.6,851.9 456.6,864.1 377.3,910.2 377.3,898 							"/>
                            </g>
                            <g>
                                <polygon fill="#063A68" points="377.3,898 377.3,910.2 297.4,864.1 297.4,851.9 							"/>
                            </g>
                        </g>
                    </g>
                    <g>
                        <g enable-background="new    ">
                            <g>
                                <polygon fill="#0B75D3" points="456.6,826.1 377.3,872.2 297.4,826.1 376.8,780 							"/>
                            </g>
                            <g>
                                <polygon fill="#085394" points="456.6,826.1 456.6,838.3 377.3,884.4 377.3,872.2 							"/>
                            </g>
                            <g>
                                <polygon fill="#063A68" points="377.3,872.2 377.3,884.4 297.4,838.3 297.4,826.1 							"/>
                            </g>
                        </g>
                    </g>
                    <g>
                        <g enable-background="new    ">
                            <g>
                                <polygon fill="#0B75D3" points="456.6,800.3 377.3,846.4 297.4,800.3 376.8,754.2 							"/>
                            </g>
                            <g>
                                <polygon fill="#085394" points="456.6,800.3 456.6,812.6 377.3,858.7 377.3,846.4 							"/>
                            </g>
                            <g>
                                <polygon fill="#063A68" points="377.3,846.4 377.3,858.7 297.4,812.6 297.4,800.3 							"/>
                            </g>
                        </g>
                    </g>
                </g>
            </g>
            <g>
                <g>
                    <path fill="#BCBEC0" d="M466.6,294.7c0,0.5,0,1-0.1,1.4c0,0.4,0,0.8-0.1,1.2c0,0.5-0.1,1-0.1,1.4c0,0.4-0.1,0.8-0.1,1.2
					c-0.1,0.5-0.1,1-0.2,1.5c-0.1,0.4-0.1,0.8-0.2,1.2c-0.1,0.5-0.2,1-0.3,1.5c-0.1,0.4-0.1,0.8-0.2,1.2c-0.1,0.5-0.2,1-0.3,1.4
					c-0.1,0.4-0.2,0.8-0.3,1.2c-0.1,0.5-0.3,1-0.4,1.5c-0.1,0.4-0.2,0.8-0.3,1.2c-0.1,0.5-0.3,1-0.5,1.5c-0.1,0.4-0.2,0.8-0.4,1.1
					c-0.2,0.5-0.4,1-0.5,1.6c-0.1,0.4-0.2,0.7-0.4,1.1c-0.3,0.8-0.6,1.5-0.9,2.3c-0.1,0.1-0.1,0.3-0.2,0.4c-0.4,0.9-0.8,1.8-1.2,2.6
					c-0.1,0.3-0.3,0.5-0.4,0.8c-0.3,0.6-0.6,1.2-0.9,1.8c-0.2,0.3-0.4,0.7-0.5,1c-0.3,0.5-0.6,1.1-0.9,1.6c-0.2,0.3-0.4,0.6-0.5,0.9
					c-0.3,0.6-0.7,1.2-1.1,1.8c-0.2,0.4-0.4,0.7-0.7,1c-0.4,0.6-0.7,1.1-1.1,1.7c-0.2,0.4-0.5,0.7-0.7,1.1c-0.4,0.5-0.8,1.1-1.1,1.6
					c-0.3,0.4-0.5,0.7-0.8,1.1c-0.4,0.6-0.8,1.1-1.3,1.7c-0.3,0.4-0.6,0.7-0.8,1.1c-0.1,0.2-0.3,0.4-0.4,0.5c-0.5,0.6-1,1.2-1.5,1.9
					c-0.1,0.1-0.2,0.2-0.3,0.3c-0.6,0.7-1.2,1.4-1.9,2.1c-0.2,0.2-0.3,0.3-0.5,0.5c-0.6,0.6-1.1,1.2-1.7,1.8
					c-0.1,0.1-0.2,0.2-0.3,0.3c-0.7,0.7-1.3,1.4-2,2.1c-0.2,0.2-0.3,0.3-0.5,0.5c-0.6,0.6-1.2,1.2-1.9,1.8c-0.1,0.1-0.2,0.2-0.4,0.4
					c-0.4,0.4-0.8,0.7-1.2,1.1c-0.5,0.4-1,0.9-1.4,1.3c-0.4,0.3-0.8,0.7-1.2,1c-0.5,0.4-1,0.8-1.5,1.3c-0.4,0.4-0.9,0.7-1.3,1
					c-0.5,0.4-1,0.8-1.5,1.2c-0.4,0.3-0.9,0.7-1.4,1c-0.5,0.4-1,0.8-1.6,1.2c-0.5,0.3-0.9,0.7-1.4,1c-0.5,0.4-1.1,0.8-1.6,1.2
					c-0.5,0.3-1,0.7-1.5,1c-0.6,0.4-1.1,0.8-1.7,1.1c-0.5,0.3-1,0.7-1.5,1c-0.6,0.4-1.1,0.7-1.7,1.1c-0.5,0.3-1.1,0.7-1.6,1
					c-0.6,0.4-1.2,0.7-1.8,1.1c-0.9,0.6-1.9,1.1-2.9,1.7c-1.4,0.8-2.9,1.6-4.3,2.4c-0.4,0.2-0.8,0.5-1.3,0.7
					c-1.1,0.6-2.3,1.2-3.4,1.8c-0.4,0.2-0.8,0.4-1.2,0.6c-1.5,0.7-3,1.5-4.5,2.2c-0.3,0.1-0.5,0.2-0.8,0.4c-1.3,0.6-2.6,1.2-3.9,1.8
					c-0.5,0.2-0.9,0.4-1.4,0.6c-1.3,0.6-2.6,1.1-3.8,1.6c-0.3,0.1-0.6,0.3-1,0.4c-1.6,0.6-3.2,1.3-4.8,1.9c-0.4,0.2-0.8,0.3-1.2,0.5
					c-1.3,0.5-2.5,0.9-3.8,1.4c-0.5,0.2-1,0.3-1.4,0.5c-1.5,0.5-3.1,1.1-4.6,1.6c-0.1,0-0.2,0.1-0.4,0.1c-1.4,0.5-2.8,0.9-4.2,1.3
					c-0.3,0.1-0.7,0.2-1,0.3c-1.1,0.3-2.2,0.7-3.3,1c-0.5,0.2-1.1,0.3-1.6,0.4c-0.9,0.3-1.8,0.5-2.7,0.8c-0.6,0.2-1.2,0.3-1.8,0.5
					c-0.9,0.2-1.7,0.4-2.6,0.7c-0.6,0.2-1.3,0.3-1.9,0.5c-0.8,0.2-1.7,0.4-2.5,0.6c-0.7,0.2-1.3,0.3-2,0.4c-0.8,0.2-1.6,0.4-2.5,0.5
					c-0.7,0.1-1.4,0.3-2,0.4c-0.8,0.2-1.6,0.3-2.5,0.5c-0.7,0.1-1.4,0.3-2.1,0.4c-0.8,0.2-1.6,0.3-2.5,0.5c-0.6,0.1-1.2,0.2-1.8,0.3
					c-1.4,0.2-2.8,0.5-4.2,0.7c-0.4,0.1-0.9,0.1-1.3,0.2c-1.8,0.3-3.6,0.6-5.4,0.8c-0.4,0.1-0.8,0.1-1.2,0.2
					c-1.5,0.2-2.9,0.4-4.4,0.6c-0.5,0.1-1.1,0.1-1.6,0.2c-1.5,0.2-3,0.3-4.5,0.5c-0.3,0-0.7,0.1-1,0.1c-1.6,0.2-3.3,0.3-4.9,0.4
					c-0.3,0-0.6,0-0.8,0.1c-1.4,0.1-2.7,0.2-4.1,0.3c-0.6,0-1.1,0.1-1.7,0.1c-1.1,0.1-2.2,0.1-3.3,0.2c-0.6,0-1.3,0.1-1.9,0.1
					c-1,0-2.1,0.1-3.1,0.1c-0.7,0-1.4,0-2,0.1c-0.9,0-1.7,0-2.6,0.1c-0.7,0-1.4,0-2.1,0c-0.9,0-1.8,0-2.6,0c-0.7,0-1.4,0-2.1,0
					c-0.9,0-1.8,0-2.7,0c-0.7,0-1.4,0-2.1,0c-0.9,0-1.8,0-2.7,0c-0.7,0-1.3,0-2,0c-0.8,0-1.7-0.1-2.5-0.1c-0.7,0-1.4,0-2.1-0.1
					c-0.9,0-1.7-0.1-2.5-0.1c-0.7,0-1.4-0.1-2.1-0.1c-0.9,0-1.7-0.1-2.6-0.2c-0.7,0-1.3-0.1-2-0.1c-0.9-0.1-1.8-0.1-2.7-0.2
					c-0.6,0-1.3-0.1-1.9-0.1c-0.9-0.1-1.9-0.2-2.8-0.2c-0.6-0.1-1.2-0.1-1.8-0.2c-1.1-0.1-2.1-0.2-3.2-0.3c-0.5-0.1-1-0.1-1.4-0.2
					c-1.5-0.2-3-0.4-4.6-0.5c-0.2,0-0.4-0.1-0.6-0.1c-1.3-0.2-2.6-0.3-3.9-0.5c-0.4-0.1-0.8-0.1-1.1-0.2c-1.2-0.2-2.3-0.3-3.5-0.5
					c-0.6-0.1-1.1-0.2-1.7-0.3c-1-0.2-1.9-0.3-2.9-0.5c-0.6-0.1-1.3-0.2-1.9-0.3c-0.9-0.2-1.8-0.3-2.7-0.5c-0.7-0.1-1.3-0.3-2-0.4
					c-0.9-0.2-1.7-0.3-2.6-0.5c-0.6-0.1-1.2-0.3-1.8-0.4c-1-0.2-2-0.4-3-0.6c-0.6-0.1-1.2-0.3-1.9-0.4c-1-0.2-1.9-0.5-2.9-0.7
					c-0.6-0.1-1.2-0.3-1.8-0.4c-1-0.3-2-0.5-3-0.8c-0.5-0.1-1.1-0.3-1.6-0.4c-1.2-0.3-2.5-0.7-3.7-1c-0.3-0.1-0.6-0.2-0.9-0.2
					c-1.8-0.5-3.5-1-5.3-1.6c-0.5-0.1-0.9-0.3-1.4-0.4c-1.4-0.4-2.8-0.9-4.2-1.4c-0.4-0.1-0.8-0.3-1.2-0.4c-1.7-0.6-3.4-1.2-5.1-1.8
					c-0.4-0.1-0.7-0.3-1.1-0.4c-1.4-0.5-2.7-1-4.1-1.5c-0.5-0.2-1.1-0.4-1.6-0.6c-0.6-0.2-1.1-0.4-1.6-0.7c-0.7-0.3-1.4-0.6-2.1-0.9
					c-0.5-0.2-1.1-0.5-1.6-0.7c-0.7-0.3-1.4-0.6-2.1-0.9c-0.5-0.2-1.1-0.5-1.6-0.7c-0.7-0.3-1.4-0.6-2.1-1c-0.5-0.2-1-0.5-1.6-0.7
					c-0.7-0.3-1.4-0.7-2.1-1c-0.5-0.2-1-0.5-1.5-0.7c-0.7-0.4-1.4-0.7-2.1-1.1c-0.5-0.2-0.9-0.5-1.4-0.7c-0.8-0.4-1.5-0.8-2.3-1.2
					c-0.4-0.2-0.8-0.4-1.1-0.6c-1.1-0.6-2.3-1.3-3.4-1.9c-37.6-21.7-56.4-50.2-56.3-78.7l-0.1,27.1c-0.1,28.5,18.7,56.9,56.3,78.7
					c1.1,0.6,2.3,1.3,3.4,1.9c0.4,0.2,0.8,0.4,1.1,0.6c0.8,0.4,1.5,0.8,2.3,1.2c0.5,0.2,0.9,0.5,1.4,0.7c0.7,0.4,1.4,0.7,2.1,1.1
					c0.5,0.2,1,0.5,1.5,0.7c0.7,0.3,1.4,0.7,2.1,1c0.5,0.2,1,0.5,1.6,0.7c0.7,0.3,1.4,0.6,2.1,1c0.5,0.2,1.1,0.5,1.6,0.7
					c0.7,0.3,1.4,0.6,2.1,0.9c0.5,0.2,1.1,0.5,1.6,0.7c0.7,0.3,1.4,0.6,2.1,0.9c0.5,0.2,1.1,0.4,1.6,0.7c0.3,0.1,0.5,0.2,0.8,0.3
					c0.3,0.1,0.5,0.2,0.8,0.3c1.3,0.5,2.7,1,4.1,1.5c0.4,0.1,0.7,0.3,1.1,0.4c1.7,0.6,3.4,1.2,5.1,1.8c0.4,0.1,0.8,0.3,1.2,0.4
					c1.4,0.5,2.8,0.9,4.2,1.4c0.5,0.1,0.9,0.3,1.4,0.4c1.7,0.5,3.5,1.1,5.3,1.6c0,0,0.1,0,0.1,0c0.3,0.1,0.5,0.1,0.8,0.2
					c1.2,0.3,2.5,0.7,3.7,1c0.5,0.1,1.1,0.3,1.6,0.4c1,0.3,2,0.5,3,0.8c0.6,0.1,1.2,0.3,1.8,0.4c1,0.2,1.9,0.5,2.9,0.7
					c0.6,0.1,1.2,0.3,1.9,0.4c1,0.2,2,0.4,3,0.6c0.4,0.1,0.8,0.2,1.2,0.3c0.2,0,0.4,0.1,0.6,0.1c0.9,0.2,1.7,0.3,2.6,0.5
					c0.7,0.1,1.3,0.3,2,0.4c0.9,0.2,1.8,0.3,2.7,0.5c0.6,0.1,1.3,0.2,1.9,0.3c1,0.2,1.9,0.3,2.9,0.5c0.6,0.1,1.1,0.2,1.7,0.3
					c1.2,0.2,2.3,0.4,3.5,0.5c0.4,0.1,0.7,0.1,1.1,0.2c0,0,0,0,0.1,0c1.3,0.2,2.6,0.4,3.9,0.5c0.2,0,0.4,0.1,0.6,0.1
					c1.5,0.2,3,0.4,4.6,0.5c0.5,0.1,1,0.1,1.4,0.2c1,0.1,2.1,0.2,3.1,0.3c0.6,0.1,1.2,0.1,1.8,0.2c0.9,0.1,1.9,0.2,2.8,0.3
					c0.1,0,0.1,0,0.2,0c0.6,0,1.2,0.1,1.8,0.1c0.9,0.1,1.8,0.1,2.7,0.2c0.7,0,1.3,0.1,2,0.1c0.9,0.1,1.7,0.1,2.6,0.2
					c0.7,0,1.4,0.1,2.1,0.1c0.8,0,1.7,0.1,2.5,0.1c0.7,0,1.4,0,2.1,0.1c0.8,0,1.7,0.1,2.5,0.1c0.1,0,0.3,0,0.4,0c0.5,0,1,0,1.6,0
					c0.9,0,1.8,0,2.7,0c0.7,0,1.4,0,2.1,0c0.9,0,1.8,0,2.7,0c0.7,0,1.4,0,2.1,0c0.9,0,1.8,0,2.6,0c0.7,0,1.4,0,2.1,0
					c0.9,0,1.7,0,2.6-0.1c0.3,0,0.7,0,1,0c0.3,0,0.7,0,1,0c1,0,2.1-0.1,3.1-0.1c0.6,0,1.3-0.1,1.9-0.1c1.1-0.1,2.2-0.1,3.3-0.2
					c0.6,0,1.1-0.1,1.7-0.1c1.4-0.1,2.7-0.2,4.1-0.3c0.3,0,0.6,0,0.8-0.1c1.6-0.1,3.3-0.3,4.9-0.4c0.1,0,0.2,0,0.2,0
					c0.3,0,0.5-0.1,0.8-0.1c1.5-0.2,3-0.3,4.5-0.5c0.5-0.1,1.1-0.1,1.6-0.2c1.5-0.2,2.9-0.4,4.4-0.6c0.4-0.1,0.8-0.1,1.2-0.2
					c1.8-0.3,3.6-0.5,5.4-0.8c0.4-0.1,0.9-0.1,1.3-0.2c1.4-0.2,2.8-0.5,4.2-0.7c0.3-0.1,0.6-0.1,0.9-0.2c0.3-0.1,0.6-0.1,0.9-0.2
					c0.8-0.2,1.6-0.3,2.5-0.5c0.7-0.1,1.4-0.3,2.1-0.4c0.8-0.2,1.6-0.3,2.5-0.5c0.7-0.1,1.4-0.3,2-0.4c0.8-0.2,1.6-0.4,2.5-0.5
					c0.7-0.1,1.3-0.3,2-0.4c0.8-0.2,1.7-0.4,2.5-0.6c0.6-0.2,1.3-0.3,1.9-0.5c0.9-0.2,1.7-0.4,2.6-0.7c0.6-0.2,1.2-0.3,1.8-0.5
					c0.9-0.2,1.8-0.5,2.7-0.8c0.5-0.1,1.1-0.3,1.6-0.4c1.1-0.3,2.2-0.6,3.3-1c0.3-0.1,0.7-0.2,1-0.3c1.4-0.4,2.8-0.9,4.2-1.3
					c0,0,0,0,0.1,0c0.1,0,0.2-0.1,0.3-0.1c1.6-0.5,3.1-1,4.6-1.6c0.5-0.2,1-0.3,1.4-0.5c1.3-0.5,2.6-0.9,3.8-1.4
					c0.4-0.2,0.8-0.3,1.2-0.5c1.6-0.6,3.2-1.2,4.8-1.9c0.3-0.1,0.6-0.3,1-0.4c1.3-0.5,2.6-1.1,3.8-1.6c0.5-0.2,0.9-0.4,1.4-0.6
					c1.3-0.6,2.6-1.2,3.9-1.8c0.3-0.1,0.5-0.2,0.8-0.4c1.5-0.7,3-1.5,4.5-2.2c0.4-0.2,0.8-0.4,1.2-0.6c1.1-0.6,2.3-1.2,3.4-1.8
					c0.4-0.2,0.8-0.5,1.3-0.7c1.5-0.8,2.9-1.6,4.3-2.4c0.8-0.5,1.6-0.9,2.3-1.4c0.2-0.1,0.3-0.2,0.5-0.3c0.6-0.4,1.2-0.7,1.8-1.1
					c0.5-0.3,1.1-0.7,1.6-1c0.6-0.4,1.1-0.7,1.7-1.1c0.5-0.3,1-0.7,1.5-1c0.6-0.4,1.1-0.8,1.7-1.1c0.5-0.3,1-0.7,1.5-1
					c0.5-0.4,1.1-0.8,1.6-1.2c0.5-0.3,0.9-0.7,1.4-1c0.5-0.4,1-0.8,1.6-1.2c0.5-0.3,0.9-0.7,1.3-1c0.5-0.4,1-0.8,1.5-1.2
					c0.4-0.3,0.9-0.7,1.3-1c0.5-0.4,1-0.8,1.5-1.3c0.4-0.3,0.8-0.7,1.2-1c0.5-0.4,1-0.9,1.4-1.3c0.3-0.3,0.7-0.6,1-0.9
					c0.1-0.1,0.1-0.1,0.2-0.2c0.1-0.1,0.2-0.2,0.4-0.4c0.6-0.6,1.2-1.2,1.9-1.8c0.2-0.2,0.3-0.3,0.5-0.5c0.7-0.7,1.4-1.4,2-2.1
					c0.1-0.1,0.2-0.2,0.3-0.3c0.6-0.6,1.1-1.2,1.7-1.8c0.2-0.2,0.3-0.3,0.5-0.5c0.6-0.7,1.2-1.4,1.9-2.1c0.1-0.1,0.2-0.2,0.3-0.3
					c0.5-0.6,1-1.2,1.5-1.9c0.1-0.2,0.3-0.4,0.4-0.5c0.1-0.1,0.2-0.3,0.3-0.4c0.2-0.2,0.4-0.5,0.5-0.7c0.4-0.6,0.9-1.1,1.3-1.7
					c0.3-0.4,0.5-0.7,0.8-1.1c0.4-0.5,0.8-1.1,1.1-1.6c0.2-0.4,0.5-0.7,0.7-1.1c0.4-0.6,0.7-1.1,1.1-1.7c0.2-0.3,0.4-0.7,0.7-1
					c0.4-0.6,0.7-1.2,1.1-1.8c0.1-0.2,0.3-0.5,0.4-0.7c0-0.1,0.1-0.1,0.1-0.2c0.3-0.5,0.6-1.1,0.9-1.6c0.2-0.3,0.4-0.7,0.5-1
					c0.3-0.6,0.6-1.2,0.9-1.8c0.1-0.3,0.3-0.5,0.4-0.8c0.4-0.9,0.8-1.8,1.2-2.6c0.1-0.1,0.1-0.3,0.2-0.4c0.3-0.7,0.6-1.5,0.9-2.3
					c0,0,0-0.1,0-0.1c0.1-0.3,0.2-0.7,0.3-1c0.2-0.5,0.4-1,0.5-1.5c0.1-0.4,0.2-0.8,0.4-1.1c0.2-0.5,0.3-1,0.5-1.5
					c0.1-0.4,0.2-0.8,0.3-1.2c0.1-0.5,0.3-1,0.4-1.5c0.1-0.4,0.2-0.8,0.3-1.2c0.1-0.5,0.2-1,0.3-1.4c0-0.1,0-0.2,0.1-0.3
					c0.1-0.3,0.1-0.6,0.2-1c0.1-0.5,0.2-1,0.3-1.5c0.1-0.4,0.1-0.8,0.2-1.2c0.1-0.5,0.1-1,0.2-1.5c0-0.4,0.1-0.8,0.1-1.2
					c0-0.5,0.1-1,0.1-1.4c0-0.4,0.1-0.8,0.1-1.3c0-0.5,0.1-1,0.1-1.4c0-0.2,0-0.3,0-0.5c0-0.6,0-1.1,0-1.7l0.1-27.1
					C466.6,293.2,466.6,293.9,466.6,294.7z"/>
                    <g>
                        <path fill="#D1D3D4" d="M410.3,213.9c74.7,43.1,75.1,113.1,0.9,156.2s-195,43.1-269.7,0S66.4,257,140.6,213.9
						C214.8,170.7,335.6,170.7,410.3,213.9z"/>
                    </g>
                </g>
                <g>
                    <g>
                        <g>
                            <path fill="#0B75D3" d="M387.3,163.1l-110.8,64.4l-111.6-64.4C227.1,128.9,324.8,128.9,387.3,163.1z"/>
                        </g>
                        <g>
                            <polygon fill="#085394" points="387.3,163.1 387.2,209.7 276.3,274.1 276.5,227.5 						"/>
                        </g>
                        <g>
                            <polygon fill="#063A68" points="276.5,227.5 276.3,274.1 164.8,209.7 164.9,163.1 						"/>
                        </g>
                    </g>
                    <g>
                        <path fill="#0B92D3" d="M438.4,235.5c0,0.4,0,0.8-0.1,1.2c0,0.4,0,0.7-0.1,1.1c0,0.4-0.1,0.8-0.1,1.2c0,0.4-0.1,0.7-0.1,1.1
						c0,0.4-0.1,0.8-0.2,1.2c0,0.3-0.1,0.7-0.2,1c-0.1,0.4-0.1,0.8-0.2,1.3c-0.1,0.3-0.1,0.7-0.2,1c-0.1,0.4-0.2,0.8-0.3,1.2
						c-0.1,0.3-0.2,0.7-0.2,1c-0.1,0.4-0.2,0.8-0.3,1.2c-0.1,0.3-0.2,0.7-0.3,1c-0.1,0.4-0.3,0.9-0.4,1.3c-0.1,0.3-0.2,0.6-0.3,1
						c-0.1,0.4-0.3,0.9-0.5,1.3c-0.1,0.3-0.2,0.6-0.3,0.9c-0.2,0.6-0.5,1.3-0.8,1.9c0,0.1-0.1,0.2-0.1,0.3c-0.3,0.7-0.6,1.5-1,2.2
						c-0.1,0.2-0.2,0.4-0.3,0.7c-0.2,0.5-0.5,1-0.8,1.6c-0.1,0.3-0.3,0.6-0.5,0.9c-0.2,0.5-0.5,0.9-0.7,1.4
						c-0.1,0.3-0.3,0.5-0.5,0.8c-0.3,0.5-0.6,1-0.9,1.5c-0.2,0.3-0.4,0.6-0.6,0.9c-0.3,0.5-0.6,0.9-0.9,1.4
						c-0.2,0.3-0.4,0.6-0.6,0.9c-0.3,0.5-0.6,0.9-1,1.4c-0.2,0.3-0.4,0.6-0.7,0.9c-0.4,0.5-0.7,0.9-1.1,1.4
						c-0.2,0.3-0.4,0.5-0.6,0.8c-0.7,0.8-1.3,1.6-2,2.5c-0.1,0.1-0.2,0.3-0.4,0.4c-0.6,0.7-1.2,1.4-1.8,2.1
						c-0.2,0.2-0.5,0.5-0.7,0.7c-0.6,0.6-1.2,1.2-1.8,1.8c-0.2,0.2-0.4,0.4-0.6,0.6c-0.8,0.8-1.6,1.6-2.5,2.4
						c-0.3,0.3-0.6,0.6-0.9,0.9c-0.4,0.4-0.8,0.7-1.2,1.1c-0.3,0.3-0.7,0.6-1,0.9c-0.4,0.4-0.8,0.7-1.3,1.1
						c-0.4,0.3-0.7,0.6-1.1,0.9c-0.4,0.3-0.9,0.7-1.3,1c-0.4,0.3-0.8,0.6-1.1,0.9c-0.4,0.3-0.9,0.7-1.3,1c-0.4,0.3-0.8,0.6-1.2,0.9
						c-0.5,0.3-0.9,0.7-1.4,1c-0.4,0.3-0.8,0.6-1.2,0.9c-0.5,0.3-0.9,0.6-1.4,1c-0.4,0.3-0.9,0.6-1.3,0.9c-0.5,0.3-1,0.6-1.5,0.9
						c-0.4,0.3-0.9,0.6-1.3,0.8c-0.5,0.3-1,0.6-1.5,0.9c-0.8,0.5-1.6,1-2.4,1.4c-1.3,0.8-2.7,1.5-4.1,2.3c-0.5,0.2-0.9,0.5-1.4,0.7
						c-0.9,0.5-1.8,1-2.8,1.5c-0.6,0.3-1.1,0.6-1.7,0.8c-0.9,0.4-1.7,0.8-2.6,1.2c-0.6,0.3-1.2,0.6-1.8,0.8
						c-0.8,0.4-1.7,0.8-2.5,1.1c-0.6,0.3-1.3,0.6-1.9,0.8c-0.8,0.4-1.7,0.7-2.5,1c-0.7,0.3-1.3,0.5-2,0.8c-0.8,0.3-1.7,0.7-2.5,1
						c-0.7,0.3-1.4,0.5-2.1,0.8c-0.8,0.3-1.7,0.6-2.5,0.9c-0.7,0.2-1.4,0.5-2.1,0.7c-0.9,0.3-1.7,0.6-2.6,0.9
						c-0.6,0.2-1.2,0.4-1.8,0.6c-2.1,0.7-4.3,1.3-6.4,1.9c-0.2,0.1-0.4,0.1-0.6,0.2c-2,0.6-4.1,1.1-6.2,1.6
						c-0.5,0.1-0.9,0.2-1.4,0.4c-2.2,0.5-4.4,1-6.6,1.5c-0.4,0.1-0.8,0.2-1.2,0.3c-2,0.4-4.1,0.8-6.1,1.2c-0.4,0.1-0.8,0.2-1.2,0.2
						c-1.8,0.3-3.6,0.6-5.4,0.9l-0.1,46.6c1.8-0.3,3.6-0.6,5.4-0.9c0.1,0,0.3,0,0.4-0.1c0.3,0,0.5-0.1,0.8-0.2
						c2-0.4,4.1-0.8,6.1-1.2c0.4-0.1,0.8-0.2,1.2-0.3c2.2-0.5,4.4-1,6.6-1.5c0.5-0.1,0.9-0.2,1.4-0.4c2.1-0.5,4.1-1.1,6.2-1.6
						c0.2-0.1,0.4-0.1,0.6-0.2c2.2-0.6,4.3-1.3,6.4-1.9c0.2-0.1,0.5-0.1,0.7-0.2c0.4-0.1,0.7-0.2,1-0.4c0.9-0.3,1.7-0.6,2.6-0.9
						c0.7-0.2,1.4-0.5,2.1-0.7c0.8-0.3,1.7-0.6,2.5-0.9c0.7-0.3,1.4-0.5,2.1-0.8c0.8-0.3,1.7-0.6,2.5-1c0.7-0.3,1.4-0.5,2-0.8
						c0.8-0.3,1.7-0.7,2.5-1c0.7-0.3,1.3-0.6,2-0.8c0.8-0.4,1.7-0.8,2.5-1.1c0.6-0.3,1.2-0.6,1.8-0.8c0.9-0.4,1.7-0.8,2.6-1.2
						c0.6-0.3,1.1-0.5,1.7-0.8c0.9-0.5,1.9-1,2.8-1.5c0.5-0.2,0.9-0.5,1.4-0.7c1.4-0.7,2.7-1.5,4.1-2.3c0.7-0.4,1.3-0.8,2-1.2
						c0.1-0.1,0.3-0.2,0.4-0.3c0.5-0.3,1-0.6,1.5-0.9c0.4-0.3,0.9-0.6,1.3-0.8c0.5-0.3,1-0.6,1.5-0.9c0.4-0.3,0.9-0.6,1.3-0.9
						c0.5-0.3,0.9-0.6,1.4-1c0.4-0.3,0.8-0.6,1.3-0.9c0.5-0.3,0.9-0.7,1.4-1c0.4-0.3,0.8-0.6,1.2-0.9c0.5-0.3,0.9-0.7,1.3-1
						c0.4-0.3,0.8-0.6,1.1-0.9c0.4-0.3,0.9-0.7,1.3-1c0.4-0.3,0.7-0.6,1.1-0.9c0.4-0.4,0.8-0.7,1.3-1.1c0.3-0.3,0.7-0.6,1-0.9
						c0.4-0.4,0.8-0.7,1.2-1.1c0.3-0.3,0.6-0.5,0.9-0.8c0,0,0.1-0.1,0.1-0.1c0.8-0.8,1.7-1.6,2.5-2.4c0.2-0.2,0.4-0.4,0.6-0.6
						c0.6-0.6,1.2-1.2,1.8-1.8c0.2-0.2,0.5-0.5,0.7-0.7c0.6-0.7,1.2-1.4,1.8-2.1c0.1-0.1,0.2-0.3,0.4-0.4c0.7-0.8,1.4-1.6,2-2.5
						c0.1-0.1,0.1-0.1,0.2-0.2c0.2-0.2,0.3-0.4,0.5-0.6c0.4-0.5,0.7-0.9,1.1-1.4c0.2-0.3,0.4-0.6,0.7-0.9c0.3-0.5,0.7-0.9,1-1.4
						c0.2-0.3,0.4-0.6,0.6-0.9c0.3-0.5,0.6-0.9,0.9-1.4c0.2-0.3,0.4-0.6,0.6-0.9c0.3-0.5,0.6-1,0.9-1.5c0.1-0.2,0.2-0.4,0.4-0.6
						c0-0.1,0.1-0.1,0.1-0.2c0.3-0.5,0.5-0.9,0.7-1.4c0.2-0.3,0.3-0.6,0.5-0.9c0.3-0.5,0.5-1,0.8-1.6c0.1-0.2,0.2-0.4,0.3-0.7
						c0.3-0.7,0.7-1.5,1-2.2c0.1-0.1,0.1-0.2,0.1-0.4c0.3-0.6,0.5-1.3,0.8-1.9c0,0,0,0,0-0.1c0.1-0.3,0.2-0.6,0.3-0.8
						c0.2-0.4,0.3-0.9,0.5-1.3c0.1-0.3,0.2-0.6,0.3-1c0.1-0.4,0.3-0.8,0.4-1.3c0.1-0.3,0.2-0.7,0.3-1c0.1-0.4,0.2-0.8,0.3-1.2
						c0.1-0.3,0.2-0.7,0.2-1c0.1-0.4,0.2-0.8,0.3-1.2c0-0.1,0-0.1,0-0.2c0.1-0.3,0.1-0.5,0.1-0.8c0.1-0.4,0.2-0.8,0.2-1.2
						c0.1-0.3,0.1-0.7,0.2-1c0.1-0.4,0.1-0.8,0.2-1.2c0-0.4,0.1-0.7,0.1-1.1c0-0.4,0.1-0.8,0.1-1.2c0-0.4,0-0.7,0.1-1.1
						c0-0.4,0-0.8,0.1-1.2c0-0.1,0-0.3,0-0.4c0-0.5,0-1,0-1.4l0.1-46.6C438.4,234.3,438.4,234.9,438.4,235.5z"/>
                        <g>
                            <path fill="#0BB1D3" d="M393.8,168.8c60.2,36.7,59.5,94.7-2.4,130.7c-20.7,12-45.6,20.1-72,24.2L281.6,234L393.8,168.8z"/>
                        </g>
                        <g>
                            <polygon fill="#0B75D3" points="319.3,323.7 319.2,370.3 281.4,280.6 281.6,234 						"/>
                        </g>
                    </g>
                    <g>
                        <path fill="#0B75D3" d="M309.3,325c-1.8,0.2-3.6,0.4-5.5,0.6c-0.9,0.1-1.9,0.2-2.8,0.3c-0.6,0.1-1.2,0.1-1.8,0.2
						c-1.1,0.1-2.3,0.2-3.4,0.3c-0.4,0-0.9,0.1-1.3,0.1c-1.6,0.1-3.1,0.2-4.7,0.3c-0.4,0-0.7,0-1.1,0c-1.2,0.1-2.4,0.1-3.6,0.1
						c-2.4,0.1-4.9,0.1-7.3,0.1c-0.5,0-1,0-1.4,0c-2.4,0-4.8,0-7.2-0.1c-0.4,0-0.8,0-1.2,0c-2.2-0.1-4.3-0.1-6.5-0.3
						c-0.3,0-0.6,0-0.9,0c-2.3-0.1-4.6-0.3-7-0.5c-0.5,0-1-0.1-1.5-0.1c-2.3-0.2-4.6-0.4-6.9-0.7c-0.2,0-0.5-0.1-0.7-0.1
						c-2.2-0.2-4.3-0.5-6.5-0.8c-0.4-0.1-0.9-0.1-1.3-0.2c-2.3-0.3-4.7-0.7-7-1.1c-0.5-0.1-0.9-0.2-1.4-0.2
						c-2.4-0.4-4.7-0.9-7.1-1.3c-1.5-0.3-3-0.6-4.5-1c-0.2,0-0.4-0.1-0.7-0.2c-1.3-0.3-2.5-0.6-3.8-0.9c-0.5-0.1-1-0.3-1.5-0.4
						c-1-0.2-1.9-0.5-2.9-0.7c-0.6-0.2-1.2-0.3-1.8-0.5c-0.8-0.2-1.7-0.5-2.5-0.7c-1-0.3-2-0.6-3-0.9c-0.6-0.2-1.2-0.3-1.7-0.5
						c-1.2-0.4-2.4-0.8-3.6-1.2c-0.4-0.1-0.7-0.2-1.1-0.4c-1.5-0.5-3.1-1.1-4.6-1.6c-0.4-0.1-0.8-0.3-1.2-0.5
						c-1.1-0.4-2.2-0.8-3.3-1.3c-0.4-0.1-0.7-0.3-1.1-0.4c-1.5-0.6-3.1-1.2-4.6-1.9c-0.5-0.2-0.9-0.4-1.4-0.6
						c-1.8-0.8-3.5-1.6-5.3-2.4c-0.2-0.1-0.4-0.2-0.6-0.3c-1.5-0.7-3.1-1.5-4.6-2.3c-0.4-0.2-0.9-0.5-1.3-0.7
						c-1.7-0.9-3.4-1.8-5-2.7c-31.9-18.4-47.9-42.6-47.8-66.8l-0.1,46.6c-0.1,24.2,15.9,48.3,47.8,66.8c1.6,0.9,3.3,1.9,5,2.7
						c0.4,0.2,0.9,0.5,1.3,0.7c1.5,0.8,3,1.6,4.6,2.3c0.2,0.1,0.4,0.2,0.6,0.3c1.7,0.8,3.5,1.6,5.3,2.4c0.5,0.2,0.9,0.4,1.4,0.6
						c1.5,0.6,3,1.3,4.6,1.9c0.2,0.1,0.5,0.2,0.7,0.3c0.1,0,0.2,0.1,0.3,0.1c1.1,0.4,2.2,0.9,3.3,1.3c0.4,0.1,0.8,0.3,1.2,0.5
						c1.5,0.6,3.1,1.1,4.6,1.6c0.4,0.1,0.7,0.2,1.1,0.4c1.2,0.4,2.4,0.8,3.6,1.2c0.6,0.2,1.2,0.3,1.7,0.5c1,0.3,2,0.6,3,0.9
						c0.2,0.1,0.4,0.1,0.6,0.2c0.7,0.2,1.3,0.4,2,0.5c0.6,0.2,1.2,0.3,1.8,0.5c1,0.3,1.9,0.5,2.9,0.7c0.5,0.1,1,0.3,1.5,0.4
						c1.3,0.3,2.5,0.6,3.8,0.9c0.2,0.1,0.4,0.1,0.7,0.2c1.4,0.3,2.9,0.6,4.3,0.9c0,0,0.1,0,0.1,0c2.3,0.5,4.7,0.9,7.1,1.3
						c0.5,0.1,0.9,0.2,1.4,0.2c2.3,0.4,4.6,0.8,7,1.1c0.2,0,0.3,0.1,0.5,0.1c0.3,0,0.6,0.1,0.8,0.1c2.2,0.3,4.3,0.6,6.5,0.8
						c0.2,0,0.5,0.1,0.7,0.1c2.3,0.3,4.6,0.5,6.9,0.7c0.3,0,0.5,0.1,0.8,0.1c0.2,0,0.5,0,0.7,0.1c2.3,0.2,4.6,0.3,7,0.5
						c0.3,0,0.6,0,0.9,0c2.2,0.1,4.3,0.2,6.5,0.3c0.3,0,0.5,0,0.8,0c0.1,0,0.3,0,0.4,0c2.4,0.1,4.8,0.1,7.2,0.1c0.5,0,1,0,1.4,0
						c2.4,0,4.9-0.1,7.3-0.1c0.1,0,0.1,0,0.2,0c1.1,0,2.2-0.1,3.4-0.1c0.4,0,0.7,0,1.1,0c1.6-0.1,3.1-0.2,4.7-0.3
						c0.4,0,0.9-0.1,1.3-0.1c1.1-0.1,2.3-0.2,3.4-0.3c0.6-0.1,1.2-0.1,1.8-0.2c0.8-0.1,1.6-0.1,2.3-0.2c0.2,0,0.3,0,0.5-0.1
						c1.8-0.2,3.7-0.4,5.5-0.6L309.3,325z"/>
                        <g>
                            <path fill="#0B92D3" d="M271.2,234.6l38.1,90.4c-51.7,6.3-107.8-2.2-148.1-25.4c-62.3-36-63.7-94-3.9-130.7L271.2,234.6z"/>
                        </g>
                    </g>
                </g>
            </g>
            <g>
                <g>
                    <g enable-background="new    ">
                        <g>
                            <polygon fill="#0BB1D3" points="862.1,195.5 797.6,233 732.6,195.5 797.2,158 						"/>
                        </g>
                        <g>
                            <polygon fill="#0B92D3" points="862.1,195.5 861.8,427.7 797.2,465.2 797.6,233 						"/>
                        </g>
                        <g>
                            <polygon fill="#0B75D3" points="797.6,233 797.2,465.2 732.2,427.7 732.6,195.5 						"/>
                        </g>
                    </g>
                </g>
                <g>
                    <g enable-background="new    ">
                        <g>
                            <polygon fill="#0B92D3" points="650.9,126.6 586.3,164.1 521.3,126.6 585.9,89.1 						"/>
                        </g>
                        <g>
                            <polygon fill="#0B75D3" points="650.9,126.6 650.5,418.5 585.9,456 586.3,164.1 						"/>
                        </g>
                        <g>
                            <polygon fill="#085394" points="586.3,164.1 585.9,456 521,418.5 521.3,126.6 						"/>
                        </g>
                    </g>
                </g>
                <g>
                    <g enable-background="new    ">
                        <g>
                            <polygon fill="#0B75D3" points="752.2,93.6 687.7,131.1 622.7,93.6 687.2,56.1 						"/>
                        </g>
                        <g>
                            <polygon fill="#085394" points="752.2,93.6 751.8,473.4 687.3,510.9 687.7,131.1 						"/>
                        </g>
                        <g>
                            <polygon fill="#063A68" points="687.7,131.1 687.3,510.9 622.3,473.4 622.7,93.6 						"/>
                        </g>
                    </g>
                </g>
            </g>
            <g>
                <g>
                    <path fill="#F1F2F2" d="M764.1,685.2c13.2-7.7,30.1-11.5,47.5-11.5c17.4,0,35.2,3.8,48.5,11.5
					c12.4,7.1,19,16.3,19.9,25.7v-87.8h-0.2c0.1,10-6.5,20-19.6,27.7c-26.3,15.3-69.1,15.3-95.6,0c-13.2-7.6-19.9-17.7-20-27.7v87.6
					C745.4,701.4,751.9,692.3,764.1,685.2z" opacity="0.72"/>
                    <path fill="#085394" d="M860.4,740.8c-26.4,15.3-69.4,15.4-96,0c-12.4-7.1-19-16.3-19.9-25.7v224.1c0.1,10,6.7,20,20,27.7
					c26.5,15.3,69.3,15.3,95.6,0c13.2-7.6,19.7-17.7,19.6-27.7h0.2V715.3C879.1,724.6,872.6,733.7,860.4,740.8z"/>
                    <path fill="#E6E7E8" d="M859.8,595.4c-13.2-7.6-31-11.5-48.3-11.5c-17.3,0-34.2,3.8-47.3,11.5
					c-13.2,7.6-19.7,17.7-19.6,27.7c0,0,0,0,0,0c0.1,10,6.7,20,20,27.7c26.5,15.3,69.3,15.3,95.6,0c13.2-7.6,19.7-17.7,19.6-27.7
					C879.7,613.1,873,603.1,859.8,595.4z" opacity="0.72"/>
                    <path fill="#0B75D3" d="M764.4,740.8c26.6,15.3,69.5,15.3,96,0c12.2-7.1,18.7-16.2,19.6-25.5v-4.4c-0.9-9.3-7.5-18.6-19.9-25.7
					c-13.3-7.7-31.1-11.5-48.5-11.5c-17.4,0-34.3,3.8-47.5,11.5c-12.2,7.1-18.7,16.2-19.6,25.5v4.4
					C745.4,724.5,752.1,733.7,764.4,740.8z"/>
                </g>
                <polygon fill="#FFFFFF" stroke="#000000" stroke-miterlimit="10" points="781.5,623.1 781.5,623.1 781.5,623.1 			"/>
                <polygon fill="#FFFFFF" stroke="#000000" stroke-miterlimit="10" points="625.8,623.1 625.8,623.1 625.8,623.1 			"/>
                <g>
                    <path fill="#F1F2F2" d="M638.6,623.1h-0.2c0.1,10-6.5,20-19.6,27.7c-26.3,15.3-69.1,15.3-95.6,0
					c-13.2-7.6-19.9-17.7-20-27.7v147c1.2-8.9,7.7-17.7,19.5-24.5c13.2-7.7,30.1-11.5,47.5-11.5c17.4,0,35.2,3.8,48.5,11.5
					c13.3,7.7,20,17.7,20,27.8h0V623.1z" opacity="0.72"/>
                    <path fill="#0B75D3" d="M638.6,773.4c0.1,10.1-6.5,20.1-19.7,27.8c-26.4,15.3-69.4,15.4-96,0c-12-6.9-18.6-15.8-19.8-24.8v162.8
					c0.1,10,6.7,20,20,27.7c26.5,15.3,69.3,15.3,95.6,0c13.2-7.6,19.7-17.7,19.6-27.7h0.2L638.6,773.4L638.6,773.4z"/>
                    <polygon fill="#FFFFFF" stroke="#000000" stroke-miterlimit="10" points="503.1,623.1 503.1,623.1 503.1,623.1 				"/>
                    <path fill="#E6E7E8" d="M618.4,595.4c-13.2-7.6-31-11.5-48.3-11.5c-17.3,0-34.2,3.8-47.3,11.5
					c-13.2,7.6-19.7,17.7-19.6,27.7c0,0,0,0,0,0c0.1,10,6.7,20,20,27.7c26.5,15.3,69.3,15.3,95.6,0c13.2-7.6,19.7-17.7,19.6-27.7
					C638.3,613.1,631.6,603.1,618.4,595.4z" opacity="0.72"/>
                    <path fill="#0B92D3" d="M522.9,801.2c26.6,15.3,69.5,15.3,96,0c26.4-15.3,26.3-40.2-0.3-55.6c-13.3-7.7-31.1-11.5-48.5-11.5
					c-17.4,0-34.3,3.8-47.5,11.5c-11.8,6.8-18.3,15.6-19.5,24.5v6.3C504.4,785.5,510.9,794.3,522.9,801.2z"/>
                </g>
                <g>
                    <path fill="#F1F2F2" d="M645.4,893.5c13.2-7.7,30.1-11.5,47.5-11.5c17.4,0,35.2,3.8,48.5,11.5
					c12.4,7.1,19,16.3,19.9,25.7V688.7H761c0.1,10-6.5,20-19.6,27.7c-26.3,15.3-69.1,15.3-95.6,0c-13.2-7.6-19.9-17.7-20-27.7V919
					C626.7,909.7,633.2,900.6,645.4,893.5z" opacity="0.72"/>
                    <path fill="#0B92D3" d="M741.7,949.1c-26.4,15.3-69.4,15.3-96,0c-12.4-7.1-19-16.3-19.9-25.7v81.4c0.1,10,6.7,20,20,27.7
					c26.5,15.3,69.3,15.3,95.6,0c13.2-7.6,19.7-17.7,19.6-27.7h0.2v-81.2C760.4,932.9,753.9,942,741.7,949.1z"/>
                    <path fill="#E6E7E8" d="M741.1,661c-13.2-7.6-31-11.5-48.3-11.5c-17.3,0-34.2,3.8-47.3,11.5
					c-13.2,7.6-19.7,17.7-19.6,27.7c0,0,0,0,0,0c0.1,10,6.7,20,20,27.7c26.5,15.3,69.3,15.3,95.6,0c13.2-7.6,19.7-17.7,19.6-27.7
					C761,678.7,754.3,668.7,741.1,661z" opacity="0.72"/>
                    <path fill="#0BB1D3" d="M741.4,893.5c-13.3-7.7-31.1-11.5-48.5-11.5c-17.4,0-34.3,3.8-47.5,11.5c-12.2,7.1-18.7,16.2-19.6,25.5
					v4.4c0.9,9.3,7.5,18.6,19.9,25.7c26.6,15.3,69.5,15.3,96,0c12.2-7.1,18.7-16.2,19.6-25.5v-4.4
					C760.4,909.8,753.7,900.6,741.4,893.5z"/>
                </g>
            </g>
            <g>
                <g>
                    <polygon fill="#085394" points="1192.8,117.2 1130.5,164 1100.2,239.9 1049.4,223.7 1004.2,220.1 958.9,243 959,397.1 
					1193.2,261.9 				"/>
                    <path fill="#0B75D3" d="M958.9,243c0,0-39.1-22.7-39.5-22.9l0.1,154.1l39.5,23L958.9,243L958.9,243z"/>
                    <path fill="#0B92D3" d="M958.9,243l45.3-22.9l45.2,3.6l50.7,16.2l30.3-75.9l62.3-46.8L1153,94.1l-62.3,46.8l-30.3,75.9
					l-50.7-16.2l-45.2-3.6l-45.1,22.7l-0.2,0.3c0,0,0.2,0.1,0.2,0.1C919.8,220.3,958.9,243,958.9,243L958.9,243z"/>
                </g>
                <g>
                    <polygon fill="#063A68" points="1253.5,156.7 1183.2,184.4 1160.8,241.9 1110.1,297.8 1064.9,304.3 1019.6,373.2 1019.7,436.6 
					1253.8,301.5 				"/>
                    <path fill="#085394" d="M1019.6,373.2c0,0-39.1-22.7-39.5-22.9l0.1,63.4l39.5,23L1019.6,373.2L1019.6,373.2z"/>
                    <path fill="#0B75D3" d="M1019.6,373.2l45.3-68.9l45.2-6.5l50.7-55.9l22.3-57.5l70.3-27.7l-39.8-23.1l-70.3,27.7l-22.3,57.5
					l-50.7,55.9l-45.2,6.5L980,349.9l-0.2,0.3c0,0,0.2,0.1,0.2,0.1C980.5,350.6,1019.6,373.2,1019.6,373.2L1019.6,373.2z"/>
                </g>
                <g>
                    <polygon fill="#0B92D3" points="1313.9,203.5 1280.6,267 1216.9,299.2 1170.5,360.4 1125.3,367 1080,420 1080.1,472.8 
					1314.2,337.7 				"/>
                    <path fill="#0B75D3" d="M1080,420c0,0-39.1-22.7-39.5-22.9l0.1,52.8l39.5,23L1080,420L1080,420z"/>
                    <path fill="#0BB1D3" d="M1080,420l45.3-53.1l45.2-6.5l46.4-61.3l63.7-32.1l33.3-63.5l-39.8-23.1l-33.3,63.5l-63.7,32.1
					l-8.6,11.3l-37.8,50l-45.2,6.5l-5.8,6.8l-39.3,46l-0.2,0.3c0,0,0.2,0.1,0.2,0.1C1040.9,397.4,1080,420,1080,420L1080,420z"/>
                </g>
            </g>
            <g>
                <g>
                    <path fill="#0B75D3" d="M1071.2,935.3c-25.7,14.9-67.4,14.9-93.2,0c-12.9-7.5-19.4-17.2-19.5-27h0v29.3h0
					c0.1,9.8,6.5,19.5,19.5,27c25.8,14.9,67.6,14.9,93.2,0c12.8-7.5,19.2-17.2,19.2-27v-29.3
					C1090.5,918.1,1084.1,927.9,1071.2,935.3z"/>
                    <path fill="#0B92D3" d="M978,935.3c25.8,14.9,67.6,14.9,93.2,0c12.8-7.5,19.2-17.2,19.2-27c-0.1-9.8-6.5-19.6-19.5-27
					c-25.8-14.9-67.6-14.9-93.2,0c-12.8,7.5-19.2,17.2-19.2,27C958.6,918.1,965.1,927.9,978,935.3z"/>
                </g>
                <g>
                    <path fill="#0B75D3" d="M1071.2,898.7c-25.7,14.9-67.4,14.9-93.2,0c-12.9-7.5-19.4-17.2-19.5-27h0V901h0
					c0.1,9.8,6.5,19.5,19.5,27c25.8,14.9,67.6,14.9,93.2,0c12.8-7.5,19.2-17.2,19.2-27v-29.3
					C1090.5,881.5,1084.1,891.2,1071.2,898.7z"/>
                    <path fill="#0B92D3" d="M978,898.7c25.8,14.9,67.6,14.9,93.2,0c12.8-7.5,19.2-17.2,19.2-27c-0.1-9.8-6.5-19.6-19.5-27
					c-25.8-14.9-67.6-14.9-93.2,0c-12.8,7.5-19.2,17.2-19.2,27C958.6,881.4,965.1,891.2,978,898.7z"/>
                </g>
                <g>
                    <path fill="#0B75D3" d="M1071.2,862.1c-25.7,14.9-67.4,14.9-93.2,0c-12.9-7.5-19.4-17.2-19.5-27h0v29.3h0
					c0.1,9.8,6.5,19.5,19.5,27c25.8,14.9,67.6,14.9,93.2,0c12.8-7.5,19.2-17.2,19.2-27v-29.3
					C1090.5,844.8,1084.1,854.6,1071.2,862.1z"/>
                    <path fill="#0B92D3" d="M978,862.1c25.8,14.9,67.6,14.9,93.2,0c12.8-7.5,19.2-17.2,19.2-27c-0.1-9.8-6.5-19.6-19.5-27
					c-25.8-14.9-67.6-14.9-93.2,0c-12.8,7.5-19.2,17.2-19.2,27C958.6,844.8,965.1,854.6,978,862.1z"/>
                </g>
                <g>
                    <path fill="#085394" d="M1295.7,935.3c-25.7,14.9-67.4,14.9-93.2,0c-12.9-7.5-19.4-17.2-19.5-27h0v29.3h0
					c0.1,9.8,6.5,19.5,19.5,27c25.8,14.9,67.6,14.9,93.2,0c12.8-7.5,19.2-17.2,19.2-27v-29.3
					C1314.9,918.1,1308.6,927.9,1295.7,935.3z"/>
                    <path fill="#0B75D3" d="M1202.5,935.3c25.8,14.9,67.6,14.9,93.2,0c12.8-7.5,19.2-17.2,19.2-27c-0.1-9.8-6.5-19.6-19.5-27
					c-25.8-14.9-67.6-14.9-93.2,0c-12.8,7.5-19.2,17.2-19.2,27C1183.1,918.1,1189.6,927.9,1202.5,935.3z"/>
                </g>
                <g>
                    <path fill="#085394" d="M1295.7,898.7c-25.7,14.9-67.4,14.9-93.2,0c-12.9-7.5-19.4-17.2-19.5-27h0V901h0
					c0.1,9.8,6.5,19.5,19.5,27c25.8,14.9,67.6,14.9,93.2,0c12.8-7.5,19.2-17.2,19.2-27v-29.3
					C1314.9,881.5,1308.6,891.2,1295.7,898.7z"/>
                    <path fill="#0B75D3" d="M1202.5,898.7c25.8,14.9,67.6,14.9,93.2,0c12.8-7.5,19.2-17.2,19.2-27c-0.1-9.8-6.5-19.6-19.5-27
					c-25.8-14.9-67.6-14.9-93.2,0c-12.8,7.5-19.2,17.2-19.2,27C1183.1,881.4,1189.6,891.2,1202.5,898.7z"/>
                </g>
                <g>
                    <path fill="#085394" d="M1295.7,862.1c-25.7,14.9-67.4,14.9-93.2,0c-12.9-7.5-19.4-17.2-19.5-27h0v29.3h0
					c0.1,9.8,6.5,19.5,19.5,27c25.8,14.9,67.6,14.9,93.2,0c12.8-7.5,19.2-17.2,19.2-27v-29.3
					C1314.9,844.8,1308.6,854.6,1295.7,862.1z"/>
                    <path fill="#0B75D3" d="M1202.5,862.1c25.8,14.9,67.6,14.9,93.2,0c12.8-7.5,19.2-17.2,19.2-27c-0.1-9.8-6.5-19.6-19.5-27
					c-25.8-14.9-67.6-14.9-93.2,0c-12.8,7.5-19.2,17.2-19.2,27C1183.1,844.8,1189.6,854.6,1202.5,862.1z"/>
                </g>
                <g>
                    <path fill="#085394" d="M1295.7,825.4c-25.7,14.9-67.4,14.9-93.2,0c-12.9-7.5-19.4-17.2-19.5-27h0v29.3h0
					c0.1,9.8,6.5,19.5,19.5,27c25.8,14.9,67.6,14.9,93.2,0c12.8-7.5,19.2-17.2,19.2-27v-29.3C1314.9,808.2,1308.6,818,1295.7,825.4z
					"/>
                    <path fill="#0B75D3" d="M1202.5,825.4c25.8,14.9,67.6,14.9,93.2,0c12.8-7.5,19.2-17.2,19.2-27c-0.1-9.8-6.5-19.6-19.5-27
					c-25.8-14.9-67.6-14.9-93.2,0c-12.8,7.5-19.2,17.2-19.2,27C1183.1,808.2,1189.6,818,1202.5,825.4z"/>
                </g>
                <g>
                    <path fill="#0B92D3" d="M1188.5,985.9c-25.7,14.9-67.4,14.9-93.2,0c-12.9-7.5-19.4-17.2-19.5-27h0v29.3h0
					c0.1,9.8,6.5,19.5,19.5,27c25.8,14.9,67.6,14.9,93.2,0c12.8-7.5,19.2-17.2,19.2-27v-29.3
					C1207.7,968.7,1201.3,978.5,1188.5,985.9z"/>
                    <path fill="#0BB1D3" d="M1095.2,985.9c25.8,14.9,67.6,14.9,93.2,0c12.8-7.5,19.2-17.2,19.2-27c-0.1-9.8-6.5-19.6-19.5-27
					c-25.8-14.9-67.6-14.9-93.2,0c-12.8,7.5-19.2,17.2-19.2,27C1075.8,968.7,1082.3,978.5,1095.2,985.9z"/>
                </g>
                <g>
                    <path fill="#0B92D3" d="M1188.5,949.3c-25.7,14.9-67.4,14.9-93.2,0c-12.9-7.5-19.4-17.2-19.5-27h0v29.3h0
					c0.1,9.8,6.5,19.5,19.5,27c25.8,14.9,67.6,14.9,93.2,0c12.8-7.5,19.2-17.2,19.2-27v-29.3
					C1207.7,932.1,1201.3,941.9,1188.5,949.3z"/>
                    <path fill="#0BB1D3" d="M1095.2,949.3c25.8,14.9,67.6,14.9,93.2,0c12.8-7.5,19.2-17.2,19.2-27c-0.1-9.8-6.5-19.6-19.5-27
					c-25.8-14.9-67.6-14.9-93.2,0c-12.8,7.5-19.2,17.2-19.2,27C1075.8,932.1,1082.3,941.9,1095.2,949.3z"/>
                </g>
                <g>
                    <path fill="#0B92D3" d="M1188.5,912.7c-25.7,14.9-67.4,14.9-93.2,0c-12.9-7.5-19.4-17.2-19.5-27h0V915h0
					c0.1,9.8,6.5,19.5,19.5,27c25.8,14.9,67.6,14.9,93.2,0c12.8-7.5,19.2-17.2,19.2-27v-29.3
					C1207.7,895.5,1201.3,905.2,1188.5,912.7z"/>
                    <path fill="#0BB1D3" d="M1095.2,912.7c25.8,14.9,67.6,14.9,93.2,0c12.8-7.5,19.2-17.2,19.2-27c-0.1-9.8-6.5-19.6-19.5-27
					c-25.8-14.9-67.6-14.9-93.2,0c-12.8,7.5-19.2,17.2-19.2,27C1075.8,895.5,1082.3,905.2,1095.2,912.7z"/>
                </g>
                <g>
                    <path fill="#0B92D3" d="M1188.5,876.1c-25.7,14.9-67.4,14.9-93.2,0c-12.9-7.5-19.4-17.2-19.5-27h0v29.3h0
					c0.1,9.8,6.5,19.5,19.5,27c25.8,14.9,67.6,14.9,93.2,0c12.8-7.5,19.2-17.2,19.2-27v-29.3
					C1207.7,858.8,1201.3,868.6,1188.5,876.1z"/>
                    <path fill="#0BB1D3" d="M1095.2,876.1c25.8,14.9,67.6,14.9,93.2,0c12.8-7.5,19.2-17.2,19.2-27c-0.1-9.8-6.5-19.6-19.5-27
					c-25.8-14.9-67.6-14.9-93.2,0c-12.8,7.5-19.2,17.2-19.2,27C1075.8,858.8,1082.3,868.6,1095.2,876.1z"/>
                </g>
                <g>
                    <path fill="#0B92D3" d="M1188.5,839.4c-25.7,14.9-67.4,14.9-93.2,0c-12.9-7.5-19.4-17.2-19.5-27h0v29.3h0
					c0.1,9.8,6.5,19.5,19.5,27c25.8,14.9,67.6,14.9,93.2,0c12.8-7.5,19.2-17.2,19.2-27v-29.3C1207.7,822.2,1201.3,832,1188.5,839.4z
					"/>
                    <path fill="#0BB1D3" d="M1095.2,839.4c25.8,14.9,67.6,14.9,93.2,0c12.8-7.5,19.2-17.2,19.2-27c-0.1-9.8-6.5-19.6-19.5-27
					c-25.8-14.9-67.6-14.9-93.2,0c-12.8,7.5-19.2,17.2-19.2,27C1075.8,822.2,1082.3,832,1095.2,839.4z"/>
                </g>
                <g>
                    <path fill="#0B92D3" d="M1188.5,802.8c-25.7,14.9-67.4,14.9-93.2,0c-12.9-7.5-19.4-17.2-19.5-27h0v29.3h0
					c0.1,9.8,6.5,19.5,19.5,27c25.8,14.9,67.6,14.9,93.2,0c12.8-7.5,19.2-17.2,19.2-27v-29.3
					C1207.7,785.6,1201.3,795.3,1188.5,802.8z"/>
                    <path fill="#0BB1D3" d="M1095.2,802.8c25.8,14.9,67.6,14.9,93.2,0c12.8-7.5,19.2-17.2,19.2-27c-0.1-9.8-6.5-19.6-19.5-27
					c-25.8-14.9-67.6-14.9-93.2,0c-12.8,7.5-19.2,17.2-19.2,27C1075.8,785.6,1082.3,795.3,1095.2,802.8z"/>
                </g>
                <g>
                    <path fill="#0B92D3" d="M1188.5,766.2c-25.7,14.9-67.4,14.9-93.2,0c-12.9-7.5-19.4-17.2-19.5-27h0v29.3h0
					c0.1,9.8,6.5,19.5,19.5,27c25.8,14.9,67.6,14.9,93.2,0c12.8-7.5,19.2-17.2,19.2-27v-29.3
					C1207.7,748.9,1201.3,758.7,1188.5,766.2z"/>
                    <path fill="#0BB1D3" d="M1095.2,766.2c25.8,14.9,67.6,14.9,93.2,0c12.8-7.5,19.2-17.2,19.2-27c-0.1-9.8-6.5-19.6-19.5-27
					c-25.8-14.9-67.6-14.9-93.2,0c-12.8,7.5-19.2,17.2-19.2,27C1075.8,748.9,1082.3,758.7,1095.2,766.2z"/>
                </g>
            </g>
        </g>
    </g>
</svg>
