<?xml version="1.0" standalone="no"?>
<!DOCTYPE svg PUBLIC "-//W3C//DTD SVG 20010904//EN"
 "http://www.w3.org/TR/2001/REC-SVG-20010904/DTD/svg10.dtd">
<svg xmlns="http://www.w3.org/2000/svg" width="1920.000000pt" height="1371.000000pt" preserveAspectRatio="xMidYMid meet" version="1.0" viewBox="0 0 1920.000000 1371.000000">
    <metadata>
        Created by potrace 1.15, written by Peter Selinger 2001-2017
    </metadata>
    <g transform="translate(0.000000,1371.000000) scale(0.100000,-0.100000)">
        <path d="M8413 10483 c1225 -2 3229 -2 4455 0 1225 1 222 2 -2228 2 -2450 0
-3453 -1 -2227 -2z"/>
        <path fill="#ffffff" d="M15100 10485 c0 -3 18 -14 39 -25 22 -11 42 -24 46 -29 3 -6 -14 1
-37 14 l-43 25 -4463 0 c-4023 0 -4466 -2 -4495 -16 l-32 -15 25 20 c14 11 20
21 15 21 -6 0 -26 -14 -45 -31 -19 -17 -26 -25 -15 -18 18 13 19 13 6 -3 -7
-10 -19 -18 -25 -18 -6 0 -17 -10 -25 -21 -11 -19 -11 -21 4 -16 11 5 14 3 8
-6 -4 -6 -10 -590 -13 -1297 l-5 -1285 0 1287 c0 707 -3 1284 -7 1281 -5 -2
-8 -580 -8 -1284 l0 -1279 -2162 -3 -2163 -2 2175 -5 2175 -5 -2200 -5 -2200
-5 -36 -22 c-20 -13 -38 -20 -41 -17 -9 8 -50 -55 -43 -66 4 -6 1 -9 -6 -8 -7
2 -16 -8 -20 -22 -4 -14 -7 -935 -8 -2047 l-1 -2023 -417 0 c-246 0 -424 -4
-433 -10 -8 -5 -15 -15 -15 -22 -1 -7 -7 -12 -14 -10 -7 1 -10 -2 -7 -7 4 -5
2 -12 -4 -16 -6 -4 -10 -54 -10 -119 l0 -114 44 -21 c25 -11 47 -25 50 -30 4
-5 -14 1 -39 14 -25 14 -45 21 -45 16 0 -7 71 -41 95 -45 22 -4 64 -29 60 -37
-3 -4 0 -11 6 -15 8 -4 9 -3 5 4 -4 7 -4 12 1 12 12 -1 139 -69 130 -70 -4 0
-30 12 -58 26 -28 14 -53 23 -56 21 -14 -14 254 -118 298 -116 8 0 -8 7 -36
15 -68 20 -136 46 -132 50 1 2 37 -8 78 -21 42 -13 116 -32 165 -42 85 -17
248 -18 3524 -18 2806 0 3450 2 3519 13 71 11 184 40 266 67 16 6 17 5 5 -4
-31 -22 11 -11 68 18 57 30 125 76 75 51 -13 -6 -23 -8 -23 -6 0 7 82 51 96
51 6 0 22 8 35 17 25 16 25 18 24 145 l-2 128 7 -100 6 -100 2 102 c2 102 2
103 -29 135 -17 18 -27 27 -23 19 5 -11 3 -13 -10 -8 -10 4 -212 8 -449 9
l-432 3 440 5 440 5 -427 3 -428 2 0 380 0 380 975 0 976 0 -6 -82 c-4 -46
-11 -132 -16 -193 -5 -60 -9 -123 -10 -140 -1 -29 -1 -29 -8 -5 -10 31 -14 -4
-42 -354 -21 -258 -21 -260 -47 -280 -34 -27 -83 -72 -59 -56 9 7 17 10 17 7
0 -6 -88 -67 -96 -67 -3 0 -2 6 2 13 4 7 3 9 -2 4 -5 -5 -9 -13 -9 -19 0 -6
-11 -18 -25 -27 -24 -15 -25 -15 -10 4 14 19 14 19 -3 6 -10 -8 -23 -24 -29
-35 -10 -18 -9 -19 4 -8 13 10 15 9 10 -13 -2 -14 3 -37 12 -52 17 -27 16 -27
-10 2 -14 17 -23 23 -19 15 5 -8 15 -23 23 -32 14 -16 89 -17 1181 -17 1094 0
1168 1 1196 18 23 13 31 26 33 52 2 28 -3 40 -34 69 -20 19 -34 29 -30 23 11
-20 -2 -15 -42 14 -42 30 -64 50 -44 39 18 -10 15 -1 -5 15 -11 10 -14 10 -9
1 12 -20 -3 -14 -51 23 -53 41 -49 47 5 9 l37 -26 -37 32 c-21 17 -38 39 -38
47 0 8 -4 12 -9 9 -5 -4 -11 18 -13 48 -1 30 0 52 5 49 4 -2 8 -21 8 -41 1
-20 3 -30 5 -22 3 8 0 47 -4 85 -7 50 -10 59 -11 31 -2 -73 -9 -32 -16 94 -3
69 -17 266 -31 439 -13 172 -24 316 -23 320 1 3 5 -5 9 -19 8 -24 8 -24 9 -2
l1 22 1045 0 1045 0 0 -574 c0 -649 -3 -621 81 -701 23 -22 38 -34 34 -26 -5
9 -3 12 6 9 8 -3 14 -11 14 -18 0 -7 7 -15 15 -17 13 -4 13 -3 0 7 -12 9 -10
10 10 3 29 -9 2767 -10 2824 -1 24 4 49 18 65 35 l26 27 -25 -20 c-45 -37 -56
-38 -15 -1 22 20 46 36 53 37 6 0 12 5 12 11 0 5 -5 7 -12 3 -7 -4 -8 -3 -4 4
4 7 14 12 22 12 8 0 14 5 14 11 0 5 -4 8 -10 4 -6 -4 -6 4 0 22 10 29 20 3978
10 3963 -3 -4 -12 8 -22 27 -14 30 -14 34 -1 28 13 -4 14 -3 3 10 -7 8 -16 13
-20 10 -4 -2 -16 5 -26 16 -10 11 -34 30 -53 42 l-36 22 -700 5 -700 5 688 3
c746 2 716 4 787 -54 l35 -28 -24 27 c-13 15 -43 36 -66 47 -40 19 -61 20
-718 20 l-677 0 -2 1523 -3 1522 -5 -1525 -5 -1525 -4 1535 c-3 844 -5 1543
-4 1553 0 9 -6 17 -13 17 -7 0 -16 5 -20 12 -5 7 -3 8 5 3 26 -15 -8 33 -36
53 -30 20 -63 34 -63 27z "/>
        <path fill="#888e95" d="M15100 10485 c0 -3 18 -14 39 -25 22 -11 42 -24 46 -29 3 -6 -14 1
-37 14 l-43 25 -4463 0 c-4023 0 -4466 -2 -4495 -16 l-32 -15 25 20 c14 11 20
21 15 21 -6 0 -26 -14 -45 -31 -19 -17 -26 -25 -15 -18 18 13 19 13 6 -3 -7
-10 -19 -18 -25 -18 -6 0 -17 -10 -25 -21 -11 -19 -11 -21 4 -16 11 5 14 3 8
-6 -4 -6 -10 -590 -13 -1297 l-5 -1285 0 1287 c0 707 -3 1284 -7 1281 -5 -2
-8 -580 -8 -1284 l0 -1279 -2162 -3 -2163 -2 2175 -5 2175 -5 -2200 -5 -2200
-5 -36 -22 c-20 -13 -38 -20 -41 -17 -9 8 -50 -55 -43 -66 4 -6 1 -9 -6 -8 -7
2 -16 -8 -20 -22 -4 -14 -7 -935 -8 -2047 l-1 -2023 -417 0 c-246 0 -424 -4
-433 -10 -8 -5 -15 -15 -15 -22 -1 -7 -7 -12 -14 -10 -7 1 -10 -2 -7 -7 4 -5
2 -12 -4 -16 -6 -4 -10 -54 -10 -119 l0 -114 44 -21 c25 -11 47 -25 50 -30 4
-5 -14 1 -39 14 -25 14 -45 21 -45 16 0 -7 71 -41 95 -45 22 -4 64 -29 60 -37
-3 -4 0 -11 6 -15 8 -4 9 -3 5 4 -4 7 -4 12 1 12 12 -1 139 -69 130 -70 -4 0
-30 12 -58 26 -28 14 -53 23 -56 21 -14 -14 254 -118 298 -116 8 0 -8 7 -36
15 -68 20 -136 46 -132 50 1 2 37 -8 78 -21 42 -13 116 -32 165 -42 85 -17
248 -18 3524 -18 2806 0 3450 2 3519 13 71 11 184 40 266 67 16 6 17 5 5 -4
-31 -22 11 -11 68 18 57 30 125 76 75 51 -13 -6 -23 -8 -23 -6 0 7 82 51 96
51 6 0 22 8 35 17 25 16 25 18 24 145 l-2 128 7 -100 6 -100 2 102 c2 102 2
103 -29 135 -17 18 -27 27 -23 19 5 -11 3 -13 -10 -8 -10 4 -212 8 -449 9
l-432 3 440 5 440 5 -427 3 -428 2 0 380 0 380 975 0 976 0 -6 -82 c-4 -46
-11 -132 -16 -193 -5 -60 -9 -123 -10 -140 -1 -29 -1 -29 -8 -5 -10 31 -14 -4
-42 -354 -21 -258 -21 -260 -47 -280 -34 -27 -83 -72 -59 -56 9 7 17 10 17 7
0 -6 -88 -67 -96 -67 -3 0 -2 6 2 13 4 7 3 9 -2 4 -5 -5 -9 -13 -9 -19 0 -6
-11 -18 -25 -27 -24 -15 -25 -15 -10 4 14 19 14 19 -3 6 -10 -8 -23 -24 -29
-35 -10 -18 -9 -19 4 -8 13 10 15 9 10 -13 -2 -14 3 -37 12 -52 17 -27 16 -27
-10 2 -14 17 -23 23 -19 15 5 -8 15 -23 23 -32 14 -16 89 -17 1181 -17 1094 0
1168 1 1196 18 23 13 31 26 33 52 2 28 -3 40 -34 69 -20 19 -34 29 -30 23 11
-20 -2 -15 -42 14 -42 30 -64 50 -44 39 18 -10 15 -1 -5 15 -11 10 -14 10 -9
1 12 -20 -3 -14 -51 23 -53 41 -49 47 5 9 l37 -26 -37 32 c-21 17 -38 39 -38
47 0 8 -4 12 -9 9 -5 -4 -11 18 -13 48 -1 30 0 52 5 49 4 -2 8 -21 8 -41 1
-20 3 -30 5 -22 3 8 0 47 -4 85 -7 50 -10 59 -11 31 -2 -73 -9 -32 -16 94 -3
69 -17 266 -31 439 -13 172 -24 316 -23 320 1 3 5 -5 9 -19 8 -24 8 -24 9 -2
l1 22 1045 0 1045 0 0 -574 c0 -649 -3 -621 81 -701 23 -22 38 -34 34 -26 -5
9 -3 12 6 9 8 -3 14 -11 14 -18 0 -7 7 -15 15 -17 13 -4 13 -3 0 7 -12 9 -10
10 10 3 29 -9 2767 -10 2824 -1 24 4 49 18 65 35 l26 27 -25 -20 c-45 -37 -56
-38 -15 -1 22 20 46 36 53 37 6 0 12 5 12 11 0 5 -5 7 -12 3 -7 -4 -8 -3 -4 4
4 7 14 12 22 12 8 0 14 5 14 11 0 5 -4 8 -10 4 -6 -4 -6 4 0 22 10 29 20 3978
10 3963 -3 -4 -12 8 -22 27 -14 30 -14 34 -1 28 13 -4 14 -3 3 10 -7 8 -16 13
-20 10 -4 -2 -16 5 -26 16 -10 11 -34 30 -53 42 l-36 22 -700 5 -700 5 688 3
c746 2 716 4 787 -54 l35 -28 -24 27 c-13 15 -43 36 -66 47 -40 19 -61 20
-718 20 l-677 0 -2 1523 -3 1522 -5 -1525 -5 -1525 -4 1535 c-3 844 -5 1543
-4 1553 0 9 -6 17 -13 17 -7 0 -16 5 -20 12 -5 7 -3 8 5 3 26 -15 -8 33 -36
53 -30 20 -63 34 -63 27z m32 -80 c62 -45 58 63 58 -1614 l0 -1531 -665 0
c-727 0 -705 2 -769 -58 -16 -15 -37 -45 -47 -67 -18 -38 -19 -87 -19 -1012
l0 -973 -2930 0 -2930 0 0 1216 c0 934 -3 1226 -12 1258 -16 53 -81 118 -134
134 -31 9 -232 12 -818 12 l-776 0 0 1273 c0 1420 -5 1315 69 1364 l34 23
4456 -2 c4438 -3 4456 -3 4483 -23z m-7435 -2696 c29 -14 52 -35 68 -63 l25
-43 0 -2031 0 -2032 -3115 0 -3115 0 2 2038 3 2039 28 36 c15 21 45 46 65 57
36 19 81 19 3016 20 l2980 0 43 -21z m-6180 -3136 c-1 -560 -2 -104 -2 1012 0
1117 1 1575 2 1018 2 -556 2 -1470 0 -2030z m15109 2638 c23 -10 54 -36 70
-57 l29 -37 3 -1966 c1 -1081 0 -1976 -3 -1988 -7 -30 -61 -90 -96 -109 -24
-12 -221 -14 -1399 -14 -1356 0 -1371 0 -1410 20 -22 11 -52 39 -67 62 l-28
42 -3 1945 c-2 1363 0 1957 8 1983 14 50 56 97 105 119 38 18 102 19 1395 19
1302 0 1357 -1 1396 -19z m-2936 -2466 l0 -365 -2930 0 -2930 0 0 365 0 365
2930 0 2930 0 0 -365z m-4377 -412 c-270 -2 -716 -2 -990 0 -274 1 -52 2 492
2 545 0 769 -1 498 -2z m2191 -35 c6 -47 76 -972 76 -1000 0 -17 -50 -18 -910
-18 l-911 0 6 48 c3 26 19 223 35 437 17 215 32 408 35 430 2 22 4 64 4 93 l1
52 829 0 830 0 5 -42z m1643 35 c-296 -2 -778 -2 -1070 0 -293 1 -50 2 538 2
589 0 828 -1 532 -2z m-7310 -837 c-2 -5 -19 -17 -37 -28 -33 -17 -85 -18
-1109 -18 -1070 0 -1075 0 -1118 21 -24 11 -41 24 -39 27 6 11 2306 8 2303 -2z
m-2312 -26 c20 -16 54 -34 74 -40 23 -6 414 -10 1094 -10 1151 0 1087 -3 1163
55 l33 25 1395 0 c1268 0 1396 -1 1411 -16 13 -13 15 -34 13 -108 l-3 -91
-4028 -3 -4028 -2 3 102 c3 99 4 102 28 109 14 4 651 7 1416 8 l1391 1 38 -30z
m8186 -307 c74 -55 118 -94 117 -103 -3 -13 -137 -15 -1153 -15 -1050 0 -1150
1 -1153 16 -2 11 36 45 115 103 l118 86 918 0 919 0 119 -87z m-3936 58 l860
-6 -105 -52 c-120 -59 -226 -88 -379 -103 -74 -8 -1138 -10 -3521 -8 -3173 4
-3420 5 -3490 21 -41 9 -104 26 -140 37 -66 21 -247 107 -256 122 -5 8 5595 0
7031 -11z"/>
        <path fill="#888e95" d="M4653 7578 c-27 -13 -47 -60 -39 -93 6 -24 51 -55 80 -55 30 0 69 45
69 80 0 24 -7 40 -27 57 -29 25 -49 28 -83 11z"/>
        <path fill="#888e95" d="M15149 3311 c-66 -66 -20 -171 74 -171 38 0 49 5 71 31 29 34 35 101
13 130 -37 48 -115 53 -158 10z m111 -6 c32 -17 46 -51 36 -90 -6 -25 -51 -55
-81 -55 -24 0 -75 55 -75 80 0 25 51 80 75 80 9 0 29 -7 45 -15z"/>
        <path fill="#888e95" d="M10590 4909 c-58 -24 -92 -79 -92 -150 1 -92 55 -149 148 -157 68 -6
133 29 159 84 23 48 17 130 -13 171 -39 55 -133 79 -202 52z"/>
        <path fill="#888e95" d="M16792 5128 c-1 -1076 -5 -1965 -8 -1975 -5 -16 -4 -16 5 -1 8 11 10
588 8 1975 l-2 1958 -3 -1957z"/>
        <path fill="#ffffff" d="M16870 5566 c-14 -8 -29 -12 -34 -9 -5 4 -6 1 -2 -6 4 -6 0 -14 -8
-17 -14 -5 -16 -134 -16 -1241 0 -680 4 -1232 9 -1229 4 3 17 -4 27 -17 19
-21 19 -21 -1 -7 -20 15 -20 14 -1 -8 20 -23 32 -30 20 -10 -5 8 -2 9 12 2 29
-14 1430 -12 1427 2 -1 7 8 20 20 30 21 19 21 19 7 -1 -14 -20 -14 -20 7 -2
21 18 40 63 22 51 -5 -3 -9 481 -9 1198 0 780 4 1198 10 1188 5 -8 10 -10 10
-5 0 18 -40 76 -49 71 -4 -3 -17 1 -27 9 -28 21 -1386 21 -1424 1z"/>
        <path fill="#888e95" d="M16870 5566 c-14 -8 -29 -12 -34 -9 -5 4 -6 1 -2 -6 4 -6 0 -14 -8
-17 -14 -5 -16 -134 -16 -1241 0 -680 4 -1232 9 -1229 4 3 17 -4 27 -17 19
-21 19 -21 -1 -7 -20 15 -20 14 -1 -8 20 -23 32 -30 20 -10 -5 8 -2 9 12 2 29
-14 1430 -12 1427 2 -1 7 8 20 20 30 21 19 21 19 7 -1 -14 -20 -14 -20 7 -2
21 18 40 63 22 51 -5 -3 -9 481 -9 1198 0 780 4 1198 10 1188 5 -8 10 -10 10
-5 0 18 -40 76 -49 71 -4 -3 -17 1 -27 9 -28 21 -1386 21 -1424 1zm1414 -57
l26 -31 0 -1174 c0 -1250 1 -1220 -45 -1238 -9 -3 -319 -6 -688 -6 l-671 0
-23 22 -23 21 0 1198 0 1198 26 20 c26 21 34 21 699 21 l673 0 26 -31z"/>
        <path fill="#888e95" d="M17379 5414 c-9 -11 -10 -20 -2 -32 9 -15 34 -17 199 -17 174 0 189
1 192 18 8 42 -11 47 -198 47 -150 0 -180 -2 -191 -16z"/>
        <path fill="#888e95" d="M17540 3293 c-53 -20 -79 -85 -55 -136 44 -93 185 -64 185 38 0 49
-15 74 -55 91 -36 15 -50 16 -75 7z m87 -35 c30 -34 36 -63 19 -96 -40 -78
-156 -48 -156 41 0 66 93 103 137 55z"/>
        <path fill="#888e95" d="M18365 4295 c0 -649 1 -913 2 -587 2 327 2 858 0 1180 -1 323 -2 56
-2 -593z"/>
        <path fill="#888e95" d="M3027 2983 c920 -2 2426 -2 3345 0 920 1 168 2 -1672 2 -1840 0
-2592 -1 -1673 -2z"/>
    </g>
</svg>
