<?xml version="1.0" encoding="iso-8859-1"?>
<!-- Generator: Adobe Illustrator 19.0.0, SVG Export Plug-In . SVG Version: 6.00 Build 0)  -->
<svg version="1.1" id="Capa_1" xmlns="http://www.w3.org/2000/svg" xmlns:xlink="http://www.w3.org/1999/xlink" x="0px" y="0px"
	 viewBox="0 0 512 512" style="enable-background:new 0 0 512 512;" xml:space="preserve">
<g>
	<path style="fill:#5E5F62;" d="M335.448,450.207h27.19c5.154,0,10.051,2.252,13.405,6.165l35.19,41.055
		c2.244,2.617,2.758,6.302,1.318,9.434c-1.441,3.132-4.573,5.139-8.02,5.139H107.469c-3.447,0-6.579-2.007-8.02-5.139
		c-1.441-3.132-0.926-6.816,1.318-9.434l35.19-41.055c3.354-3.913,8.251-6.165,13.405-6.165h27.19"/>
	<path style="fill:#A5A5A4;" d="M335.448,467.862v-79.448H176.552v79.448c0,4.875,3.952,8.828,8.828,8.828h141.241
		C331.496,476.69,335.448,472.737,335.448,467.862z"/>
	<path style="fill:#90BAE1;" d="M512,17.655v361.931H0V17.655C0.028,7.916,7.916,0.028,17.655,0h476.69
		C504.084,0.028,511.972,7.916,512,17.655z"/>
	<path style="fill:#5E5F62;" d="M512,361.931v35.31c-0.029,9.739-7.916,17.627-17.655,17.655H17.655
		C7.916,414.868,0.029,406.98,0,397.241v-35.31H512z"/>
	<g>
		<path style="fill:#B0D3F0;" d="M423.724,26.483h-79.448c-4.875,0-8.828,3.952-8.828,8.828s3.952,8.828,8.828,8.828h79.448
			c4.875,0,8.828-3.952,8.828-8.828S428.599,26.483,423.724,26.483z"/>
		<path style="fill:#B0D3F0;" d="M476.69,26.483h-17.655c-4.875,0-8.828,3.952-8.828,8.828s3.952,8.828,8.828,8.828h17.655
			c4.875,0,8.828-3.952,8.828-8.828S481.565,26.483,476.69,26.483z"/>
	</g>
	<path style="fill:#E57E25;" d="M361.931,123.586V256c-0.015,4.869-3.958,8.813-8.828,8.828H158.897
		c-4.869-0.015-8.813-3.958-8.828-8.828V114.759h203.034C357.973,114.773,361.916,118.717,361.931,123.586z"/>
	<path style="fill:#D25627;" d="M264.828,114.759H150.069V88.276c0.015-4.869,3.958-8.813,8.828-8.828h75.034
		c2.774,0.019,5.383,1.323,7.062,3.531L264.828,114.759z"/>
	<circle style="fill:#46B29D;" cx="344.276" cy="247.172" r="70.621"/>
	<path style="fill:#FFFFFF;" d="M335.448,282.483c-2.341-0.001-4.586-0.931-6.241-2.586l-17.655-17.655
		c-3.394-3.456-3.369-9.001,0.056-12.426c3.425-3.425,8.97-3.45,12.426-0.056l10.043,10.043l29.337-44.009
		c2.725-4.002,8.165-5.063,12.194-2.377c4.029,2.686,5.142,8.115,2.495,12.17l-35.31,52.965c-1.467,2.2-3.843,3.627-6.474,3.888
		C336.026,282.466,335.733,282.483,335.448,282.483z"/>
</g>
<g>
</g>
<g>
</g>
<g>
</g>
<g>
</g>
<g>
</g>
<g>
</g>
<g>
</g>
<g>
</g>
<g>
</g>
<g>
</g>
<g>
</g>
<g>
</g>
<g>
</g>
<g>
</g>
<g>
</g>
</svg>
