<svg height="496pt" viewBox="0 0 496 496" width="496pt" xmlns="http://www.w3.org/2000/svg" xmlns:xlink="http://www.w3.org/1999/xlink"><linearGradient id="a" gradientUnits="userSpaceOnUse" x1="248" x2="248" y1="496" y2="0"><stop offset="0" stop-color="#9f2fff"/><stop offset="1" stop-color="#0bb1d3"/></linearGradient><path d="m351.433594 0h-6.859375c-36.015625 0-70.015625 13.070312-96.574219 36.976562-26.558594-23.90625-60.558594-36.976562-96.566406-36.976562h-6.859375c-79.726563 0-144.574219 64.847656-144.574219 144.566406v12.050782c0 44.664062 21.167969 87.550781 56.609375 114.734374l151.398437 116.0625c-20.230468 5.578126-41.871093 10-64.917968 12.640626l1.832031 15.890624c128.832031-14.753906 215.039063-80.601562 247.078125-109.234374v21.289062h16v-48h-48v16h19.777344c-23.882813 20.832031-76.792969 61.039062-152.847656 85.753906l-160.585938-123.105468c-5.824219-4.464844-11.046875-9.535157-15.96875-14.878907l19.898438-48.640625 38.175781 15.269532 9.894531-24.734376 14.34375 14.335938-13.375 13.375c-4.648438 4.648438-7.3125 11.082031-7.3125 17.65625 0 13.464844 10.734375 24.410156 24.089844 24.878906.460937 13.050782 10.949218 23.539063 24 24 .460937 13.050782 10.949218 23.539063 24 24 .476562 13.355469 11.414062 24.089844 24.878906 24.089844 6.574219 0 13.007812-2.664062 17.65625-7.3125l13.375-13.375 5.375 5.375c4.648438 4.648438 11.082031 7.3125 17.65625 7.3125 13.464844 0 24.410156-10.734375 24.878906-24.089844 13.050782-.460937 23.539063-10.949218 24-24 13.050782-.460937 23.539063-10.949218 24-24 13.355469-.476562 24.089844-11.414062 24.089844-24.878906 0-1.136719-.183594-2.253906-.335938-3.382812l11.480469-11.480469 9.28125 18.558593 50.246094-25.125 19.488281 37.207032c-6.046875 7.296875-12.886718 13.992187-20.503906 19.832031l-9.136719 7 9.738281 12.703125 9.132813-7c35.441406-27.175781 56.609375-70.0625 56.609375-114.726562v-12.050782c0-79.71875-64.847656-144.566406-144.566406-144.566406zm-200 16c34.34375 0 66.628906 13.375 90.910156 37.65625l5.65625 5.65625 5.65625-5.65625c24.28125-24.28125 56.566406-37.65625 90.910156-37.65625h6.859375c29.964844 0 57.503907 10.390625 79.390625 27.648438l-103.558594 51.777343-70.953124-21.28125c-5.351563-1.601562-10.855469-2.160156-16.3125-1.960937v-.183594h-86.496094l-83.046875-32.296875c20.964843-14.871094 46.511719-23.703125 74.117187-23.703125zm-135.433594 140.617188v-12.050782c0-36.695312 15.535156-69.765625 40.28125-93.214844l47.894531 18.625-65.246093 159.503907c-14.609376-21.257813-22.929688-46.671875-22.929688-72.863281zm60.335938 23.703124 42.761718-104.535156 22.46875 8.742188-42.023437 105.074218zm51.664062 50.710938c0-2.359375.953125-4.671875 2.625-6.34375l14.0625-14.0625c1.671875-1.671875 3.984375-2.625 6.34375-2.625 4.945312 0 8.96875 4.023438 8.96875 8.96875 0 2.359375-.953125 4.671875-2.625 6.34375l-14.0625 14.0625c-1.671875 1.671875-3.984375 2.625-6.34375 2.625-4.945312 0-8.96875-4.023438-8.96875-8.96875zm24 24c0-2.359375.953125-4.671875 2.625-6.34375l14.0625-14.0625c1.671875-1.671875 3.984375-2.625 6.34375-2.625 4.945312 0 8.96875 4.023438 8.96875 8.96875 0 2.359375-.953125 4.671875-2.625 6.34375l-14.0625 14.0625c-1.671875 1.671875-3.984375 2.625-6.34375 2.625-4.945312 0-8.96875-4.023438-8.96875-8.96875zm24 24c0-2.359375.953125-4.671875 2.625-6.34375l14.0625-14.0625c1.671875-1.671875 3.984375-2.625 6.34375-2.625 4.945312 0 8.96875 4.023438 8.96875 8.96875 0 2.359375-.953125 4.671875-2.625 6.34375l-14.0625 14.0625c-1.671875 1.671875-3.984375 2.625-6.34375 2.625-4.945312 0-8.96875-4.023438-8.96875-8.96875zm53.375 16.28125-14.0625 14.0625c-1.671875 1.671875-3.984375 2.625-6.34375 2.625-4.945312 0-8.96875-4.023438-8.96875-8.96875 0-2.359375.953125-4.671875 2.625-6.34375l14.0625-14.0625c1.671875-1.671875 3.984375-2.625 6.34375-2.625 4.945312 0 8.96875 4.023438 8.96875 8.96875 0 2.359375-.953125 4.671875-2.625 6.34375zm105.65625-63.3125c-2.359375 0-4.671875-.960938-6.34375-2.625l-67.03125-67.03125-11.3125 11.3125 67.03125 67.03125c1.671875 1.671875 2.625 3.984375 2.625 6.34375 0 4.945312-4.023438 8.96875-8.96875 8.96875-2.359375 0-4.671875-.953125-6.34375-2.625l-67.03125-67.03125-11.3125 11.3125 67.03125 67.03125c1.671875 1.671875 2.625 3.984375 2.625 6.34375 0 4.945312-4.023438 8.96875-8.96875 8.96875-2.359375 0-4.671875-.953125-6.34375-2.625l-67.03125-67.03125-11.3125 11.3125 67.03125 67.03125c1.671875 1.671875 2.625 3.984375 2.625 6.34375 0 4.945312-4.023438 8.96875-8.96875 8.96875-2.359375 0-4.671875-.953125-6.34375-2.625l-9.023438-9.023438c.160157-1.121093.335938-2.238281.335938-3.382812 0-13.464844-10.734375-24.410156-24.089844-24.878906-.460937-13.050782-10.949218-23.539063-24-24-.460937-13.050782-10.949218-23.539063-24-24-.476562-13.355469-11.414062-24.089844-24.878906-24.089844-1.136719 0-2.253906.183594-3.382812.335938l-22.839844-22.839844 32.605468-81.496094h47.273438l-29.375 29.375c-4.648438 4.648438-7.3125 11.082031-7.3125 17.65625 0 13.769531 11.199219 24.96875 24.96875 24.96875 6.574219 0 13.007812-2.664062 17.65625-7.3125l21.191406-21.191406c4.335938-4.328125 11.96875-4.496094 16.488282-.359375l18.703124 17.144531c5.945313 5.445312 12.542969 9.984375 19.566407 13.613281l54.800781 54.800781c1.671875 1.664063 2.625 3.976563 2.625 6.335938 0 4.945312-4.023438 8.96875-8.96875 8.96875zm16.96875-27.3125-33.183594-33.183594c3.039063.3125 6.09375.496094 9.183594.496094v-16c-18.625 0-36.449219-6.929688-50.175781-19.519531l-18.703125-17.144531c-10.5625-9.6875-28.464844-9.296876-38.609375.839843l-21.191407 21.191407c-1.679687 1.679687-3.992187 2.632812-6.351562 2.632812-4.945312 0-8.96875-4.023438-8.96875-8.96875 0-2.359375.953125-4.671875 2.625-6.34375l30.496094-30.496094c8.957031-8.96875 22.414062-12.367187 34.589844-8.71875l70.671874 21.199219 41.210938 82.417969zm35.574219.578125-48.839844-97.691406 33.824219-16.910157 50.6875 96.769532zm92.425781-48.648437c0 24.046874-6.992188 47.460937-19.433594 67.597656l-73.703125-140.703125 56.738281-28.367188c22.488282 23.160157 36.398438 54.679688 36.398438 89.421875zm-320 283.382812v40h-16v16h208v-16h-16v-96h-48v96h-16v-64h-48v64h-16v-40zm16 16h16v24h-16zm128-56h16v80h-16zm-64 32h16v48h-16zm-112-16h-16v-16h16zm-112-96h-16v-16h16v-16h16v16h16v16h-16v16h-16zm464 8h16v16h-16v16h-16v-16h-16v-16h16v-16h16zm-72 96v16h16v16h-16v16h-16v-16h-16v-16h16v-16zm-352 24v16h16v16h-16v16h-16v-16h-16v-16h16v-16zm0 0" fill="url(#a)"/></svg>