<svg height="496pt" viewBox="0 0 496 496" width="496pt" xmlns="http://www.w3.org/2000/svg" xmlns:xlink="http://www.w3.org/1999/xlink"><linearGradient id="a" gradientUnits="userSpaceOnUse" x1="248" x2="248" y1="496" y2="0"><stop offset="0" stop-color="#9f2fff"/><stop offset="1" stop-color="#0bb1d3"/></linearGradient><path d="m0 248c0 17.648438 14.351562 32 32 32h172.921875c6.957031 0 13.652344 3.152344 18.367187 8.640625 5.71875 6.65625 12.6875 11.953125 20.398438 15.863281-2.695312 4.320313-6.472656 7.945313-11.078125 10.25-9.617187 4.796875-17.105469 12.941406-21.105469 22.925782l-6.449218 16.144531c-.167969.421875-.414063.808593-.605469 1.222656-19.824219-15.496094-35.488281-36.421875-44.34375-61.152344l-15.066407 5.386719c19.792969 55.261719 69.792969 93.789062 127.273438 99.796875l-.039062.257813 3.542968.160156c1.183594.097656 2.390625.097656 3.582032.160156l3.664062.167969c1.640625.085937 3.273438.175781 4.9375.175781 83.816406 0 152-68.183594 152-152s-68.183594-152-152-152c-63.871094 0-121.3125 40.425781-142.910156 100.59375l15.0625 5.40625c6.855468-19.105469 17.816406-35.921875 31.574218-49.753906 24.042969 1.1875 44.570313 16.539062 52.601563 38.921875-7.96875 3.9375-15.160156 9.351562-21.03125 16.191406-4.730469 5.488281-11.425781 8.640625-18.375 8.640625h-172.921875c-17.648438 0-32 14.351562-32 32zm368 109.734375c-21.550781 15.753906-47.832031 25.3125-76.328125 26.074219 5.289063-19.359375 16.289063-36.695313 31.65625-49.503906 4.878906-4.066407 11.070313-6.304688 17.433594-6.304688 15.015625 0 27.238281 12.214844 27.238281 27.238281zm56-109.734375c0 10.105469-1.191406 19.929688-3.296875 29.40625l-24.136719-12.070312c-17.613281-8.816407-28.566406-26.519532-28.566406-46.214844 0-24.5625-13.335938-47.234375-34.816406-59.167969l-10.609375-5.890625c-15.359375-8.535156-25.140625-24.277344-26.34375-41.648438 71.160156 4.296876 127.769531 63.378907 127.769531 135.585938zm-216.238281-109.558594c20.796875-15.257812 45.847656-24.59375 72.46875-26.128906 1.183593 23.222656 14.121093 44.375 34.585937 55.742188l10.609375 5.890624c16.390625 9.101563 26.574219 26.414063 26.574219 45.175782 0 25.800781 14.335938 48.992187 37.414062 60.527344l26.761719 13.382812c-7.03125 19.960938-18.511719 37.808594-33.367187 52.289062-4.503906-19.074218-21.625-33.320312-42.046875-33.320312-10.097657 0-19.929688 3.558594-27.683594 10.023438-18.871094 15.730468-32.039063 37.3125-37.734375 61.320312-20.710938-1.953125-40.375-8.601562-57.664062-19.097656.792968-1.46875 1.609374-2.933594 2.230468-4.484375l6.449219-16.136719c2.535156-6.34375 7.296875-11.511719 13.402344-14.5625 8.253906-4.125 14.917969-10.855469 19.167969-18.957031 5.167968 1.214843 10.503906 1.894531 15.941406 1.894531 25.5625 0 49.226562-14.296875 60.289062-36.425781l5.785156-11.574219h-64.664062l-10.664062-16 10.664062-16h64.664062l-5.792968-11.574219c-11.0625-22.128906-34.726563-36.425781-60.28125-36.425781-5.230469 0-10.375.609375-15.351563 1.734375-8.441406-23.582031-27.855469-41.125-51.757812-47.292969zm-175.761719 93.558594h172.921875c11.621094 0 22.742187-5.175781 30.503906-14.214844 9.710938-11.304687 24.085938-17.785156 39.445313-17.785156 14.5625 0 28.296875 6.007812 37.816406 16h-44.96875l-21.335938 32 21.335938 32h44.96875c-9.519531 9.992188-23.246094 16-37.816406 16-15.359375 0-29.734375-6.488281-39.445313-17.785156-7.761719-9.039063-18.882812-14.214844-30.503906-14.214844h-172.921875c-8.824219 0-16-7.175781-16-16s7.175781-16 16-16zm436.183594-21.199219 27.816406 6.953125v60.492188l-27.816406 6.953125c-4.6875 22.898437-13.582032 44.351562-26.480469 63.890625l14.761719 24.597656-42.777344 42.769531-24.589844-14.753906c-19.546875 12.890625-40.992187 21.785156-63.898437 26.472656l-6.953125 27.824219h-60.492188l-6.953125-27.824219c-22.90625-4.6875-44.351562-13.574219-63.898437-26.472656l-24.589844 14.753906-42.777344-42.769531 14.761719-24.597656c-10.433594-15.824219-18.304687-33.050782-23.417969-51.296875l15.410156-4.3125c5.09375 18.167969 13.183594 35.246093 24.046876 50.75l2.984374 4.257812-13.632812 22.71875 25.105469 25.113281 22.71875-13.632812 4.257812 2.976562c20.183594 14.144532 42.710938 23.480469 66.941407 27.734376l5.113281.90625 6.421875 25.695312h35.507812l6.421875-25.695312 5.113281-.90625c24.230469-4.253907 46.757813-13.589844 66.941407-27.734376l4.257812-2.976562 22.71875 13.632812 25.105469-25.113281-13.632812-22.71875 2.976562-4.25c14.144531-20.191406 23.472656-42.71875 27.734375-66.941406l.898437-5.121094 25.710938-6.421875v-35.507812l-25.695312-6.421875-.898438-5.113281c-4.261719-24.230469-13.597656-46.757813-27.734375-66.941407l-2.984375-4.257812 13.632812-22.71875-25.113281-25.105469-22.710937 13.632812-4.257813-2.984374c-20.183593-14.136719-42.710937-23.472657-66.941406-27.734376l-5.113281-.898437-6.429688-25.703125h-35.507812l-6.421875 25.695312-5.113281.898438c-24.230469 4.261719-46.757813 13.597656-66.941407 27.734375l-4.257812 2.984375-22.71875-13.632812-25.105469 25.113281 13.632812 22.710937-2.984374 4.257813c-10.824219 15.453125-18.894532 32.46875-24 50.558593l-15.398438-4.335937c5.109375-18.160156 12.957031-35.320313 23.351562-51.089844l-14.761718-24.589843 42.777344-42.777344 24.589843 14.753906c19.546875-12.890625 40.992188-21.777344 63.898438-26.472656l6.960937-27.808594h60.492188l6.953125 27.816406c22.90625 4.695313 44.351562 13.582032 63.898437 26.472656l24.589844-14.753906 42.777344 42.777344-14.753906 24.589844c12.890624 19.546875 21.777343 40.992187 26.472656 63.898437zm-436.183594 285.199219v-16h16v16zm16-32h-16v-16h16zm-16 0v16h-16v-16zm16 16v-16h16v16zm16-136v-16h16v16zm16-32h-16v-16h16zm-16 0v16h-16v-16zm16 16v-16h16v16zm-48-144h16v16h-16zm16-32v16h-16v-16zm-16 16v16h-16v-16zm16 16v-16h16v16zm96-152h16v16h-16zm16-32v16h-16v-16zm-16 16v16h-16v-16zm16 16v-16h16v16zm0 0" fill="url(#a)"/></svg>