<?xml version="1.0" encoding="iso-8859-1"?>
<!-- Generator: Adobe Illustrator 19.0.0, SVG Export Plug-In . SVG Version: 6.00 Build 0)  -->
<svg version="1.1" id="Layer_1" xmlns="http://www.w3.org/2000/svg" xmlns:xlink="http://www.w3.org/1999/xlink" x="0px" y="0px"
	 viewBox="0 0 512.004 512.004" style="enable-background:new 0 0 512.004 512.004;" xml:space="preserve">
<g>
	<path style="fill:#38454F;" d="M459.038,57.381H52.969c-9.746,0-17.655,7.901-17.655,17.655v282.483h150.069v17.655h71.327
		c-0.424-2.887-0.706-5.826-0.706-8.828v-70.621c0-4.873,3.955-8.828,8.828-8.828h141.241c4.873,0,8.828,3.955,8.828,8.828v17.655
		h35.31v26.483c0,6.471-1.863,12.447-4.89,17.655h31.373V75.036C476.693,65.282,468.784,57.381,459.038,57.381"/>
	<path style="fill:#546A79;" d="M414.9,313.381h26.483V92.691H70.624v229.517h185.379v-26.483c0-4.873,3.955-8.828,8.828-8.828
		h141.241c4.873,0,8.828,3.955,8.828,8.828V313.381z"/>
	<path style="fill:#B0B6BB;" d="M445.32,357.519c-6.118,10.514-17.373,17.655-30.42,17.655h-0.689
		c-1.404,9.746-5.041,18.759-10.434,26.483h90.571c9.746,0,17.655-7.901,17.655-17.655v-26.483H445.32z"/>
	<path style="fill:#ECBA16;" d="M406.073,216.278c-4.882,0-8.828-3.946-8.828-8.828v-52.966h-52.966
		c-4.882,0-8.828-3.946-8.828-8.828s3.946-8.828,8.828-8.828H414.9v70.621C414.9,212.332,410.954,216.278,406.073,216.278"/>
	<g>
		<path style="fill:#EA6148;" d="M105.935,286.898c-4.882,0-8.828-3.946-8.828-8.828V136.829c0-4.882,3.946-8.828,8.828-8.828
			s8.828,3.946,8.828,8.828v141.241C114.762,282.952,110.816,286.898,105.935,286.898"/>
		<path style="fill:#EA6148;" d="M176.555,163.312h-35.31c-4.882,0-8.828-3.946-8.828-8.828c0-4.882,3.946-8.828,8.828-8.828h35.31
			c4.882,0,8.828,3.946,8.828,8.828C185.383,159.366,181.437,163.312,176.555,163.312"/>
		<path style="fill:#EA6148;" d="M158.9,198.622h-17.655c-4.882,0-8.828-3.946-8.828-8.828c0-4.882,3.946-8.828,8.828-8.828H158.9
			c4.882,0,8.828,3.946,8.828,8.828C167.728,194.677,163.782,198.622,158.9,198.622"/>
		<path style="fill:#EA6148;" d="M176.555,233.933h-35.31c-4.882,0-8.828-3.946-8.828-8.828s3.946-8.828,8.828-8.828h35.31
			c4.882,0,8.828,3.946,8.828,8.828S181.437,233.933,176.555,233.933"/>
		<path style="fill:#EA6148;" d="M158.9,269.243h-17.655c-4.882,0-8.828-3.946-8.828-8.828s3.946-8.828,8.828-8.828H158.9
			c4.882,0,8.828,3.946,8.828,8.828S163.782,269.243,158.9,269.243"/>
	</g>
	<path style="fill:#ECBA16;" d="M203.038,269.243c-2.26,0-4.52-0.865-6.241-2.586c-3.452-3.452-3.452-9.031,0-12.482l70.621-70.621
		c3.452-3.452,9.031-3.452,12.482,0l37.897,37.897l82.035-82.035c3.452-3.452,9.031-3.452,12.482,0s3.452,9.031,0,12.482
		l-88.276,88.276c-3.452,3.452-9.031,3.452-12.482,0l-37.897-37.897l-64.38,64.38C207.558,268.378,205.298,269.243,203.038,269.243"
		/>
	<path style="fill:#E6E7E8;" d="M353.107,428.14h-35.31c-34.127,0-61.793-27.666-61.793-61.793v-70.621
		c0-4.873,3.955-8.828,8.828-8.828h141.241c4.873,0,8.828,3.955,8.828,8.828v70.621C414.9,400.474,387.234,428.14,353.107,428.14"/>
	<g>
		<path style="fill:#C0C2C4;" d="M317.797,401.657c-19.474,0-35.31-15.837-35.31-35.31c0-4.882,3.946-8.828,8.828-8.828
			c4.882,0,8.828,3.946,8.828,8.828c0,9.737,7.918,17.655,17.655,17.655c4.882,0,8.828,3.946,8.828,8.828
			C326.624,397.711,322.678,401.657,317.797,401.657"/>
		<path style="fill:#C0C2C4;" d="M391.9,454.622H279.004c-19.88,0-38.453-9.94-49.479-26.483h211.862
			C430.353,444.683,411.788,454.622,391.9,454.622"/>
		<path style="fill:#C0C2C4;" d="M414.9,313.381v43.449v9.516c0,3.001-0.283,5.941-0.706,8.828h0.706
			c19.518,0,35.31-15.793,35.31-35.31v-26.483H414.9z"/>
	</g>
	<path style="fill:#B0B6BB;" d="M256.706,375.174h-71.327v-17.655H0v26.483c0,9.754,7.91,17.655,17.655,17.655h249.468
		C261.738,393.933,258.101,384.92,256.706,375.174"/>
</g>
<g>
</g>
<g>
</g>
<g>
</g>
<g>
</g>
<g>
</g>
<g>
</g>
<g>
</g>
<g>
</g>
<g>
</g>
<g>
</g>
<g>
</g>
<g>
</g>
<g>
</g>
<g>
</g>
<g>
</g>
</svg>
