<svg version="1.1" xmlns="http://www.w3.org/2000/svg" xmlns:xlink="http://www.w3.org/1999/xlink" preserveAspectRatio="xMidYMid meet" viewBox="633 276 136 154"><g data-item-type="text" data-item="Business" id="logo__item--business" class="logo__item">
				<defs>
                    <style type="text/css">
                        @import url('https://fonts.googleapis.com/css?family=Orbitron');
                    </style>
                </defs>
                <g class="logo__item__inner" transform="translate(634.6328125 427.65604933697006) scale(1 1) rotate(0 0 0)">
                    <text data-part-id="logo__item--business" dy="0" dominant-baseline="auto" alignment-baseline="auto" font-family="Orbitron" font-size="32px" fill="#FFFFFF" letter-spacing="0" font-weight="normal" font-style="normal" data-font-family="Orbitron" data-font-weight="normal" data-font-style="normal" data-ttf-url="/builder_assets/fontsttf/font-montserrat-bold-normal.ttf" data-font-filename="orbitron-normal-normal">AI4SEO</text>
                </g>
            </g><g data-item-type="image" data-item="Image" data-logo-item="" id="logo__item--logo_0" class="logo__item">
    <g class="logo__item__inner" transform="translate(619.9690185904115 274.5) scale(0.12825994349224698 0.12825994349224698) rotate(0 0 0)">
        
<g>
	<path fill="#4CA950" d="M483.5,800.8c-2-0.1-3.9-0.2-5.9-0.4C479.5,800.6,481.5,800.7,483.5,800.8z" data-part-id="logo__item--logo_0__0"></path>
	<path fill="#4CA950" d="M498,801.6c-2-0.1-4,0-6-0.1C494,801.6,496,801.5,498,801.6z" data-part-id="logo__item--logo_0__1"></path>
	<path fill="#4CA950" d="M422.2,789.8c3.9,1.1,7.8,2.2,11.8,3.2l0,0C430,791.9,426.1,790.9,422.2,789.8z" data-part-id="logo__item--logo_0__2"></path>
	<path fill="#0b75d3" d="M507,40.5v-0.3c0,0,0,0,0,0v228.2c0-0.2,3.2-0.3,4.9-0.3c24,0,43.4,19.5,43.4,43.5   c0,18.2-9.8,33.7-25.6,40.2c0,0.1,1.3,0.2,1.3,0.3v160.8c17-20,56-63.1,65-68.9c0-5.8,0-32.5,0-55.6c-17-5.3-30.5-22-30.5-41.7   c0-24,19.8-43.5,43.8-43.5c24,0,44.6,19.5,44.6,43.5c0,18.1-10.8,33.7-25.8,40.2V450c0,3.8-1.1,7.5-3.8,10.3L531,554.6v246.3   c8-0.9,24-2.4,32-4.7V620.5c0-4.2,2.6-8.2,5.7-10.9l107.5-93.7c-1.9-4.9-2.8-10.1-2.8-15.7c0-24,19.6-43.5,43.6-43.5   c24,0,43.6,19.5,43.6,43.5c0,24-19.5,43.5-43.5,43.5c-7.9,0-14.1-2.1-20.5-5.8C671.4,560,604,620.6,596,627.1c0,6.8,0,88.1,0,161.9   c111-35.4,202.4-140.3,210.8-266.6C842.7,254.4,524,49.2,507,40.5z" data-part-id="logo__item--logo_0__3"></path>
	<path fill="#4CA950" d="M469.2,799.4c-1.9-0.2-3.9-0.4-5.8-0.7C465.3,799,467.3,799.2,469.2,799.4z" data-part-id="logo__item--logo_0__4"></path>
	<path fill="#4CA950" d="M208.4,529.6c-42.8-271.2,283.3-480,297.7-489l0-0.3l-0.1,0.3C491.6,49.6,165.6,258.4,208.4,529.6   c11.1,123,96.7,224.6,211.3,259.3C305,754.2,219.5,652.7,208.4,529.6z" data-part-id="logo__item--logo_0__5"></path>
	<linearGradient id="SVGID_1_" gradientUnits="userSpaceOnUse" x1="89.2425" y1="45.1957" x2="1329.5197" y2="30.6895">
		<stop offset="0" style="stop-color:#4CA950"></stop>
		<stop offset="1" style="stop-color:#FFFFFE"></stop>
	</linearGradient>
	<path fill="url(#SVGID_1_)" d="M506.5,40.2c0,0-0.1,0.1-0.2,0.1C506.4,40.3,506.5,40.3,506.5,40.2L506.5,40.2z" data-part-id="logo__item--logo_0__6"></path>
	<linearGradient id="SVGID_2_" gradientUnits="userSpaceOnUse" x1="98.1052" y1="802.9548" x2="1338.3823" y2="788.4485">
		<stop offset="0" style="stop-color:#4CA950"></stop>
		<stop offset="1" style="stop-color:#FFFFFE"></stop>
	</linearGradient>
	<path fill="url(#SVGID_2_)" d="M463,798.6c0.1,0,0.3,0,0.4,0.1C463.3,798.7,463.1,798.7,463,798.6L463,798.6z" data-part-id="logo__item--logo_0__7"></path>
	<linearGradient id="SVGID_3_" gradientUnits="userSpaceOnUse" x1="98.1444" y1="806.3" x2="1338.4215" y2="791.7937">
		<stop offset="0" style="stop-color:#4CA950"></stop>
		<stop offset="1" style="stop-color:#FFFFFE"></stop>
	</linearGradient>
	<path fill="url(#SVGID_3_)" d="M498,801.6c0.4,0,0.8,0,1.2,0v0C498.8,801.6,498.4,801.6,498,801.6z" data-part-id="logo__item--logo_0__8"></path>
	<linearGradient id="SVGID_4_" gradientUnits="userSpaceOnUse" x1="97.9903" y1="793.13" x2="1338.2675" y2="778.6237">
		<stop offset="0" style="stop-color:#4CA950"></stop>
		<stop offset="1" style="stop-color:#FFFFFE"></stop>
	</linearGradient>
	<path fill="url(#SVGID_4_)" d="M422.2,789.8c-0.9-0.2-1.7-0.5-2.5-0.8C420.5,789.2,421.3,789.5,422.2,789.8z" data-part-id="logo__item--logo_0__9"></path>
	<linearGradient id="SVGID_5_" gradientUnits="userSpaceOnUse" x1="98.1374" y1="805.7066" x2="1338.4146" y2="791.2003">
		<stop offset="0" style="stop-color:#4CA950"></stop>
		<stop offset="1" style="stop-color:#FFFFFE"></stop>
	</linearGradient>
	<path fill="url(#SVGID_5_)" d="M492,801.5c-2.9-0.1-5.7-0.4-8.5-0.6C486.3,801.1,489.1,801.3,492,801.5z" data-part-id="logo__item--logo_0__10"></path>
	<linearGradient id="SVGID_6_" gradientUnits="userSpaceOnUse" x1="98.1211" y1="804.3078" x2="1338.3982" y2="789.8015">
		<stop offset="0" style="stop-color:#4CA950"></stop>
		<stop offset="1" style="stop-color:#FFFFFE"></stop>
	</linearGradient>
	<path fill="url(#SVGID_6_)" d="M477.6,800.4c-2.8-0.3-5.6-0.7-8.4-1C472,799.8,474.8,800.2,477.6,800.4z" data-part-id="logo__item--logo_0__11"></path>
	<path fill="#4CA950" d="M500,509.6l-105.8-88.4c-3.3-2.8-7.2-6.8-7.2-11.1v-133c-15-6.4-25.8-22.1-25.8-40.4   c0-24,20.3-43.5,44.4-43.5c24,0,44.2,19.5,44.2,43.5c0,19.5-14.8,36-29.8,41.5c0,32.6,0,115.4,0,125.2c7,6.1,56,49.4,80,67.5V353.3   c-17-5.3-31.3-22-31.3-41.7c0-22.3,14.3-40.6,38.3-43.2V40.3c0,0-0.3,0.1-0.5,0.1c-0.1-0.1-0.4-0.2-0.4-0.2l-0.1,0.3   c-14.3,9-340.5,217.8-297.7,489c11.1,123.1,96.7,224.6,211.3,259.3c0.8,0.3,2.2,0.6,3,0.8c3.9,1.1,4.3,2.2,12.3,3.2   c0-71.4,0-164.7,0-172.8c-8-6.9-86.2-69.6-106.4-86c-7.2,5.2-16.3,8.4-25.9,8.4c-24,0-43.6-19.5-43.6-43.5   c0-24,19.4-43.5,43.4-43.5c24,0,43.5,19.5,43.5,43.5c0,3.8-0.6,7.5-1.5,11.1L455.6,602c3.4,2.8,3.4,6.9,3.4,11.3v185.4   c0,0,2.3,0.1,2.4,0.1c1.9,0.3,4.9,0.5,6.8,0.7c2.8,0.3,6.1,0.7,8.9,1c1.9,0.2,4.2,0.3,6.1,0.4c2.8,0.2,5.8,0.5,8.6,0.6   c2,0.1,4.5,0.1,6.5,0.1c0.4,0,1.7,0,1.7,0V509.6z" data-part-id="logo__item--logo_0__12"></path>
	<linearGradient id="SVGID_7_" gradientUnits="userSpaceOnUse" x1="93.5614" y1="425.7198" x2="1335.6642" y2="411.1922">
		<stop offset="0" style="stop-color:#4CA950"></stop>
		<stop offset="1" style="stop-color:#FFFFFE"></stop>
	</linearGradient>
	<path fill="#0BB1D3" d="M500,509.6l-105.8-88.4c-3.3-2.8-7.2-6.8-7.2-11.1v-133c-15-6.4-25.8-22.1-25.8-40.4   c0-24,20.3-43.5,44.4-43.5c24,0,44.2,19.5,44.2,43.5c0,19.5-14.8,36-29.8,41.5c0,32.6,0,115.4,0,125.2c7,6.1,56,49.4,80,67.5V353.3   c-17-5.3-31.3-22-31.3-41.7c0-22.3,14.3-40.6,38.3-43.2V40.3c0,0-0.3,0.1-0.5,0.1c-0.1-0.1-0.4-0.2-0.4-0.2l-0.1,0.3   c-14.3,9-340.5,217.8-297.7,489c11.1,123.1,96.7,224.6,211.3,259.3c0.8,0.3,2.2,0.6,3,0.8c3.9,1.1,4.3,2.2,12.3,3.2   c0-71.4,0-164.7,0-172.8c-8-6.9-86.2-69.6-106.4-86c-7.2,5.2-16.3,8.4-25.9,8.4c-24,0-43.6-19.5-43.6-43.5   c0-24,19.4-43.5,43.4-43.5c24,0,43.5,19.5,43.5,43.5c0,3.8-0.6,7.5-1.5,11.1L455.6,602c3.4,2.8,3.4,6.9,3.4,11.3v185.4   c0,0,2.3,0.1,2.4,0.1c1.9,0.3,4.9,0.5,6.8,0.7c2.8,0.3,6.1,0.7,8.9,1c1.9,0.2,4.2,0.3,6.1,0.4c2.8,0.2,5.8,0.5,8.6,0.6   c2,0.1,4.5,0.1,6.5,0.1c0.4,0,1.7,0,1.7,0V509.6z" data-part-id="logo__item--logo_0__13"></path>
	<path fill="#D4D4D4" d="M459,613.2c0-4.4,0-8.5-3.4-11.3l-112.1-91.9c0.9-3.5,2-7.3,2-11.1c0-24-19.2-43.5-43.3-43.5   c-24,0-43.4,19.5-43.4,43.5c0,24,19.5,43.5,43.6,43.5c9.6,0,19-3.1,26.2-8.4c20.2,16.4,98.4,79.1,106.4,86c0,8.1,0,101.3,0,172.8   l0,0c0,45.5,0,82.2,0,82.2c0,8,4,14.5,12,14.5c8,0,12-6.5,12-14.5v-76.5v0V613.2z M301.3,517.1c-10,0-18.1-8.1-18.1-18.1   c0-10,8.1-18.1,18.1-18.1c10,0,18.1,8.1,18.1,18.1C319.4,509,311.3,517.1,301.3,517.1z" data-part-id="logo__item--logo_0__14"></path>
	<path fill="#D4D4D4" d="M696.7,537.9c6.4,3.7,13.2,5.8,21.1,5.8c24,0,43.2-19.5,43.2-43.5c0-24-19.6-43.5-43.7-43.5   c-24,0-43.6,19.5-43.6,43.5c0,5.5,1,10.8,2.9,15.7l-107.9,93.7c-3.1,2.8-5.7,6.7-5.7,10.9v175.7v114.2c0,8,8.5,14.5,16.5,14.5   c8,0,16.5-6.5,16.5-14.5c0,0,0-58,0-121.5c0-73.8,0-155.1,0-161.9C604,620.6,671.4,560,696.7,537.9z M715.9,482.1   c10,0,18.1,8.1,18.1,18.1c0,10-8.1,18.1-18.1,18.1c-10,0-18.1-8.1-18.1-18.1C697.8,490.2,705.9,482.1,715.9,482.1z" data-part-id="logo__item--logo_0__15"></path>
	<path fill="#D4D4D4" d="M624.2,460.3c2.7-2.7,3.8-6.4,3.8-10.3v-63.1c15-6.5,26-22.1,26-40.2c0-24-19.9-43.5-44-43.5   c-24,0-44.3,19.5-44.3,43.5c0,19.7,13.3,36.4,30.3,41.7c0,23.2,0,49.9,0,55.6c-9,5.8-48,48.9-65,68.9V352.1c0-0.1-1.4-0.2-1.4-0.3   c15.8-6.5,26.2-22.1,26.2-40.2c0-24-19.8-43.5-43.9-43.5c-1.7,0-3.6,0.1-5.3,0.3c-21.6,2.5-38.1,20.9-38.1,43.2   c0,19.7,14.4,36.4,31.4,41.7v117.6c-24-18.1-73-61.4-80-67.5c0-9.8,0-92.6,0-125.2c15-5.5,30.3-22,30.3-41.5   c0-24-19.6-43.5-43.6-43.5c-24,0-45.3,19.5-45.3,43.5c0,18.4,10.7,34.1,25.7,40.4v133c0,4.3,4,8.3,7.2,11.1L500,509.6v292v0v159.7   c0,8,7.5,14.5,15.5,14.5c8,0,15.5-6.5,15.5-14.5V800.9V554.6L624.2,460.3z M590.2,346.7c0-10,8.1-18.1,18.1-18.1   c10,0,18.1,8.1,18.1,18.1c0,10-8.1,18.1-18.1,18.1C598.3,364.8,590.2,356.7,590.2,346.7z M405.3,218.5c10,0,18.1,8.1,18.1,18.1   c0,10-8.1,18.1-18.1,18.1c-10,0-18.1-8.1-18.1-18.1C387.1,226.7,395.3,218.5,405.3,218.5z M492.3,311.6c0-10,8.1-18.1,18.1-18.1   c10,0,18.1,8.1,18.1,18.1c0,10-8.1,18.1-18.1,18.1C500.4,329.8,492.3,321.6,492.3,311.6z" data-part-id="logo__item--logo_0__16"></path>
	<path fill="#0bd3cd" d="M301.3,480.9c-10,0-18.1,8.1-18.1,18.1c0,10,8.1,18.1,18.1,18.1c10,0,18.1-8.1,18.1-18.1   C319.4,489,311.3,480.9,301.3,480.9z" data-part-id="logo__item--logo_0__17"></path>
	<path fill="#0bd3cd" d="M405.3,254.8c10,0,18.1-8.1,18.1-18.1c0-10-8.1-18.1-18.1-18.1c-10,0-18.1,8.1-18.1,18.1   C387.1,246.7,395.3,254.8,405.3,254.8z" data-part-id="logo__item--logo_0__18"></path>
	<path fill="#0bd3cd" d="M510.4,329.8c10,0,18.1-8.1,18.1-18.1c0-10-8.1-18.1-18.1-18.1c-10,0-18.1,8.1-18.1,18.1   C492.3,321.6,500.4,329.8,510.4,329.8z" data-part-id="logo__item--logo_0__19"></path>
	<path fill="#0bd3cd" d="M626.5,346.7c0-10-8.1-18.1-18.1-18.1c-10,0-18.1,8.1-18.1,18.1c0,10,8.1,18.1,18.1,18.1   C618.4,364.8,626.5,356.7,626.5,346.7z" data-part-id="logo__item--logo_0__20"></path>
	<path fill="#0bd3cd" d="M715.9,518.3c10,0,18.1-8.1,18.1-18.1c0-10-8.1-18.1-18.1-18.1c-10,0-18.1,8.1-18.1,18.1   C697.8,510.2,705.9,518.3,715.9,518.3z" data-part-id="logo__item--logo_0__21"></path>
</g>

    </g>
</g></svg>