<?xml version="1.0" standalone="no"?>
<!--Generator: Gravit.io-->
<svg xmlns="http://www.w3.org/2000/svg" xmlns:xlink="http://www.w3.org/1999/xlink" width="400" height="500" style="isolation:isolate" viewBox="0 0 400 500">
    <defs>
        <style xmlns="http://www.w3.org/2000/svg" type="text/css">
            @import url(&apos;https://fonts.googleapis.com/css?family=Orbitron&apos;);
        </style>
        <clipPath id="_clipPath_V10LzUpDtvXS9Dm72jfyrJBUAuU1a3i2">
            <rect width="400" height="500"/>
        </clipPath>
    </defs>
    <g clip-path="url(#_clipPath_V10LzUpDtvXS9Dm72jfyrJBUAuU1a3i2)">
        <g id="logo__item--business">
            <g id="Group">
                <g transform="matrix(2.597,0,0,2.597,22.078,378)">
                    <text style="font-family:&quot;Orbitron&quot;;font-weight:400;font-size:32px;font-style:normal;fill:#5F6368;stroke:none" transform="matrix(1,0,0,1,0,24)">
                        AI4SEO
                    </text>
                </g>
            </g>
        </g>
        <g id="logo__item--logo_0">
            <g id="Group">
                <g id="Group">
                    <path fill="rgb(76,169,80)" d=" M 192.163 302.388 C 191.497 302.355 190.864 302.322 190.197 302.255 C 190.83 302.322 191.497 302.355 192.163 302.388 Z "/>
                    <path fill="rgb(76,169,80)" d=" M 196.993 302.655 C 196.327 302.622 195.661 302.655 194.995 302.622 C 195.661 302.655 196.327 302.622 196.993 302.655 Z "/>
                    <path fill="rgb(76,169,80)" d=" M 171.741 298.724 C 173.04 299.09 174.34 299.457 175.672 299.79 L 175.672 299.79 C 174.34 299.423 173.04 299.09 171.741 298.724 Z "/>
                    <defs>
                        <filter id="bsUV3i62KJ3GUY0Dtmxcwevz1b2NqRpo" width="400%" height="400%" x="-200%" y="-200%">
                            <feOffset xmlns="http://www.w3.org/2000/svg" dx="1" dy="1" in="SourceAlpha" result="offOut"/>
                            <feGaussianBlur xmlns="http://www.w3.org/2000/svg" in="offOut" result="blurOut" stdDeviation="10"/>
                            <feComponentTransfer xmlns="http://www.w3.org/2000/svg" in="blurOut" result="opacOut">
                                <feFuncA xmlns="http://www.w3.org/2000/svg" tableValues="0 0.5" type="table"/>
                            </feComponentTransfer>
                            <feBlend xmlns="http://www.w3.org/2000/svg" in="SourceGraphic" in2="opacOut" mode="normal"/>
                        </filter>
                    </defs>
                    <g filter="url(#bsUV3i62KJ3GUY0Dtmxcwevz1b2NqRpo)">
                        <path fill="rgb(11,117,211)" d=" M 199.992 49.1 L 199.992 49 C 199.992 49 199.992 49 199.992 49 L 199.992 125.023 C 199.992 124.957 201.058 124.923 201.624 124.923 C 209.62 124.923 216.083 131.42 216.083 139.415 C 216.083 145.478 212.818 150.642 207.554 152.807 C 207.554 152.841 207.987 152.874 207.987 152.907 L 207.987 206.477 C 213.651 199.814 226.643 185.455 229.641 183.523 C 229.641 181.591 229.641 172.696 229.641 165 C 223.978 163.235 219.481 157.671 219.481 151.108 C 219.481 143.113 226.077 136.617 234.072 136.617 C 242.068 136.617 248.93 143.113 248.93 151.108 C 248.93 157.138 245.332 162.335 240.335 164.501 L 240.335 185.522 C 240.335 186.788 239.969 188.02 239.069 188.953 L 207.987 220.369 L 207.987 302.422 C 210.652 302.122 215.983 301.622 218.648 300.856 L 218.648 242.323 C 218.648 240.924 219.514 239.591 220.547 238.691 L 256.359 207.476 C 255.727 205.844 255.427 204.111 255.427 202.246 C 255.427 194.25 261.956 187.754 269.952 187.754 C 277.947 187.754 284.477 194.25 284.477 202.246 C 284.477 210.241 277.98 216.737 269.985 216.737 C 267.353 216.737 265.288 216.038 263.156 214.805 C 254.76 222.168 232.307 242.356 229.641 244.521 C 229.641 246.787 229.641 273.871 229.641 298.457 C 266.62 286.664 297.07 251.717 299.868 209.641 C 311.828 120.359 205.655 51.998 199.992 49.1 Z "/>
                    </g>
                    <path fill="rgb(76,169,80)" d=" M 187.399 301.922 C 186.766 301.855 186.1 301.789 185.467 301.689 C 186.1 301.789 186.766 301.855 187.399 301.922 Z "/>
                    <path fill="rgb(76,169,80)" d=" M 100.515 212.04 C 86.257 121.692 194.895 52.132 199.692 49.133 L 199.692 49.033 L 199.659 49.133 C 194.861 52.132 86.257 121.692 100.515 212.04 C 104.213 253.017 132.73 286.864 170.908 298.424 C 132.697 286.864 104.213 253.05 100.515 212.04 Z "/>
                    <linearGradient id="_lgradient_6" x1="-208528.75000001187%" x2="411609.8500000235%" y1="4995.699999999932%" y2="-9510.499999999874%">
                        <stop offset="0%" stop-opacity="1" style="stop-color:rgb(76,169,80)"/>
                        <stop offset="100%" stop-opacity="1" style="stop-color:rgb(255,255,254)"/>
                    </linearGradient>
                    <path fill="url(#_lgradient_6)" d=" M 199.825 49 C 199.825 49 199.792 49.033 199.759 49.033 C 199.792 49.033 199.825 49.033 199.825 49 L 199.825 49 Z "/>
                    <linearGradient id="_lgradient_7" x1="-91223.70000000518%" x2="218845.57500001247%" y1="4354.799999998977%" y2="-10151.499999997759%">
                        <stop offset="0%" stop-opacity="1" style="stop-color:rgb(76,169,80)"/>
                        <stop offset="100%" stop-opacity="1" style="stop-color:rgb(255,255,254)"/>
                    </linearGradient>
                    <path fill="url(#_lgradient_7)" d=" M 185.333 301.655 C 185.367 301.655 185.433 301.655 185.467 301.689 C 185.433 301.689 185.367 301.689 185.333 301.655 L 185.333 301.655 Z "/>
                    <linearGradient id="_lgradient_8" x1="-33321.300000000316%" x2="70035.12500000067%" y1="391.6666666666629%" y2="-817.1916666666787%">
                        <stop offset="0%" stop-opacity="1" style="stop-color:rgb(76,169,80)"/>
                        <stop offset="100%" stop-opacity="1" style="stop-color:rgb(255,255,254)"/>
                    </linearGradient>
                    <path fill="url(#_lgradient_8)" d=" M 196.993 302.655 C 197.127 302.655 197.26 302.655 197.393 302.655 L 197.393 302.655 C 197.26 302.655 197.127 302.655 196.993 302.655 Z "/>
                    <linearGradient id="_lgradient_9" x1="-12868.387999999999%" x2="36742.700000000004%" y1="516.250000000025%" y2="-1297.0375000000786%">
                        <stop offset="0%" stop-opacity="1" style="stop-color:rgb(76,169,80)"/>
                        <stop offset="100%" stop-opacity="1" style="stop-color:rgb(255,255,254)"/>
                    </linearGradient>
                    <path fill="url(#_lgradient_9)" d=" M 171.741 298.724 C 171.441 298.657 171.175 298.557 170.908 298.457 C 171.175 298.524 171.441 298.624 171.741 298.724 Z "/>
                    <linearGradient id="_lgradient_10" x1="-4533.677647058823%" x2="10057.818823529413%" y1="801.0999999999513%" y2="-1616.6166666666186%">
                        <stop offset="0%" stop-opacity="1" style="stop-color:rgb(76,169,80)"/>
                        <stop offset="100%" stop-opacity="1" style="stop-color:rgb(255,255,254)"/>
                    </linearGradient>
                    <path fill="url(#_lgradient_10)" d=" M 194.995 302.622 C 194.028 302.588 193.096 302.488 192.163 302.422 C 193.096 302.488 194.028 302.555 194.995 302.622 Z "/>
                    <linearGradient id="_lgradient_11" x1="-4417.605952380965%" x2="10347.597619047649%" y1="490.78000000000657%" y2="-959.8499999999947%">
                        <stop offset="0%" stop-opacity="1" style="stop-color:rgb(76,169,80)"/>
                        <stop offset="100%" stop-opacity="1" style="stop-color:rgb(255,255,254)"/>
                    </linearGradient>
                    <path fill="url(#_lgradient_11)" d=" M 190.197 302.255 C 189.265 302.155 188.332 302.022 187.399 301.922 C 188.332 302.055 189.265 302.188 190.197 302.255 Z "/>
                    <path fill="rgb(76,169,80)" d=" M 197.66 205.377 L 162.413 175.927 C 161.314 174.995 160.015 173.662 160.015 172.229 L 160.015 127.922 C 155.017 125.789 151.42 120.559 151.42 114.463 C 151.42 106.467 158.182 99.971 166.211 99.971 C 174.206 99.971 180.936 106.467 180.936 114.463 C 180.936 120.959 176.005 126.456 171.008 128.288 C 171.008 139.148 171.008 166.733 171.008 169.997 C 173.34 172.03 189.664 186.455 197.66 192.485 L 197.66 153.307 C 191.996 151.541 187.232 145.978 187.232 139.415 C 187.232 131.986 191.996 125.889 199.992 125.023 L 199.992 49.033 C 199.992 49.033 199.892 49.067 199.825 49.067 C 199.792 49.033 199.692 49 199.692 49 L 199.659 49.1 C 194.895 52.098 86.223 121.658 100.482 212.007 C 104.18 253.017 132.697 286.831 170.875 298.391 C 171.142 298.491 171.608 298.591 171.874 298.657 C 173.174 299.024 173.307 299.39 175.972 299.723 C 175.972 275.937 175.972 244.855 175.972 242.156 C 173.307 239.857 147.255 218.969 140.526 213.506 C 138.127 215.238 135.096 216.304 131.897 216.304 C 123.902 216.304 117.372 209.808 117.372 201.813 C 117.372 193.817 123.835 187.321 131.831 187.321 C 139.826 187.321 146.322 193.817 146.322 201.813 C 146.322 203.079 146.123 204.311 145.823 205.51 L 182.868 236.16 C 184.001 237.092 184.001 238.458 184.001 239.924 L 184.001 301.689 C 184.001 301.689 184.767 301.722 184.8 301.722 C 185.433 301.822 186.433 301.889 187.066 301.955 C 187.999 302.055 189.098 302.188 190.031 302.288 C 190.664 302.355 191.43 302.388 192.063 302.422 C 192.996 302.488 193.995 302.588 194.928 302.622 C 195.594 302.655 196.427 302.655 197.093 302.655 C 197.227 302.655 197.66 302.655 197.66 302.655 L 197.66 205.377 Z "/>
                    <defs>
                        <filter id="XR7slFbuTmwzp7XILiAuOMxBBZnOiEu4" width="400%" height="400%" x="-200%" y="-200%">
                            <feOffset xmlns="http://www.w3.org/2000/svg" dx="1" dy="1" in="SourceAlpha" result="offOut"/>
                            <feGaussianBlur xmlns="http://www.w3.org/2000/svg" in="offOut" result="blurOut" stdDeviation="10"/>
                            <feComponentTransfer xmlns="http://www.w3.org/2000/svg" in="blurOut" result="opacOut">
                                <feFuncA xmlns="http://www.w3.org/2000/svg" tableValues="0 0.5" type="table"/>
                            </feComponentTransfer>
                            <feBlend xmlns="http://www.w3.org/2000/svg" in="SourceGraphic" in2="opacOut" mode="normal"/>
                        </filter>
                    </defs>
                    <g filter="url(#XR7slFbuTmwzp7XILiAuOMxBBZnOiEu4)">
                        <path fill="rgb(11,177,211)" d=" M 197.66 205.377 L 162.413 175.927 C 161.314 174.995 160.015 173.662 160.015 172.229 L 160.015 127.922 C 155.017 125.789 151.42 120.559 151.42 114.463 C 151.42 106.467 158.182 99.971 166.211 99.971 C 174.206 99.971 180.936 106.467 180.936 114.463 C 180.936 120.959 176.005 126.456 171.008 128.288 C 171.008 139.148 171.008 166.733 171.008 169.997 C 173.34 172.03 189.664 186.455 197.66 192.485 L 197.66 153.307 C 191.996 151.541 187.232 145.978 187.232 139.415 C 187.232 131.986 191.996 125.889 199.992 125.023 L 199.992 49.033 C 199.992 49.033 199.892 49.067 199.825 49.067 C 199.792 49.033 199.692 49 199.692 49 L 199.659 49.1 C 194.895 52.098 86.223 121.658 100.482 212.007 C 104.18 253.017 132.697 286.831 170.875 298.391 C 171.142 298.491 171.608 298.591 171.874 298.657 C 173.174 299.024 173.307 299.39 175.972 299.723 C 175.972 275.937 175.972 244.855 175.972 242.156 C 173.307 239.857 147.255 218.969 140.526 213.506 C 138.127 215.238 135.096 216.304 131.897 216.304 C 123.902 216.304 117.372 209.808 117.372 201.813 C 117.372 193.817 123.835 187.321 131.831 187.321 C 139.826 187.321 146.322 193.817 146.322 201.813 C 146.322 203.079 146.123 204.311 145.823 205.51 L 182.868 236.16 C 184.001 237.092 184.001 238.458 184.001 239.924 L 184.001 301.689 C 184.001 301.689 184.767 301.722 184.8 301.722 C 185.433 301.822 186.433 301.889 187.066 301.955 C 187.999 302.055 189.098 302.188 190.031 302.288 C 190.664 302.355 191.43 302.388 192.063 302.422 C 192.996 302.488 193.995 302.588 194.928 302.622 C 195.594 302.655 196.427 302.655 197.093 302.655 C 197.227 302.655 197.66 302.655 197.66 302.655 L 197.66 205.377 Z "/>
                    </g>
                    <defs>
                        <filter id="Ni2BL2MoeMasBsTOwlU6uYxf6QgsoDau" width="400%" height="400%" x="-200%" y="-200%">
                            <feOffset xmlns="http://www.w3.org/2000/svg" dx="1" dy="1" in="SourceAlpha" result="offOut"/>
                            <feGaussianBlur xmlns="http://www.w3.org/2000/svg" in="offOut" result="blurOut" stdDeviation="10"/>
                            <feComponentTransfer xmlns="http://www.w3.org/2000/svg" in="blurOut" result="opacOut">
                                <feFuncA xmlns="http://www.w3.org/2000/svg" tableValues="0 0.5" type="table"/>
                            </feComponentTransfer>
                            <feBlend xmlns="http://www.w3.org/2000/svg" in="SourceGraphic" in2="opacOut" mode="normal"/>
                        </filter>
                    </defs>
                    <g filter="url(#Ni2BL2MoeMasBsTOwlU6uYxf6QgsoDau)">
                        <path fill="rgb(212,212,212)" d=" M 184.001 239.891 C 184.001 238.425 184.001 237.059 182.868 236.126 L 145.523 205.51 C 145.823 204.344 146.189 203.079 146.189 201.813 C 146.189 193.817 139.793 187.321 131.764 187.321 C 123.769 187.321 117.306 193.817 117.306 201.813 C 117.306 209.808 123.802 216.304 131.831 216.304 C 135.029 216.304 138.16 215.272 140.559 213.506 C 147.289 218.969 173.34 239.857 176.005 242.156 C 176.005 244.855 176.005 275.904 176.005 299.723 L 176.005 299.723 C 176.005 314.881 176.005 327.108 176.005 327.108 C 176.005 329.773 177.338 331.938 180.003 331.938 C 182.668 331.938 184.001 329.773 184.001 327.108 L 184.001 301.622 L 184.001 301.622 L 184.001 239.891 Z  M 131.464 207.876 C 128.133 207.876 125.434 205.177 125.434 201.846 C 125.434 198.514 128.133 195.816 131.464 195.816 C 134.796 195.816 137.494 198.514 137.494 201.846 C 137.494 205.177 134.796 207.876 131.464 207.876 Z "/>
                    </g>
                    <defs>
                        <filter id="N7wmwK5CejDbLvB7nSjwvnWNTC4XMkyo" width="400%" height="400%" x="-200%" y="-200%">
                            <feOffset xmlns="http://www.w3.org/2000/svg" dx="1" dy="1" in="SourceAlpha" result="offOut"/>
                            <feGaussianBlur xmlns="http://www.w3.org/2000/svg" in="offOut" result="blurOut" stdDeviation="10"/>
                            <feComponentTransfer xmlns="http://www.w3.org/2000/svg" in="blurOut" result="opacOut">
                                <feFuncA xmlns="http://www.w3.org/2000/svg" tableValues="0 0.5" type="table"/>
                            </feComponentTransfer>
                            <feBlend xmlns="http://www.w3.org/2000/svg" in="SourceGraphic" in2="opacOut" mode="normal"/>
                        </filter>
                    </defs>
                    <g filter="url(#N7wmwK5CejDbLvB7nSjwvnWNTC4XMkyo)">
                        <path fill="rgb(212,212,212)" d=" M 263.189 214.805 C 265.321 216.038 267.586 216.737 270.218 216.737 C 278.214 216.737 284.61 210.241 284.61 202.246 C 284.61 194.25 278.08 187.754 270.052 187.754 C 262.056 187.754 255.527 194.25 255.527 202.246 C 255.527 204.078 255.86 205.844 256.493 207.476 L 220.547 238.691 C 219.514 239.624 218.648 240.924 218.648 242.323 L 218.648 300.856 L 218.648 338.901 C 218.648 341.566 221.479 343.731 224.145 343.731 C 226.81 343.731 229.641 341.566 229.641 338.901 C 229.641 338.901 229.641 319.579 229.641 298.424 C 229.641 273.838 229.641 246.754 229.641 244.488 C 232.307 242.356 254.76 222.168 263.189 214.805 Z  M 269.585 196.216 C 272.917 196.216 275.615 198.914 275.615 202.246 C 275.615 205.577 272.917 208.276 269.585 208.276 C 266.254 208.276 263.555 205.577 263.555 202.246 C 263.555 198.914 266.254 196.216 269.585 196.216 Z "/>
                    </g>
                    <defs>
                        <filter id="trbauV7AbsXbb0JJXNpqbOjrwC3ywX5i" width="400%" height="400%" x="-200%" y="-200%">
                            <feOffset xmlns="http://www.w3.org/2000/svg" dx="1" dy="1" in="SourceAlpha" result="offOut"/>
                            <feGaussianBlur xmlns="http://www.w3.org/2000/svg" in="offOut" result="blurOut" stdDeviation="10"/>
                            <feComponentTransfer xmlns="http://www.w3.org/2000/svg" in="blurOut" result="opacOut">
                                <feFuncA xmlns="http://www.w3.org/2000/svg" tableValues="0 0.5" type="table"/>
                            </feComponentTransfer>
                            <feBlend xmlns="http://www.w3.org/2000/svg" in="SourceGraphic" in2="opacOut" mode="normal"/>
                        </filter>
                    </defs>
                    <g filter="url(#trbauV7AbsXbb0JJXNpqbOjrwC3ywX5i)">
                        <path fill="rgb(212,212,212)" d=" M 239.036 188.953 C 239.936 188.054 240.302 186.821 240.302 185.522 L 240.302 164.501 C 245.299 162.335 248.964 157.138 248.964 151.108 C 248.964 143.113 242.334 136.617 234.305 136.617 C 226.31 136.617 219.547 143.113 219.547 151.108 C 219.547 157.671 223.978 163.235 229.641 165 C 229.641 172.729 229.641 181.624 229.641 183.523 C 226.643 185.455 213.651 199.814 207.987 206.477 L 207.987 152.907 C 207.987 152.874 207.521 152.841 207.521 152.807 C 212.784 150.642 216.249 145.445 216.249 139.415 C 216.249 131.42 209.653 124.923 201.624 124.923 C 201.058 124.923 200.425 124.957 199.858 125.023 C 192.663 125.856 187.166 131.986 187.166 139.415 C 187.166 145.978 191.963 151.541 197.626 153.307 L 197.626 192.485 C 189.631 186.455 173.307 172.03 170.975 169.997 C 170.975 166.733 170.975 139.148 170.975 128.288 C 175.972 126.456 181.069 120.959 181.069 114.463 C 181.069 106.467 174.54 99.971 166.544 99.971 C 158.549 99.971 151.453 106.467 151.453 114.463 C 151.453 120.592 155.017 125.823 160.015 127.922 L 160.015 172.229 C 160.015 173.662 161.347 174.995 162.413 175.927 L 197.66 205.377 L 197.66 302.655 L 197.66 302.655 L 197.66 355.858 C 197.66 358.523 200.158 360.688 202.823 360.688 C 205.489 360.688 207.987 358.523 207.987 355.858 L 207.987 302.422 L 207.987 220.369 L 239.036 188.953 Z  M 227.709 151.108 C 227.709 147.777 230.408 145.078 233.739 145.078 C 237.071 145.078 239.769 147.777 239.769 151.108 C 239.769 154.44 237.071 157.138 233.739 157.138 C 230.408 157.138 227.709 154.44 227.709 151.108 Z  M 166.111 108.399 C 169.443 108.399 172.141 111.098 172.141 114.429 C 172.141 117.761 169.443 120.459 166.111 120.459 C 162.78 120.459 160.081 117.761 160.081 114.429 C 160.048 111.131 162.78 108.399 166.111 108.399 Z  M 195.095 139.415 C 195.095 136.084 197.793 133.385 201.124 133.385 C 204.456 133.385 207.154 136.084 207.154 139.415 C 207.154 142.746 204.456 145.445 201.124 145.445 C 197.793 145.478 195.095 142.746 195.095 139.415 Z "/>
                    </g>
                    <path fill="rgb(11,211,205)" d=" M 131.464 195.816 C 128.133 195.816 125.434 198.514 125.434 201.846 C 125.434 205.177 128.133 207.876 131.464 207.876 C 134.796 207.876 137.494 205.177 137.494 201.846 C 137.494 198.514 134.796 195.816 131.464 195.816 Z "/>
                    <path fill="rgb(11,211,205)" d=" M 166.111 120.492 C 169.443 120.492 172.141 117.794 172.141 114.463 C 172.141 111.131 169.443 108.433 166.111 108.433 C 162.78 108.433 160.081 111.131 160.081 114.463 C 160.048 117.794 162.78 120.492 166.111 120.492 Z "/>
                    <path fill="rgb(11,211,205)" d=" M 201.124 145.478 C 204.456 145.478 207.154 142.78 207.154 139.448 C 207.154 136.117 204.456 133.418 201.124 133.418 C 197.793 133.418 195.095 136.117 195.095 139.448 C 195.095 142.746 197.793 145.478 201.124 145.478 Z "/>
                    <path fill="rgb(11,211,205)" d=" M 239.802 151.108 C 239.802 147.777 237.104 145.078 233.772 145.078 C 230.441 145.078 227.743 147.777 227.743 151.108 C 227.743 154.44 230.441 157.138 233.772 157.138 C 237.104 157.138 239.802 154.44 239.802 151.108 Z "/>
                    <path fill="rgb(11,211,205)" d=" M 269.585 208.276 C 272.917 208.276 275.615 205.577 275.615 202.246 C 275.615 198.914 272.917 196.216 269.585 196.216 C 266.254 196.216 263.555 198.914 263.555 202.246 C 263.555 205.577 266.254 208.276 269.585 208.276 Z "/>
                </g>
            </g>
        </g>
    </g>
</svg>
