<?xml version="1.0" standalone="no"?>
<!--Generator: Gravit.io-->
<svg xmlns="http://www.w3.org/2000/svg" xmlns:xlink="http://www.w3.org/1999/xlink" width="381.5" height="292.1" style="isolation:isolate" viewBox="0 0 381.5 292.1">
    <defs>
        <clipPath id="_clipPath_wV9FWdWed681pyofck5rf5A4VCFL9WV9">
            <rect width="381.5" height="292.1"/>
        </clipPath>
    </defs>
    <g clip-path="url(#_clipPath_wV9FWdWed681pyofck5rf5A4VCFL9WV9)">
        <rect width="381.5" height="292.1" x="0" y="0" fill="rgb(255,255,255)" transform="matrix(1,0,0,1,0,0)"/>
        <g id="Group">
            <g id="Group">
                <g id="Group">
                    <path fill="rgb(188,190,192)" d=" M 381.5 157.25 C 381.5 157.75 381.5 158.25 381.4 158.65 C 381.4 159.05 381.4 159.45 381.3 159.85 C 381.3 160.35 381.2 160.85 381.2 161.25 C 381.2 161.65 381.1 162.05 381.1 162.45 C 381 162.95 381 163.45 380.9 163.95 C 380.8 164.35 380.8 164.75 380.7 165.15 C 380.6 165.65 380.5 166.15 380.4 166.65 C 380.3 167.05 380.3 167.45 380.2 167.85 C 380.1 168.35 380 168.85 379.9 169.25 C 379.8 169.65 379.7 170.05 379.6 170.45 C 379.5 170.95 379.3 171.45 379.2 171.95 C 379.1 172.35 379 172.75 378.9 173.15 C 378.8 173.65 378.6 174.15 378.4 174.65 C 378.3 175.05 378.2 175.45 378 175.75 C 377.8 176.25 377.6 176.75 377.5 177.35 C 377.4 177.75 377.3 178.05 377.1 178.45 C 376.8 179.25 376.5 179.95 376.2 180.75 C 376.1 180.85 376.1 181.05 376 181.15 C 375.6 182.05 375.2 182.95 374.8 183.75 C 374.7 184.05 374.5 184.25 374.4 184.55 C 374.1 185.15 373.8 185.75 373.5 186.35 C 373.3 186.65 373.1 187.05 373 187.35 C 372.7 187.85 372.4 188.45 372.1 188.95 C 371.9 189.25 371.7 189.55 371.6 189.85 C 371.3 190.45 370.9 191.05 370.5 191.65 C 370.3 192.05 370.1 192.35 369.8 192.65 C 369.4 193.25 369.1 193.75 368.7 194.35 C 368.5 194.75 368.2 195.05 368 195.45 C 367.6 195.95 367.2 196.55 366.9 197.05 C 366.6 197.45 366.4 197.75 366.1 198.15 C 365.7 198.75 365.3 199.25 364.8 199.85 C 364.5 200.25 364.2 200.55 364 200.95 C 363.9 201.15 363.7 201.35 363.6 201.45 C 363.1 202.05 362.6 202.65 362.1 203.35 C 362 203.45 361.9 203.55 361.8 203.65 C 361.2 204.35 360.6 205.05 359.9 205.75 C 359.7 205.95 359.6 206.05 359.4 206.25 C 358.8 206.85 358.3 207.45 357.7 208.05 C 357.6 208.15 357.5 208.25 357.4 208.35 C 356.7 209.05 356.1 209.75 355.4 210.45 C 355.2 210.65 355.1 210.75 354.9 210.95 C 354.3 211.55 353.7 212.15 353 212.75 C 352.9 212.85 352.8 212.95 352.6 213.15 C 352.2 213.55 351.8 213.85 351.4 214.25 C 350.9 214.65 350.4 215.15 350 215.55 C 349.6 215.85 349.2 216.25 348.8 216.55 C 348.3 216.95 347.8 217.35 347.3 217.85 C 346.9 218.25 346.4 218.55 346 218.85 C 345.5 219.25 345 219.65 344.5 220.05 C 344.1 220.35 343.6 220.75 343.1 221.05 C 342.6 221.45 342.1 221.85 341.5 222.25 C 341 222.55 340.6 222.95 340.1 223.25 C 339.6 223.65 339 224.05 338.5 224.45 C 338 224.75 337.5 225.15 337 225.45 C 336.4 225.85 335.9 226.25 335.3 226.55 C 334.8 226.85 334.3 227.25 333.8 227.55 C 333.2 227.95 332.7 228.25 332.1 228.65 C 331.6 228.95 331 229.35 330.5 229.65 C 329.9 230.05 329.3 230.35 328.7 230.75 C 327.8 231.35 326.8 231.85 325.8 232.45 C 324.4 233.25 322.9 234.05 321.5 234.85 C 321.1 235.05 320.7 235.35 320.2 235.55 C 319.1 236.15 317.9 236.75 316.8 237.35 C 316.4 237.55 316 237.75 315.6 237.95 C 314.1 238.65 312.6 239.45 311.1 240.15 C 310.8 240.25 310.6 240.35 310.3 240.55 C 309 241.15 307.7 241.75 306.4 242.35 C 305.9 242.55 305.5 242.75 305 242.95 C 303.7 243.55 302.4 244.05 301.2 244.55 C 300.9 244.65 300.6 244.85 300.2 244.95 C 298.6 245.55 297 246.25 295.4 246.85 C 295 247.05 294.6 247.15 294.2 247.35 C 292.9 247.85 291.7 248.25 290.4 248.75 C 289.9 248.95 289.4 249.05 289 249.25 C 287.5 249.75 285.9 250.35 284.4 250.85 C 284.3 250.85 284.2 250.95 284 250.95 C 282.6 251.45 281.2 251.85 279.8 252.25 C 279.5 252.35 279.1 252.45 278.8 252.55 C 277.7 252.85 276.6 253.25 275.5 253.55 C 275 253.75 274.4 253.85 273.9 253.95 C 273 254.25 272.1 254.45 271.2 254.75 C 270.6 254.95 270 255.05 269.4 255.25 C 268.5 255.45 267.7 255.65 266.8 255.95 C 266.2 256.15 265.5 256.25 264.9 256.45 C 264.1 256.65 263.2 256.85 262.4 257.05 C 261.7 257.25 261.1 257.35 260.4 257.45 C 259.6 257.65 258.8 257.85 257.9 257.95 C 257.2 258.05 256.5 258.25 255.9 258.35 C 255.1 258.55 254.3 258.65 253.4 258.85 C 252.7 258.95 252 259.15 251.3 259.25 C 250.5 259.45 249.7 259.55 248.8 259.75 C 248.2 259.85 247.6 259.95 247 260.05 C 245.6 260.25 244.2 260.55 242.8 260.75 C 242.4 260.85 241.9 260.85 241.5 260.95 C 239.7 261.25 237.9 261.55 236.1 261.75 C 235.7 261.85 235.3 261.85 234.9 261.95 C 233.4 262.15 232 262.35 230.5 262.55 C 230 262.65 229.4 262.65 228.9 262.75 C 227.4 262.95 225.9 263.05 224.4 263.25 C 224.1 263.25 223.7 263.35 223.4 263.35 C 221.8 263.55 220.1 263.65 218.5 263.75 C 218.2 263.75 217.9 263.75 217.7 263.85 C 216.3 263.95 215 264.05 213.6 264.15 C 213 264.15 212.5 264.25 211.9 264.25 C 210.8 264.35 209.7 264.35 208.6 264.45 C 208 264.45 207.3 264.55 206.7 264.55 C 205.7 264.55 204.6 264.65 203.6 264.65 C 202.9 264.65 202.2 264.65 201.6 264.75 C 200.7 264.75 199.9 264.75 199 264.85 C 198.3 264.85 197.6 264.85 196.9 264.85 C 196 264.85 195.1 264.85 194.3 264.85 C 193.6 264.85 192.9 264.85 192.2 264.85 C 191.3 264.85 190.4 264.85 189.5 264.85 C 188.8 264.85 188.1 264.85 187.4 264.85 C 186.5 264.85 185.6 264.85 184.7 264.85 C 184 264.85 183.4 264.85 182.7 264.85 C 181.9 264.85 181 264.75 180.2 264.75 C 179.5 264.75 178.8 264.75 178.1 264.65 C 177.2 264.65 176.4 264.55 175.6 264.55 C 174.9 264.55 174.2 264.45 173.5 264.45 C 172.6 264.45 171.8 264.35 170.9 264.25 C 170.2 264.25 169.6 264.15 168.9 264.15 C 168 264.05 167.1 264.05 166.2 263.95 C 165.6 263.95 164.9 263.85 164.3 263.85 C 163.4 263.75 162.4 263.65 161.5 263.65 C 160.9 263.55 160.3 263.55 159.7 263.45 C 158.6 263.35 157.6 263.25 156.5 263.15 C 156 263.05 155.5 263.05 155.1 262.95 C 153.6 262.75 152.1 262.55 150.5 262.45 C 150.3 262.45 150.1 262.35 149.9 262.35 C 148.6 262.15 147.3 262.05 146 261.85 C 145.6 261.75 145.2 261.75 144.9 261.65 C 143.7 261.45 142.6 261.35 141.4 261.15 C 140.8 261.05 140.3 260.95 139.7 260.85 C 138.7 260.65 137.8 260.55 136.8 260.35 C 136.2 260.25 135.5 260.15 134.9 260.05 C 134 259.85 133.1 259.75 132.2 259.55 C 131.5 259.45 130.9 259.25 130.2 259.15 C 129.3 258.95 128.5 258.85 127.6 258.65 C 127 258.55 126.4 258.35 125.8 258.25 C 124.8 258.05 123.8 257.85 122.8 257.65 C 122.2 257.55 121.6 257.35 120.9 257.25 C 119.9 257.05 119 256.75 118 256.55 C 117.4 256.45 116.8 256.25 116.2 256.15 C 115.2 255.85 114.2 255.65 113.2 255.35 C 112.7 255.25 112.1 255.05 111.6 254.95 C 110.4 254.65 109.1 254.25 107.9 253.95 C 107.6 253.85 107.3 253.75 107 253.75 C 105.2 253.25 103.5 252.75 101.7 252.15 C 101.2 252.05 100.8 251.85 100.3 251.75 C 98.9 251.35 97.5 250.85 96.1 250.35 C 95.7 250.25 95.3 250.05 94.9 249.95 C 93.2 249.35 91.5 248.75 89.8 248.15 C 89.4 248.05 89.1 247.85 88.7 247.75 C 87.3 247.25 86 246.75 84.6 246.25 C 84.1 246.05 83.5 245.85 83 245.65 C 82.4 245.45 81.9 245.25 81.4 244.95 C 80.7 244.65 80 244.35 79.3 244.05 C 78.8 243.85 78.2 243.55 77.7 243.35 C 77 243.05 76.3 242.75 75.6 242.45 C 75.1 242.25 74.5 241.95 74 241.75 C 73.3 241.45 72.6 241.15 71.9 240.75 C 71.4 240.55 70.9 240.25 70.3 240.05 C 69.6 239.75 68.9 239.35 68.2 239.05 C 67.7 238.85 67.2 238.55 66.7 238.35 C 66 237.95 65.3 237.65 64.6 237.25 C 64.1 237.05 63.7 236.75 63.2 236.55 C 62.4 236.15 61.7 235.75 60.9 235.35 C 60.5 235.15 60.1 234.95 59.8 234.75 C 58.7 234.15 57.5 233.45 56.4 232.85 C 18.8 211.15 0 182.65 0.1 154.15 L 0 181.25 C -0.1 209.75 18.7 238.15 56.3 259.95 C 57.4 260.55 58.6 261.25 59.7 261.85 C 60.1 262.05 60.5 262.25 60.8 262.45 C 61.6 262.85 62.3 263.25 63.1 263.65 C 63.6 263.85 64 264.15 64.5 264.35 C 65.2 264.75 65.9 265.05 66.6 265.45 C 67.1 265.65 67.6 265.95 68.1 266.15 C 68.8 266.45 69.5 266.85 70.2 267.15 C 70.7 267.35 71.2 267.65 71.8 267.85 C 72.5 268.15 73.2 268.45 73.9 268.85 C 74.4 269.05 75 269.35 75.5 269.55 C 76.2 269.85 76.9 270.15 77.6 270.45 C 78.1 270.65 78.7 270.95 79.2 271.15 C 79.9 271.45 80.6 271.75 81.3 272.05 C 81.8 272.25 82.4 272.45 82.9 272.75 C 83.2 272.85 83.4 272.95 83.7 273.05 C 84 273.15 84.2 273.25 84.5 273.35 C 85.8 273.85 87.2 274.35 88.6 274.85 C 89 274.95 89.3 275.15 89.7 275.25 C 91.4 275.85 93.1 276.45 94.8 277.05 C 95.2 277.15 95.6 277.35 96 277.45 C 97.4 277.95 98.8 278.35 100.2 278.85 C 100.7 278.95 101.1 279.15 101.6 279.25 C 103.3 279.75 105.1 280.35 106.9 280.85 C 106.9 280.85 107 280.85 107 280.85 C 107.3 280.95 107.5 280.95 107.8 281.05 C 109 281.35 110.3 281.75 111.5 282.05 C 112 282.15 112.6 282.35 113.1 282.45 C 114.1 282.75 115.1 282.95 116.1 283.25 C 116.7 283.35 117.3 283.55 117.9 283.65 C 118.9 283.85 119.8 284.15 120.8 284.35 C 121.4 284.45 122 284.65 122.7 284.75 C 123.7 284.95 124.7 285.15 125.7 285.35 C 126.1 285.45 126.5 285.55 126.9 285.65 C 127.1 285.65 127.3 285.75 127.5 285.75 C 128.4 285.95 129.2 286.05 130.1 286.25 C 130.8 286.35 131.4 286.55 132.1 286.65 C 133 286.85 133.9 286.95 134.8 287.15 C 135.4 287.25 136.1 287.35 136.7 287.45 C 137.7 287.65 138.6 287.75 139.6 287.95 C 140.2 288.05 140.7 288.15 141.3 288.25 C 142.5 288.45 143.6 288.65 144.8 288.75 C 145.2 288.85 145.5 288.85 145.9 288.95 C 145.9 288.95 145.9 288.95 146 288.95 C 147.3 289.15 148.6 289.35 149.9 289.45 C 150.1 289.45 150.3 289.55 150.5 289.55 C 152 289.75 153.5 289.95 155.1 290.05 C 155.6 290.15 156.1 290.15 156.5 290.25 C 157.5 290.35 158.6 290.45 159.6 290.55 C 160.2 290.65 160.8 290.65 161.4 290.75 C 162.3 290.85 163.3 290.95 164.2 291.05 C 164.3 291.05 164.3 291.05 164.4 291.05 C 165 291.05 165.6 291.15 166.2 291.15 C 167.1 291.25 168 291.25 168.9 291.35 C 169.6 291.35 170.2 291.45 170.9 291.45 C 171.8 291.55 172.6 291.55 173.5 291.65 C 174.2 291.65 174.9 291.75 175.6 291.75 C 176.4 291.75 177.3 291.85 178.1 291.85 C 178.8 291.85 179.5 291.85 180.2 291.95 C 181 291.95 181.9 292.05 182.7 292.05 C 182.8 292.05 183 292.05 183.1 292.05 C 183.6 292.05 184.1 292.05 184.7 292.05 C 185.6 292.05 186.5 292.05 187.4 292.05 C 188.1 292.05 188.8 292.05 189.5 292.05 C 190.4 292.05 191.3 292.05 192.2 292.05 C 192.9 292.05 193.6 292.05 194.3 292.05 C 195.2 292.05 196.1 292.05 196.9 292.05 C 197.6 292.05 198.3 292.05 199 292.05 C 199.9 292.05 200.7 292.05 201.6 291.95 C 201.9 291.95 202.3 291.95 202.6 291.95 C 202.9 291.95 203.3 291.95 203.6 291.95 C 204.6 291.95 205.7 291.85 206.7 291.85 C 207.3 291.85 208 291.75 208.6 291.75 C 209.7 291.65 210.8 291.65 211.9 291.55 C 212.5 291.55 213 291.45 213.6 291.45 C 215 291.35 216.3 291.25 217.7 291.15 C 218 291.15 218.3 291.15 218.5 291.05 C 220.1 290.95 221.8 290.75 223.4 290.65 C 223.5 290.65 223.6 290.65 223.6 290.65 C 223.9 290.65 224.1 290.55 224.4 290.55 C 225.9 290.35 227.4 290.25 228.9 290.05 C 229.4 289.95 230 289.95 230.5 289.85 C 232 289.65 233.4 289.45 234.9 289.25 C 235.3 289.15 235.7 289.15 236.1 289.05 C 237.9 288.75 239.7 288.55 241.5 288.25 C 241.9 288.15 242.4 288.15 242.8 288.05 C 244.2 287.85 245.6 287.55 247 287.35 C 247.3 287.25 247.6 287.25 247.9 287.15 C 248.2 287.05 248.5 287.05 248.8 286.95 C 249.6 286.75 250.4 286.65 251.3 286.45 C 252 286.35 252.7 286.15 253.4 286.05 C 254.2 285.85 255 285.75 255.9 285.55 C 256.6 285.45 257.3 285.25 257.9 285.15 C 258.7 284.95 259.5 284.75 260.4 284.65 C 261.1 284.55 261.7 284.35 262.4 284.25 C 263.2 284.05 264.1 283.85 264.9 283.65 C 265.5 283.45 266.2 283.35 266.8 283.15 C 267.7 282.95 268.5 282.75 269.4 282.45 C 270 282.25 270.6 282.15 271.2 281.95 C 272.1 281.75 273 281.45 273.9 281.15 C 274.4 281.05 275 280.85 275.5 280.75 C 276.6 280.45 277.7 280.15 278.8 279.75 C 279.1 279.65 279.5 279.55 279.8 279.45 C 281.2 279.05 282.6 278.55 284 278.15 C 284 278.15 284 278.15 284.1 278.15 C 284.2 278.15 284.3 278.05 284.4 278.05 C 286 277.55 287.5 277.05 289 276.45 C 289.5 276.25 290 276.15 290.4 275.95 C 291.7 275.45 293 275.05 294.2 274.55 C 294.6 274.35 295 274.25 295.4 274.05 C 297 273.45 298.6 272.85 300.2 272.15 C 300.5 272.05 300.8 271.85 301.2 271.75 C 302.5 271.25 303.8 270.65 305 270.15 C 305.5 269.95 305.9 269.75 306.4 269.55 C 307.7 268.95 309 268.35 310.3 267.75 C 310.6 267.65 310.8 267.55 311.1 267.35 C 312.6 266.65 314.1 265.85 315.6 265.15 C 316 264.95 316.4 264.75 316.8 264.55 C 317.9 263.95 319.1 263.35 320.2 262.75 C 320.6 262.55 321 262.25 321.5 262.05 C 323 261.25 324.4 260.45 325.8 259.65 C 326.6 259.15 327.4 258.75 328.1 258.25 C 328.3 258.15 328.4 258.05 328.6 257.95 C 329.2 257.55 329.8 257.25 330.4 256.85 C 330.9 256.55 331.5 256.15 332 255.85 C 332.6 255.45 333.1 255.15 333.7 254.75 C 334.2 254.45 334.7 254.05 335.2 253.75 C 335.8 253.35 336.3 252.95 336.9 252.65 C 337.4 252.35 337.9 251.95 338.4 251.65 C 338.9 251.25 339.5 250.85 340 250.45 C 340.5 250.15 340.9 249.75 341.4 249.45 C 341.9 249.05 342.4 248.65 343 248.25 C 343.5 247.95 343.9 247.55 344.3 247.25 C 344.8 246.85 345.3 246.45 345.8 246.05 C 346.2 245.75 346.7 245.35 347.1 245.05 C 347.6 244.65 348.1 244.25 348.6 243.75 C 349 243.45 349.4 243.05 349.8 242.75 C 350.3 242.35 350.8 241.85 351.2 241.45 C 351.5 241.15 351.9 240.85 352.2 240.55 C 352.3 240.45 352.3 240.45 352.4 240.35 C 352.5 240.25 352.6 240.15 352.8 239.95 C 353.4 239.35 354 238.75 354.7 238.15 C 354.9 237.95 355 237.85 355.2 237.65 C 355.9 236.95 356.6 236.25 357.2 235.55 C 357.3 235.45 357.4 235.35 357.5 235.25 C 358.1 234.65 358.6 234.05 359.2 233.45 C 359.4 233.25 359.5 233.15 359.7 232.95 C 360.3 232.25 360.9 231.55 361.6 230.85 C 361.7 230.75 361.8 230.65 361.9 230.55 C 362.4 229.95 362.9 229.35 363.4 228.65 C 363.5 228.45 363.7 228.25 363.8 228.15 C 363.9 228.05 364 227.85 364.1 227.75 C 364.3 227.55 364.5 227.25 364.6 227.05 C 365 226.45 365.5 225.95 365.9 225.35 C 366.2 224.95 366.4 224.65 366.7 224.25 C 367.1 223.75 367.5 223.15 367.8 222.65 C 368 222.25 368.3 221.95 368.5 221.55 C 368.9 220.95 369.2 220.45 369.6 219.85 C 369.8 219.55 370 219.15 370.3 218.85 C 370.7 218.25 371 217.65 371.4 217.05 C 371.5 216.85 371.7 216.55 371.8 216.35 C 371.8 216.25 371.9 216.25 371.9 216.15 C 372.2 215.65 372.5 215.05 372.8 214.55 C 373 214.25 373.2 213.85 373.3 213.55 C 373.6 212.95 373.9 212.35 374.2 211.75 C 374.3 211.45 374.5 211.25 374.6 210.95 C 375 210.05 375.4 209.15 375.8 208.35 C 375.9 208.25 375.9 208.05 376 207.95 C 376.3 207.25 376.6 206.45 376.9 205.65 C 376.9 205.65 376.9 205.55 376.9 205.55 C 377 205.25 377.1 204.85 377.2 204.55 C 377.4 204.05 377.6 203.55 377.7 203.05 C 377.8 202.65 377.9 202.25 378.1 201.95 C 378.3 201.45 378.4 200.95 378.6 200.45 C 378.7 200.05 378.8 199.65 378.9 199.25 C 379 198.75 379.2 198.25 379.3 197.75 C 379.4 197.35 379.5 196.95 379.6 196.55 C 379.7 196.05 379.8 195.55 379.9 195.15 C 379.9 195.05 379.9 194.95 380 194.85 C 380.1 194.55 380.1 194.25 380.2 193.85 C 380.3 193.35 380.4 192.85 380.5 192.35 C 380.6 191.95 380.6 191.55 380.7 191.15 C 380.8 190.65 380.8 190.15 380.9 189.65 C 380.9 189.25 381 188.85 381 188.45 C 381 187.95 381.1 187.45 381.1 187.05 C 381.1 186.65 381.2 186.25 381.2 185.75 C 381.2 185.25 381.3 184.75 381.3 184.35 C 381.3 184.15 381.3 184.05 381.3 183.85 C 381.3 183.25 381.3 182.75 381.3 182.15 L 381.4 155.05 C 381.5 155.75 381.5 156.45 381.5 157.25 Z "/>
                    <g id="Group">
                        <path fill="rgb(209,211,212)" d=" M 325.2 76.45 C 399.9 119.55 400.3 189.55 326.1 232.65 C 251.9 275.75 131.1 275.75 56.4 232.65 C -18.3 189.55 -18.7 119.55 55.5 76.45 C 129.7 33.25 250.5 33.25 325.2 76.45 Z "/>
                    </g>
                </g>
                <g id="Group">
                    <g id="Group">
                        <g id="Group">
                            <path fill="rgb(11,117,211)" d=" M 302.2 25.65 L 191.4 90.05 L 79.8 25.65 C 142 -8.55 239.7 -8.55 302.2 25.65 Z "/>
                        </g>
                        <g id="Group">
                            <path fill="rgb(8,83,148)" d=" M 302.2 25.65 L 302.1 72.25 L 191.2 136.65 L 191.4 90.05 L 302.2 25.65 Z "/>
                        </g>
                        <g id="Group">
                            <path fill="rgb(6,58,104)" d=" M 191.4 90.05 L 191.2 136.65 L 79.7 72.25 L 79.8 25.65 L 191.4 90.05 Z "/>
                        </g>
                    </g>
                    <g id="Group">
                        <path fill="rgb(11,146,211)" d=" M 353.3 98.05 C 353.3 98.45 353.3 98.85 353.2 99.25 C 353.2 99.65 353.2 99.95 353.1 100.35 C 353.1 100.75 353 101.15 353 101.55 C 353 101.95 352.9 102.25 352.9 102.65 C 352.9 103.05 352.8 103.45 352.7 103.85 C 352.7 104.15 352.6 104.55 352.5 104.85 C 352.4 105.25 352.4 105.65 352.3 106.15 C 352.2 106.45 352.2 106.85 352.1 107.15 C 352 107.55 351.9 107.95 351.8 108.35 C 351.7 108.65 351.6 109.05 351.6 109.35 C 351.5 109.75 351.4 110.15 351.3 110.55 C 351.2 110.85 351.1 111.25 351 111.55 C 350.9 111.95 350.7 112.45 350.6 112.85 C 350.5 113.15 350.4 113.45 350.3 113.85 C 350.2 114.25 350 114.75 349.8 115.15 C 349.7 115.45 349.6 115.75 349.5 116.05 C 349.3 116.65 349 117.35 348.7 117.95 C 348.7 118.05 348.6 118.15 348.6 118.25 C 348.3 118.95 348 119.75 347.6 120.45 C 347.5 120.65 347.4 120.85 347.3 121.15 C 347.1 121.65 346.8 122.15 346.5 122.75 C 346.4 123.05 346.2 123.35 346 123.65 C 345.8 124.15 345.5 124.55 345.3 125.05 C 345.2 125.35 345 125.55 344.8 125.85 C 344.5 126.35 344.2 126.85 343.9 127.35 C 343.7 127.65 343.5 127.95 343.3 128.25 C 343 128.75 342.7 129.15 342.4 129.65 C 342.2 129.95 342 130.25 341.8 130.55 C 341.5 131.05 341.2 131.45 340.8 131.95 C 340.6 132.25 340.4 132.55 340.1 132.85 C 339.7 133.35 339.4 133.75 339 134.25 C 338.8 134.55 338.6 134.75 338.4 135.05 C 337.7 135.85 337.1 136.65 336.4 137.55 C 336.3 137.65 336.2 137.85 336 137.95 C 335.4 138.65 334.8 139.35 334.2 140.05 C 334 140.25 333.7 140.55 333.5 140.75 C 332.9 141.35 332.3 141.95 331.7 142.55 C 331.5 142.75 331.3 142.95 331.1 143.15 C 330.3 143.95 329.5 144.75 328.6 145.55 C 328.3 145.85 328 146.15 327.7 146.45 C 327.3 146.85 326.9 147.15 326.5 147.55 C 326.2 147.85 325.8 148.15 325.5 148.45 C 325.1 148.85 324.7 149.15 324.2 149.55 C 323.8 149.85 323.5 150.15 323.1 150.45 C 322.7 150.75 322.2 151.15 321.8 151.45 C 321.4 151.75 321 152.05 320.7 152.35 C 320.3 152.65 319.8 153.05 319.4 153.35 C 319 153.65 318.6 153.95 318.2 154.25 C 317.7 154.55 317.3 154.95 316.8 155.25 C 316.4 155.55 316 155.85 315.6 156.15 C 315.1 156.45 314.7 156.75 314.2 157.15 C 313.8 157.45 313.3 157.75 312.9 158.05 C 312.4 158.35 311.9 158.65 311.4 158.95 C 311 159.25 310.5 159.55 310.1 159.75 C 309.6 160.05 309.1 160.35 308.6 160.65 C 307.8 161.15 307 161.65 306.2 162.05 C 304.9 162.85 303.5 163.55 302.1 164.35 C 301.6 164.55 301.2 164.85 300.7 165.05 C 299.8 165.55 298.9 166.05 297.9 166.55 C 297.3 166.85 296.8 167.15 296.2 167.35 C 295.3 167.75 294.5 168.15 293.6 168.55 C 293 168.85 292.4 169.15 291.8 169.35 C 291 169.75 290.1 170.15 289.3 170.45 C 288.7 170.75 288 171.05 287.4 171.25 C 286.6 171.65 285.7 171.95 284.9 172.25 C 284.2 172.55 283.6 172.75 282.9 173.05 C 282.1 173.35 281.2 173.75 280.4 174.05 C 279.7 174.35 279 174.55 278.3 174.85 C 277.5 175.15 276.6 175.45 275.8 175.75 C 275.1 175.95 274.4 176.25 273.7 176.45 C 272.8 176.75 272 177.05 271.1 177.35 C 270.5 177.55 269.9 177.75 269.3 177.95 C 267.2 178.65 265 179.25 262.9 179.85 C 262.7 179.95 262.5 179.95 262.3 180.05 C 260.3 180.65 258.2 181.15 256.1 181.65 C 255.6 181.75 255.2 181.85 254.7 182.05 C 252.5 182.55 250.3 183.05 248.1 183.55 C 247.7 183.65 247.3 183.75 246.9 183.85 C 244.9 184.25 242.8 184.65 240.8 185.05 C 240.4 185.15 240 185.25 239.6 185.25 C 237.8 185.55 236 185.85 234.2 186.15 L 234.1 232.75 C 235.9 232.45 237.7 232.15 239.5 231.85 C 239.6 231.85 239.8 231.85 239.9 231.75 C 240.2 231.75 240.4 231.65 240.7 231.55 C 242.7 231.15 244.8 230.75 246.8 230.35 C 247.2 230.25 247.6 230.15 248 230.05 C 250.2 229.55 252.4 229.05 254.6 228.55 C 255.1 228.45 255.5 228.35 256 228.15 C 258.1 227.65 260.1 227.05 262.2 226.55 C 262.4 226.45 262.6 226.45 262.8 226.35 C 265 225.75 267.1 225.05 269.2 224.45 C 269.4 224.35 269.7 224.35 269.9 224.25 C 270.3 224.15 270.6 224.05 270.9 223.85 C 271.8 223.55 272.6 223.25 273.5 222.95 C 274.2 222.75 274.9 222.45 275.6 222.25 C 276.4 221.95 277.3 221.65 278.1 221.35 C 278.8 221.05 279.5 220.85 280.2 220.55 C 281 220.25 281.9 219.95 282.7 219.55 C 283.4 219.25 284.1 219.05 284.7 218.75 C 285.5 218.45 286.4 218.05 287.2 217.75 C 287.9 217.45 288.5 217.15 289.2 216.95 C 290 216.55 290.9 216.15 291.7 215.85 C 292.3 215.55 292.9 215.25 293.5 215.05 C 294.4 214.65 295.2 214.25 296.1 213.85 C 296.7 213.55 297.2 213.35 297.8 213.05 C 298.7 212.55 299.7 212.05 300.6 211.55 C 301.1 211.35 301.5 211.05 302 210.85 C 303.4 210.15 304.7 209.35 306.1 208.55 C 306.8 208.15 307.4 207.75 308.1 207.35 C 308.2 207.25 308.4 207.15 308.5 207.05 C 309 206.75 309.5 206.45 310 206.15 C 310.4 205.85 310.9 205.55 311.3 205.35 C 311.8 205.05 312.3 204.75 312.8 204.45 C 313.2 204.15 313.7 203.85 314.1 203.55 C 314.6 203.25 315 202.95 315.5 202.55 C 315.9 202.25 316.3 201.95 316.8 201.65 C 317.3 201.35 317.7 200.95 318.2 200.65 C 318.6 200.35 319 200.05 319.4 199.75 C 319.9 199.45 320.3 199.05 320.7 198.75 C 321.1 198.45 321.5 198.15 321.8 197.85 C 322.2 197.55 322.7 197.15 323.1 196.85 C 323.5 196.55 323.8 196.25 324.2 195.95 C 324.6 195.55 325 195.25 325.5 194.85 C 325.8 194.55 326.2 194.25 326.5 193.95 C 326.9 193.55 327.3 193.25 327.7 192.85 C 328 192.55 328.3 192.35 328.6 192.05 C 328.6 192.05 328.7 191.95 328.7 191.95 C 329.5 191.15 330.4 190.35 331.2 189.55 C 331.4 189.35 331.6 189.15 331.8 188.95 C 332.4 188.35 333 187.75 333.6 187.15 C 333.8 186.95 334.1 186.65 334.3 186.45 C 334.9 185.75 335.5 185.05 336.1 184.35 C 336.2 184.25 336.3 184.05 336.5 183.95 C 337.2 183.15 337.9 182.35 338.5 181.45 C 338.6 181.35 338.6 181.35 338.7 181.25 C 338.9 181.05 339 180.85 339.2 180.65 C 339.6 180.15 339.9 179.75 340.3 179.25 C 340.5 178.95 340.7 178.65 341 178.35 C 341.3 177.85 341.7 177.45 342 176.95 C 342.2 176.65 342.4 176.35 342.6 176.05 C 342.9 175.55 343.2 175.15 343.5 174.65 C 343.7 174.35 343.9 174.05 344.1 173.75 C 344.4 173.25 344.7 172.75 345 172.25 C 345.1 172.05 345.2 171.85 345.4 171.65 C 345.4 171.55 345.5 171.55 345.5 171.45 C 345.8 170.95 346 170.55 346.2 170.05 C 346.4 169.75 346.5 169.45 346.7 169.15 C 347 168.65 347.2 168.15 347.5 167.55 C 347.6 167.35 347.7 167.15 347.8 166.85 C 348.1 166.15 348.5 165.35 348.8 164.65 C 348.9 164.55 348.9 164.45 348.9 164.25 C 349.2 163.65 349.4 162.95 349.7 162.35 C 349.7 162.35 349.7 162.35 349.7 162.25 C 349.8 161.95 349.9 161.65 350 161.45 C 350.2 161.05 350.3 160.55 350.5 160.15 C 350.6 159.85 350.7 159.55 350.8 159.15 C 350.9 158.75 351.1 158.35 351.2 157.85 C 351.3 157.55 351.4 157.15 351.5 156.85 C 351.6 156.45 351.7 156.05 351.8 155.65 C 351.9 155.35 352 154.95 352 154.65 C 352.1 154.25 352.2 153.85 352.3 153.45 C 352.3 153.35 352.3 153.35 352.3 153.25 C 352.4 152.95 352.4 152.75 352.4 152.45 C 352.5 152.05 352.6 151.65 352.6 151.25 C 352.7 150.95 352.7 150.55 352.8 150.25 C 352.9 149.85 352.9 149.45 353 149.05 C 353 148.65 353.1 148.35 353.1 147.95 C 353.1 147.55 353.2 147.15 353.2 146.75 C 353.2 146.35 353.2 146.05 353.3 145.65 C 353.3 145.25 353.3 144.85 353.4 144.45 C 353.4 144.35 353.4 144.15 353.4 144.05 C 353.4 143.55 353.4 143.05 353.4 142.65 L 353.5 96.05 C 353.3 96.85 353.3 97.45 353.3 98.05 Z "/>
                        <g id="Group">
                            <path fill="rgb(11,177,211)" d=" M 308.7 31.35 C 368.9 68.05 368.2 126.05 306.3 162.05 C 285.6 174.05 260.7 182.15 234.3 186.25 L 196.5 96.55 L 308.7 31.35 Z "/>
                        </g>
                        <g id="Group">
                            <path fill="rgb(11,117,211)" d=" M 234.2 186.25 L 234.1 232.85 L 196.3 143.15 L 196.5 96.55 L 234.2 186.25 Z "/>
                        </g>
                    </g>
                    <g id="Group">
                        <path fill="rgb(11,117,211)" d=" M 224.2 187.55 C 222.4 187.75 220.6 187.95 218.7 188.15 C 217.8 188.25 216.8 188.35 215.9 188.45 C 215.3 188.55 214.7 188.55 214.1 188.65 C 213 188.75 211.8 188.85 210.7 188.95 C 210.3 188.95 209.8 189.05 209.4 189.05 C 207.8 189.15 206.3 189.25 204.7 189.35 C 204.3 189.35 204 189.35 203.6 189.35 C 202.4 189.45 201.2 189.45 200 189.45 C 197.6 189.55 195.1 189.55 192.7 189.55 C 192.2 189.55 191.7 189.55 191.3 189.55 C 188.9 189.55 186.5 189.55 184.1 189.45 C 183.7 189.45 183.3 189.45 182.9 189.45 C 180.7 189.35 178.6 189.35 176.4 189.15 C 176.1 189.15 175.8 189.15 175.5 189.15 C 173.2 189.05 170.9 188.85 168.5 188.65 C 168 188.65 167.5 188.55 167 188.55 C 164.7 188.35 162.4 188.15 160.1 187.85 C 159.9 187.85 159.6 187.75 159.4 187.75 C 157.2 187.55 155.1 187.25 152.9 186.95 C 152.5 186.85 152 186.85 151.6 186.75 C 149.3 186.45 146.9 186.05 144.6 185.65 C 144.1 185.55 143.7 185.45 143.2 185.45 C 140.8 185.05 138.5 184.55 136.1 184.15 C 134.6 183.85 133.1 183.55 131.6 183.15 C 131.4 183.15 131.2 183.05 130.9 182.95 C 129.6 182.65 128.4 182.35 127.1 182.05 C 126.6 181.95 126.1 181.75 125.6 181.65 C 124.6 181.45 123.7 181.15 122.7 180.95 C 122.1 180.75 121.5 180.65 120.9 180.45 C 120.1 180.25 119.2 179.95 118.4 179.75 C 117.4 179.45 116.4 179.15 115.4 178.85 C 114.8 178.65 114.2 178.55 113.7 178.35 C 112.5 177.95 111.3 177.55 110.1 177.15 C 109.7 177.05 109.4 176.95 109 176.75 C 107.5 176.25 105.9 175.65 104.4 175.15 C 104 175.05 103.6 174.85 103.2 174.65 C 102.1 174.25 101 173.85 99.9 173.35 C 99.5 173.25 99.2 173.05 98.8 172.95 C 97.3 172.35 95.7 171.75 94.2 171.05 C 93.7 170.85 93.3 170.65 92.8 170.45 C 91 169.65 89.3 168.85 87.5 168.05 C 87.3 167.95 87.1 167.85 86.9 167.75 C 85.4 167.05 83.8 166.25 82.3 165.45 C 81.9 165.25 81.4 164.95 81 164.75 C 79.3 163.85 77.6 162.95 76 162.05 C 44.1 143.65 28.1 119.45 28.2 95.25 L 28.1 141.85 C 28 166.05 44 190.15 75.9 208.65 C 77.5 209.55 79.2 210.55 80.9 211.35 C 81.3 211.55 81.8 211.85 82.2 212.05 C 83.7 212.85 85.2 213.65 86.8 214.35 C 87 214.45 87.2 214.55 87.4 214.65 C 89.1 215.45 90.9 216.25 92.7 217.05 C 93.2 217.25 93.6 217.45 94.1 217.65 C 95.6 218.25 97.1 218.95 98.7 219.55 C 98.9 219.65 99.2 219.75 99.4 219.85 C 99.5 219.85 99.6 219.95 99.7 219.95 C 100.8 220.35 101.9 220.85 103 221.25 C 103.4 221.35 103.8 221.55 104.2 221.75 C 105.7 222.35 107.3 222.85 108.8 223.35 C 109.2 223.45 109.5 223.55 109.9 223.75 C 111.1 224.15 112.3 224.55 113.5 224.95 C 114.1 225.15 114.7 225.25 115.2 225.45 C 116.2 225.75 117.2 226.05 118.2 226.35 C 118.4 226.45 118.6 226.45 118.8 226.55 C 119.5 226.75 120.1 226.95 120.8 227.05 C 121.4 227.25 122 227.35 122.6 227.55 C 123.6 227.85 124.5 228.05 125.5 228.25 C 126 228.35 126.5 228.55 127 228.65 C 128.3 228.95 129.5 229.25 130.8 229.55 C 131 229.65 131.2 229.65 131.5 229.75 C 132.9 230.05 134.4 230.35 135.8 230.65 C 135.8 230.65 135.9 230.65 135.9 230.65 C 138.2 231.15 140.6 231.55 143 231.95 C 143.5 232.05 143.9 232.15 144.4 232.15 C 146.7 232.55 149 232.95 151.4 233.25 C 151.6 233.25 151.7 233.35 151.9 233.35 C 152.2 233.35 152.5 233.45 152.7 233.45 C 154.9 233.75 157 234.05 159.2 234.25 C 159.4 234.25 159.7 234.35 159.9 234.35 C 162.2 234.65 164.5 234.85 166.8 235.05 C 167.1 235.05 167.3 235.15 167.6 235.15 C 167.8 235.15 168.1 235.15 168.3 235.25 C 170.6 235.45 172.9 235.55 175.3 235.75 C 175.6 235.75 175.9 235.75 176.2 235.75 C 178.4 235.85 180.5 235.95 182.7 236.05 C 183 236.05 183.2 236.05 183.5 236.05 C 183.6 236.05 183.8 236.05 183.9 236.05 C 186.3 236.15 188.7 236.15 191.1 236.15 C 191.6 236.15 192.1 236.15 192.5 236.15 C 194.9 236.15 197.4 236.05 199.8 236.05 C 199.9 236.05 199.9 236.05 200 236.05 C 201.1 236.05 202.2 235.95 203.4 235.95 C 203.8 235.95 204.1 235.95 204.5 235.95 C 206.1 235.85 207.6 235.75 209.2 235.65 C 209.6 235.65 210.1 235.55 210.5 235.55 C 211.6 235.45 212.8 235.35 213.9 235.25 C 214.5 235.15 215.1 235.15 215.7 235.05 C 216.5 234.95 217.3 234.95 218 234.85 C 218.2 234.85 218.3 234.85 218.5 234.75 C 220.3 234.55 222.2 234.35 224 234.15 L 224.2 187.55 Z "/>
                        <g id="Group">
                            <path fill="rgb(11,146,211)" d=" M 186.1 97.15 L 224.2 187.55 C 172.5 193.85 116.4 185.35 76.1 162.15 C 13.8 126.15 12.4 68.15 72.2 31.45 L 186.1 97.15 Z "/>
                        </g>
                    </g>
                </g>
            </g>
        </g>
    </g>
</svg>
