<?xml version="1.0" encoding="iso-8859-1"?>
<!-- Generator: Adobe Illustrator 22.1.0, SVG Export Plug-In . SVG Version: 6.00 Build 0)  -->
<svg xmlns="http://www.w3.org/2000/svg" xmlns:xlink="http://www.w3.org/1999/xlink" version="1.1" id="Layer_1_1_" x="0px" y="0px" viewBox="0 0 64 64" style="fill:url(#grad1); enable-background:new 0 0 64 64;" xml:space="preserve" width="512" height="512">
<defs>
		<linearGradient id="grad1" x1="0%" y1="0%" x2="100%" y2="0%">
      <stop offset="0%" style="stop-color:rgb(11,177,211);stop-opacity:1" />
      <stop offset="100%" style="stop-color:rgb(11,117,211);stop-opacity:1" />
    </linearGradient>
		</defs>
<g>
	<rect x="60" y="60" width="2" height="2"/>
	<rect x="2" y="60" width="2" height="2"/>
	<path d="M46.945,16H42c-4.625,0-8.446,3.506-8.945,8h4.709c1.459-3.719,4.88-6.457,8.987-6.924   C46.835,16.721,46.905,16.364,46.945,16z"/>
	<path d="M39,28c0,4.963,4.038,9,9,9s9-4.037,9-9c0-4.962-4.038-9-9-9S39,23.038,39,28z M51,26h-2c0-0.551-0.449-1-1-1s-1,0.449-1,1   s0.449,1,1,1c1.654,0,3,1.346,3,3c0,1.302-0.839,2.402-2,2.816V35h-2v-2.184c-1.161-0.414-2-1.514-2-2.816h2c0,0.551,0.449,1,1,1   s1-0.449,1-1s-0.449-1-1-1c-1.654,0-3-1.346-3-3c0-1.302,0.839-2.402,2-2.816V21h2v2.184C50.161,23.598,51,24.698,51,26z"/>
	<path d="M22,20h-4.946c0.159,1.449,0.681,2.815,1.503,4.028c3.181,0.16,6.014,1.665,7.922,3.972h4.466   C30.446,23.506,26.625,20,22,20z"/>
	<path d="M18,26c-4.962,0-9,4.038-9,9c0,4.963,4.038,9,9,9s9-4.037,9-9C27,30.038,22.962,26,18,26z M18,34c1.654,0,3,1.346,3,3   c0,1.302-0.839,2.402-2,2.816V42h-2v-2.184c-1.161-0.414-2-1.514-2-2.816h2c0,0.552,0.449,1,1,1s1-0.448,1-1s-0.449-1-1-1   c-1.654,0-3-1.346-3-3c0-1.302,0.839-2.402,2-2.816V28h2v2.184c1.161,0.414,2,1.514,2,2.816h-2c0-0.552-0.449-1-1-1s-1,0.448-1,1   S17.449,34,18,34z"/>
	<path d="M56,56c0-2.761-2.239-5-5-5c-0.724,0-1.407,0.161-2.028,0.438C48.688,48.388,46.124,46,43,46   c-1.899,0-3.591,0.882-4.691,2.259L38.3,48.27C37.418,47.489,36.271,47,35,47c-0.714,0-1.388,0.156-2,0.427V18c0-2.206,1.794-4,4-4   h6c4.962,0,9-4.038,9-9V2h-7c-4.962,0-9,4.038-9,9v1.083c-2.124,0.358-3.872,1.836-4.615,3.803C30.503,14.918,29.331,14.224,28,14   c-3.866,0-7-3.134-7-7c0-0.933,0.186-1.821,0.517-2.635C20.717,4.131,19.874,4,19,4h-7v3c0,0.703,0.089,1.385,0.243,2.042   C12.492,9.016,12.744,9,13,9c3.846,0,6.965,3.102,6.997,6.941C20.327,15.977,20.661,16,21,16h6c2.206,0,4,1.794,4,4v29.054   c-0.072,0.097-0.155,0.184-0.22,0.287l-0.006-0.005C29.743,48.5,28.43,48,27,48c-0.9,0-1.751,0.204-2.517,0.559   c0,0,0-0.001,0-0.001C23.547,46.461,21.444,45,19,45c-3.314,0-6,2.686-6,6c-2.761,0-5,2.239-5,5c0,1.643,0.804,3.089,2.027,4H6v2   h52v-2h-4.027C55.196,59.089,56,57.643,56,56z"/>
	<circle cx="13" cy="16" r="5"/>
	<circle cx="28" cy="7" r="5"/>
</g>
</svg>
