<svg height="512pt" viewBox="0 0 512 512" width="512pt" xmlns="http://www.w3.org/2000/svg"><path d="m494.34375 0h-476.6875c-9.738281.0273438-17.6289062 7.917969-17.65625 17.65625v476.6875c.0273438 9.738281 7.917969 17.628906 17.65625 17.65625h476.6875c9.738281-.027344 17.628906-7.917969 17.65625-17.65625v-476.6875c-.027344-9.738281-7.917969-17.6289062-17.65625-17.65625zm0 0" fill="#b0d3f0"/><path d="m17.65625 0h476.6875c9.75 0 17.65625 7.90625 17.65625 17.65625v52.964844h-512v-52.964844c0-9.75 7.90625-17.65625 17.65625-17.65625zm0 0" fill="#285680"/><path d="m44.136719 35.308594c0 4.878906-3.949219 8.828125-8.828125 8.828125-4.875 0-8.824219-3.949219-8.824219-8.828125 0-4.875 3.949219-8.824219 8.824219-8.824219 4.878906 0 8.828125 3.949219 8.828125 8.824219zm0 0" fill="#f0c419"/><path d="m79.449219 35.308594c0 4.878906-3.953125 8.828125-8.828125 8.828125s-8.828125-3.949219-8.828125-8.828125c0-4.875 3.953125-8.824219 8.828125-8.824219s8.828125 3.949219 8.828125 8.824219zm0 0" fill="#ff5364"/><path d="m114.757812 35.308594c0 4.878906-3.953124 8.828125-8.828124 8.828125s-8.828126-3.949219-8.828126-8.828125c0-4.875 3.953126-8.824219 8.828126-8.824219s8.828124 3.949219 8.828124 8.824219zm0 0" fill="#46b29d"/><path d="m44.136719 291.308594c-4.875 0-8.828125-3.949219-8.828125-8.824219v-150.070313c0-4.875 3.953125-8.828124 8.828125-8.828124s8.828125 3.953124 8.828125 8.828124v150.070313c0 4.875-3.953125 8.824219-8.828125 8.824219zm0 0" fill="#3d324c"/><path d="m158.898438 256c-3.683594.003906-6.976563-2.277344-8.273438-5.71875l-18.210938-48.589844-18.210937 48.554688c-1.289063 3.453125-4.585937 5.742187-8.273437 5.742187-3.683594 0-6.984376-2.289062-8.269532-5.742187l-26.484375-70.621094c-1.101562-2.957031-.546875-6.277344 1.460938-8.710938 2.007812-2.433593 5.160156-3.609374 8.273437-3.089843 3.109375.523437 5.707032 2.664062 6.808594 5.621093l18.210938 48.585938 18.210937-48.550781c1.289063-3.453125 4.585937-5.746094 8.273437-5.746094s6.984376 2.292969 8.269532 5.746094l18.214844 48.550781 18.210937-48.550781c1.703125-4.570313 6.792969-6.890625 11.359375-5.183594 4.570312 1.707031 6.886719 6.792969 5.183594 11.363281l-26.484375 70.621094c-1.296875 3.441406-4.589844 5.722656-8.269531 5.71875zm0 0" fill="#894b9d"/><path d="m300.136719 256c-3.679688.003906-6.976563-2.277344-8.269531-5.71875l-18.210938-48.589844-18.210938 48.554688c-1.289062 3.453125-4.585937 5.742187-8.273437 5.742187-3.683594 0-6.984375-2.289062-8.269531-5.742187l-26.484375-70.621094c-1.707031-4.570312.613281-9.65625 5.183593-11.363281 4.566407-1.707031 9.652344.613281 11.359376 5.183593l18.210937 48.585938 18.210937-48.550781c1.289063-3.453125 4.585938-5.746094 8.273438-5.746094 3.683594 0 6.984375 2.292969 8.269531 5.746094l18.210938 48.550781 18.210937-48.550781c1.707032-4.570313 6.792969-6.890625 11.363282-5.183594 4.566406 1.707031 6.886718 6.792969 5.179687 11.363281l-26.480469 70.621094c-1.296875 3.441406-4.59375 5.722656-8.273437 5.71875zm0 0" fill="#894b9d"/><path d="m441.378906 256c-3.679687.003906-6.976562-2.277344-8.269531-5.71875l-18.210937-48.589844-18.214844 48.554688c-1.285156 3.453125-4.582032 5.742187-8.269532 5.742187s-6.984374-2.289062-8.273437-5.742187l-26.480469-70.621094c-1.707031-4.570312.613282-9.65625 5.179688-11.363281 4.570312-1.707031 9.65625.613281 11.363281 5.183593l18.210937 48.585938 18.210938-48.550781c1.289062-3.453125 4.585938-5.746094 8.273438-5.746094 3.683593 0 6.980468 2.292969 8.269531 5.746094l18.210937 48.550781 18.210938-48.550781c1.707031-4.570313 6.792968-6.890625 11.363281-5.183594 4.566406 1.707031 6.886719 6.792969 5.179687 11.363281l-26.480468 70.621094c-1.296875 3.441406-4.59375 5.722656-8.273438 5.71875zm0 0" fill="#894b9d"/><path d="m97.101562 441.378906c0-87.753906 71.140626-158.894531 158.898438-158.894531s158.898438 71.140625 158.898438 158.894531zm0 0" fill="#fff"/><path d="m429.019531 361.929688c-3.320312.007812-6.363281-1.851563-7.875-4.808594-6.132812-12.011719-13.5625-23.3125-22.15625-33.703125-2.007812-2.433594-2.566406-5.75-1.464843-8.707031 1.101562-2.957032 3.695312-5.101563 6.804687-5.625 3.109375-.523438 6.265625.652343 8.273437 3.085937 9.40625 11.386719 17.546876 23.765625 24.277344 36.914063 1.394532 2.738281 1.269532 6.003906-.332031 8.625-1.601563 2.621093-4.453125 4.21875-7.527344 4.21875zm0 0" fill="#e64c3c"/><path d="m105.929688 326.929688c-3.414063 0-6.519532-1.972657-7.976563-5.058594-1.457031-3.085938-1.003906-6.738282 1.164063-9.375 5.710937-6.941406 11.871093-13.503906 18.441406-19.640625 3.566406-3.332031 9.15625-3.136719 12.484375.429687 3.332031 3.566406 3.140625 9.15625-.425781 12.484375-6.015626 5.601563-11.652344 11.59375-16.871094 17.9375-1.671875 2.046875-4.175782 3.230469-6.816406 3.222657zm0 0" fill="#24ae5f"/><path d="m66.84375 406.070312c-.675781 0-1.347656-.074218-2.003906-.230468-4.75-1.101563-7.707032-5.84375-6.605469-10.59375 3.726563-16.011719 9.390625-31.511719 16.871094-46.148438 2.21875-4.347656 7.539062-6.070312 11.882812-3.851562s6.066407 7.539062 3.847657 11.882812c-6.832032 13.359375-12.007813 27.507813-15.402344 42.125-.9375 3.988282-4.492188 6.8125-8.589844 6.816406zm0 0" fill="#24ae5f"/><path d="m247.171875 450.207031c-4.238281.007813-7.882813-2.996093-8.683594-7.15625-.804687-4.160156 1.464844-8.304687 5.398438-9.871093l88.277343-35.3125c4.53125-1.8125 9.671876.390624 11.484376 4.917968s-.386719 9.671875-4.917969 11.484375l-88.273438 35.3125c-1.046875.414063-2.160156.628907-3.285156.625zm0 0" fill="#e64c3c"/><g fill="#f0c419"><path d="m264.828125 317.792969c0 4.875-3.953125 8.828125-8.828125 8.828125s-8.828125-3.953125-8.828125-8.828125 3.953125-8.828125 8.828125-8.828125 8.828125 3.953125 8.828125 8.828125zm0 0"/><path d="m317.792969 335.449219c0 4.875-3.953125 8.828125-8.828125 8.828125s-8.828125-3.953125-8.828125-8.828125 3.953125-8.828125 8.828125-8.828125 8.828125 3.953125 8.828125 8.828125zm0 0"/><path d="m353.101562 370.757812c0 4.875-3.949218 8.828126-8.824218 8.828126s-8.828125-3.953126-8.828125-8.828126 3.953125-8.828124 8.828125-8.828124 8.824218 3.953124 8.824218 8.828124zm0 0"/><path d="m379.585938 406.070312c0 4.875-3.953126 8.828126-8.828126 8.828126s-8.828124-3.953126-8.828124-8.828126 3.953124-8.828124 8.828124-8.828124 8.828126 3.953124 8.828126 8.828124zm0 0"/><path d="m211.863281 335.449219c0 4.875-3.953125 8.828125-8.828125 8.828125s-8.828125-3.953125-8.828125-8.828125 3.953125-8.828125 8.828125-8.828125 8.828125 3.953125 8.828125 8.828125zm0 0"/><path d="m176.550781 370.757812c0 4.875-3.953125 8.828126-8.828125 8.828126s-8.824218-3.953126-8.824218-8.828126 3.949218-8.828124 8.824218-8.828124 8.828125 3.953124 8.828125 8.828124zm0 0"/><path d="m150.070312 406.070312c0 4.875-3.953124 8.828126-8.828124 8.828126s-8.828126-3.953126-8.828126-8.828126 3.953126-8.828124 8.828126-8.828124 8.828124 3.953124 8.828124 8.828124zm0 0"/></g><path d="m0 441.378906h512v52.964844c0 9.75-7.90625 17.65625-17.65625 17.65625h-476.6875c-9.75 0-17.65625-7.90625-17.65625-17.65625zm0 0" fill="#285680"/></svg>