<svg height="496pt" viewBox="0 0 496 496" width="496pt" xmlns="http://www.w3.org/2000/svg" xmlns:xlink="http://www.w3.org/1999/xlink"><linearGradient id="a" gradientUnits="userSpaceOnUse" x1="248" x2="248" y1="496" y2="0"><stop offset="0" stop-color="#9f2fff"/><stop offset="1" stop-color="#0bb1d3"/></linearGradient><path d="m48 448h16v16h-16zm32 16h16v-16h-16zm32 0h16v-16h-16zm272 0h64v-16h-64zm96-48h16v40c0 22.054688-17.945312 40-40 40h-416c-22.054688 0-40-17.945312-40-40v-40h16v-264c0-22.054688 17.945312-40 40-40h136c0-61.761719 50.238281-112 112-112s112 50.238281 112 112h24c22.054688 0 40 17.945312 40 40zm-65.28125-288c-.78125 5.464844-1.886719 10.816406-3.4375 16h20.71875c8.824219 0 16 7.175781 16 16v256h16v-264c0-13.230469-10.769531-24-24-24zm-206.71875-16c0 52.9375 43.0625 96 96 96 7.808594 0 15.359375-1.039062 22.632812-2.808594l-29.074218-87.207031-84.910156-35.382813c-2.992188 9.269532-4.648438 19.140626-4.648438 29.398438zm192 0c0-23.59375-8.59375-45.191406-22.761719-61.929688l-64.078125 64.082032 28.679688 86.039062c34.160156-14.703125 58.160156-48.6875 58.160156-88.191406zm-181.152344-44.144531 83.289063 34.703125 63.792969-63.789063c-16.738282-14.175781-38.335938-22.769531-61.929688-22.769531-37.015625 0-69.144531 21.089844-85.152344 51.855469zm-186.847656 348.144531h16v-256c0-8.824219 7.175781-16 16-16h132.71875c-1.542969-5.183594-2.65625-10.535156-3.4375-16h-137.28125c-13.230469 0-24 10.769531-24 24zm448 16h-48v-272h-26.960938c-18.023437 37.777344-56.472656 64-101.039062 64s-83.015625-26.222656-101.039062-64h-138.960938v256h123.3125l2.34375 2.34375c8.808594 8.808594 20.511719 13.65625 32.976562 13.65625h50.742188c12.457031 0 24.167969-4.847656 32.976562-13.65625l2.335938-2.34375h107.3125v16h-100.816406c-11.503906 10.34375-26.222656 16-41.816406 16h-50.742188c-15.59375 0-30.3125-5.65625-41.816406-16h-164.808594v24c0 13.230469 10.769531 24 24 24h416c13.230469 0 24-10.769531 24-24zm-64-72c0 13.230469-10.769531 24-24 24s-24-10.769531-24-24c0-2.488281.488281-4.847656 1.191406-7.105469l-27.910156-20.925781c-3.800781 2.535156-8.371094 4.03125-13.28125 4.03125-4.640625 0-8.9375-1.382812-12.609375-3.671875l-44.804687 35.847656c.855468 2.464844 1.414062 5.070313 1.414062 7.824219 0 13.230469-10.769531 24-24 24s-24-10.769531-24-24c0-2.023438.328125-3.96875.808594-5.847656l-34.496094-23c-4.007812 3.007812-8.929688 4.847656-14.3125 4.847656s-10.304688-1.839844-14.3125-4.847656l-34.496094 23c.480469 1.878906.808594 3.816406.808594 5.847656 0 13.230469-10.769531 24-24 24s-24-10.769531-24-24 10.769531-24 24-24c5.382812 0 10.304688 1.839844 14.3125 4.847656l34.496094-23c-.480469-1.878906-.808594-3.816406-.808594-5.847656 0-13.230469 10.769531-24 24-24s24 10.769531 24 24c0 2.03125-.328125 3.96875-.808594 5.847656l34.496094 23c4.007812-3 8.929688-4.847656 14.3125-4.847656 4.640625 0 8.9375 1.382812 12.609375 3.671875l44.804687-35.847656c-.855468-2.464844-1.414062-5.070313-1.414062-7.824219 0-13.230469 10.769531-24 24-24s24 10.769531 24 24c0 2.488281-.488281 4.847656-1.191406 7.105469l27.910156 20.925781c3.800781-2.535156 8.371094-4.03125 13.28125-4.03125 13.230469 0 24 10.769531 24 24zm-304 16c0-4.40625-3.59375-8-8-8s-8 3.59375-8 8 3.59375 8 8 8 8-3.59375 8-8zm72-48c0-4.40625-3.59375-8-8-8s-8 3.59375-8 8 3.59375 8 8 8 8-3.59375 8-8zm72 48c0-4.40625-3.59375-8-8-8s-8 3.59375-8 8 3.59375 8 8 8 8-3.59375 8-8zm80-64c0-4.40625-3.59375-8-8-8s-8 3.59375-8 8 3.59375 8 8 8 8-3.59375 8-8zm64 48c0-4.40625-3.59375-8-8-8s-8 3.59375-8 8 3.59375 8 8 8 8-3.59375 8-8zm-192-72h-128v-112h128zm-16-96h-96v80h96zm-16 16h-64v16h64zm0 32h-64v16h64zm64 16h-16v16h16zm176 0h-160v16h160zm0 0" fill="url(#a)"/></svg>