<svg xmlns="http://www.w3.org/2000/svg" width="231px" height="26px" viewBox="0 0 231 26">
  <g fill="none" fill-rule="evenodd">
    <path fill="#004683" d="M51.1995 1.825c-1.4228.552-2.5232 1.3214-3.3025 2.31-.778.9908-1.1684 2.134-1.1684 3.4266 0 2.5984 1.5632 4.6413 4.685 6.1286.9612.4576 2.195.9363 3.7077 1.426 1.5114.4944 2.5692.9687 3.169 1.4296.603.4598.9013 1.1.9013 1.9248 0 .727-.2786 1.2914-.8357 1.6922-.558.4008-1.315.6023-2.277.6023-1.499 0-2.585-.297-3.252-.89-.669-.593-1.002-1.516-1.002-2.766H46c0 1.54.4006 2.9 1.1994 4.083.8 1.181 1.9926 2.112 3.5777 2.79 1.582.68 3.351 1.02 5.304 1.02 2.77 0 4.95-.581 6.538-1.747C64.208 22.086 65 20.481 65 18.439c0-2.555-1.3-4.562-3.905-6.015-1.0693-.599-2.437-1.159-4.105-1.6766-1.6632-.52-2.828-1.0207-3.4912-1.5084-.663-.4865-.9922-1.0297-.9922-1.6298 0-.6835.3005-1.248.9014-1.691.602-.4443 1.4204-.667 2.4586-.667 1.0258 0 1.8408.2628 2.4416.787.5998.5245.9026 1.2615.9026 2.2134H65c0-1.4208-.3787-2.6888-1.1407-3.794-.761-1.107-1.829-1.9596-3.2024-2.5586C59.281 1.2994 57.729 1 55.997 1c-1.775 0-3.375.275-4.7978.825M72 1v24h15.969v-4.4518H77.5884V14.813h8.7895v-4.2848h-8.79V5.4667H88V1m7 0v24h5.6817v-8.4884h3.0726L107.9153 25H114v-.2482l-4.9185-9.6906c1.4125-.6806 2.449-1.5682 3.1132-2.6663.663-1.099.995-2.483.995-4.15 0-2.306-.788-4.09-2.3626-5.352C109.252 1.631 107.068 1 104.275 1H95zm5.6817 4.4507h3.5926c1.067 0 1.8763.2928 2.4267.8842.5515.589.826 1.402.826 2.437s-.2712 1.841-.8182 2.419c-.5447.58-1.3562.869-2.4345.869h-3.5926V5.45zM120 1v24h5.818v-8.144h3.7172c2.9366 0 5.2495-.7002 6.9363-2.1002C138.156 13.3558 139 11.4833 139 9.143c0-1.583-.3886-2.998-1.1703-4.2448-.7794-1.248-1.8782-2.2088-3.2975-2.8836C133.1106 1.3374 131.4768 1 129.632 1H120zm5.818 4.4667h3.881c1.049.0114 1.878.3523 2.4857 1.0214.6076.672.911 1.566.911 2.686 0 1.024-.294 1.815-.8856 2.376-.592.561-1.451.841-2.578.841h-3.814V5.467z"/>
    <path fill="#006EC2" d="M148.1957 1.825c-1.4226.552-2.522 1.3214-3.3 2.31-.7804.9908-1.1683 2.134-1.1683 3.4266 0 2.5984 1.5608 4.6413 4.6836 6.1286.96.4576 2.196.9363 3.7074 1.426 1.5113.4944 2.5668.9687 3.1688 1.4296.6008.4598.9024 1.1.9024 1.9248 0 .727-.2785 1.2914-.8356 1.6922-.5594.4008-1.3157.6023-2.2756.6023-1.501 0-2.583-.297-3.2528-.89-.6665-.593-1.0003-1.516-1.0003-2.766H143c0 1.54.4006 2.9 1.1994 4.083.801 1.181 1.9924 2.112 3.5762 2.79 1.5814.68 3.3494 1.02 5.3028 1.02 2.7694 0 4.9483-.581 6.5378-1.747C161.2058 22.086 162 20.481 162 18.439c0-2.555-1.303-4.5623-3.9054-6.015-1.0716-.599-2.4402-1.159-4.1046-1.6767-1.6667-.52-2.8315-1.0207-3.4922-1.5084-.662-.487-.9933-1.03-.9933-1.63 0-.684.2992-1.248.9012-1.691.6008-.445 1.4204-.667 2.4586-.667 1.0256 0 1.8382.263 2.4425.787.5985.524.9 1.261.9 2.213h5.791c0-1.421-.38-2.689-1.1408-3.794-.7608-1.107-1.829-1.96-3.2033-2.559S154.7267 1 152.9977 1c-1.7782 0-3.3793.275-4.802.825M166 1v4.4667h7.051V25h5.7676V5.4667H186V1m9.7594 0L187 25h6.1522l1.3783-4.4838h7.89L203.8158 25H210l-8.8267-24h-5.414zm2.7075 6.7246l2.576 8.325h-5.135l2.558-8.325zM211 1v4.4667h7.051V25h5.7676V5.4667H231V1"/>
    <path fill="#004683" d="M36.25 0H12.8828l.0012.0056c-.3986.0157-.7187.34-.7187.742 0 .213.0907.4028.234.5386l-.0034.0034 5.058 5.0248c.294.293.294.77.001 1.063l-8.323 8.275c-.214.2144-.162.5758.104.7195l1.035.561c.19.103.488.082.674-.029.257-.154.556-.244.877-.244.22 0 .428.045.621.122.108.044.232.03.319-.049l1.975-1.79c-.002-.037-.011-.073-.011-.111 0-.954.771-1.728 1.722-1.728.801 0 1.469.55 1.661 1.293l1.915.815c.059.024.124.014.178-.022.276-.193.61-.309.971-.309.171 0 .337.028.493.076.0583.019.121.005.1657-.037l3.308-3.231c.048-.046.0725-.115.0714-.181-.029-1.697 1.2213-1.8937 1.7127-1.91.746-.028 1.373.487 1.6046 1.162.0238.064.072.117.137.14l2.0955.718c.0795.028.1635.0057.226-.0493.3047-.276.7065-.4454 1.1487-.4454.157 0 .43.099.589-.074l4.158-4.248c.0723-.073.113-.172.113-.2766V.752C37 .3367 36.664 0 36.25 0"/>
    <path fill="#006EC2" d="M36.9876 10.2534c0-.2262-.2743-.3393-.4323-.1764l-2.6816 2.7377c-.0587.0588-.0813.1437-.0677.2263.0688.4502-.0226.9536-.6197 1.508-.3148.293-.7155.4944-1.1455.4842-.701-.0192-1.2912-.457-1.5485-1.0714-.027-.0644-.078-.1176-.1456-.1414l-2.2155-.7613c-.0768-.026-.159-.006-.2235.046-.298.242-.676.389-1.089.389-.1875 0-.3647-.037-.534-.093 0 0-2.528 2.452-3.4265 3.338-.1095.11-.1106.118-.0858.339 0 .962-.7765 1.741-1.737 1.741-.8114 0-1.4886-.559-1.6793-1.312-.02-.077-.07-.142-.143-.174l-1.645-.699c-.083-.037-.177-.019-.25.037-.291.223-.652.359-1.045.359-.187 0-.368-.03-.537-.087-.1-.033-.21-.016-.289.054l-2.002 1.814c-.068.061-.104.146-.114.237-.088.878-.824 1.564-1.724 1.564-.697 0-1.292-.414-1.568-1.009-.072-.156-.205-.274-.354-.356l-2.254-1.22c-.177-.096-.395-.063-.537.078L.223 24.71l-.0024.0023-.009.009.0024.001c-.131.136-.2133.319-.2133.523C0 25.6617.3363 26 .754 26H22.63c.4188 0 1.0045-.241 1.3025-.5362l.429-.4265.0123-.0125 5.134-5.0987c.297-.294.781-.294 1.078 0l5.1195 5.088c.1377.142.3273.231.5406.231.415 0 .754-.337.754-.753l-.013-14.237z"/>
  </g>
</svg>
