<?xml version="1.0" standalone="no"?>
<!--Generator: Gravit.io-->
<svg xmlns="http://www.w3.org/2000/svg" xmlns:xlink="http://www.w3.org/1999/xlink" width="366.6" height="376.5" style="isolation:isolate" viewBox="0 0 366.6 376.5">
    <defs>
        <clipPath id="_clipPath_0Ow3KAMhN6CzZL6IBukcw9BHRwHm5pS4">
            <rect width="366.6" height="376.5"/>
        </clipPath>
    </defs>
    <g clip-path="url(#_clipPath_0Ow3KAMhN6CzZL6IBukcw9BHRwHm5pS4)">
        <rect width="366.6" height="376.5" x="0" y="0" fill="rgb(255,255,255)" transform="matrix(1,0,0,1,0,0)"/>
        <g id="Group">
            <g id="Group">
                <g id="Group">
                    <g id="Group">
                        <g id="Group">
                            <g id="Group">
                                <path fill="rgb(11,146,211)" d=" M 159.2 186.6 L 79.9 232.7 L 0 186.6 L 79.4 140.5 L 159.2 186.6 Z "/>
                            </g>
                            <g id="Group">
                                <path fill="rgb(11,117,211)" d=" M 159.2 186.6 L 159.2 198.8 L 79.9 244.9 L 79.9 232.7 L 159.2 186.6 Z "/>
                            </g>
                            <g id="Group">
                                <path fill="rgb(8,83,148)" d=" M 79.9 232.7 L 79.9 244.9 L 0 198.8 L 0 186.6 L 79.9 232.7 Z "/>
                            </g>
                        </g>
                    </g>
                    <g id="Group">
                        <g id="Group">
                            <g id="Group">
                                <path fill="rgb(11,146,211)" d=" M 159.2 160.8 L 79.9 206.9 L 0 160.8 L 79.4 114.7 L 159.2 160.8 Z "/>
                            </g>
                            <g id="Group">
                                <path fill="rgb(11,117,211)" d=" M 159.2 160.8 L 159.2 173 L 79.9 219.1 L 79.9 206.9 L 159.2 160.8 Z "/>
                            </g>
                            <g id="Group">
                                <path fill="rgb(8,83,148)" d=" M 79.9 206.9 L 79.9 219.1 L 0 173 L 0 160.8 L 79.9 206.9 Z "/>
                            </g>
                        </g>
                    </g>
                    <g id="Group">
                        <g id="Group">
                            <g id="Group">
                                <path fill="rgb(11,146,211)" d=" M 159.2 135 L 79.9 181.1 L 0 135 L 79.4 88.9 L 159.2 135 Z "/>
                            </g>
                            <g id="Group">
                                <path fill="rgb(11,117,211)" d=" M 159.2 135 L 159.2 147.2 L 79.9 193.3 L 79.9 181.1 L 159.2 135 Z "/>
                            </g>
                            <g id="Group">
                                <path fill="rgb(8,83,148)" d=" M 79.9 181.1 L 79.9 193.3 L 0 147.2 L 0 135 L 79.9 181.1 Z "/>
                            </g>
                        </g>
                    </g>
                    <g id="Group">
                        <g id="Group">
                            <g id="Group">
                                <path fill="rgb(11,146,211)" d=" M 159.2 109.2 L 79.9 155.3 L 0 109.2 L 79.4 63.1 L 159.2 109.2 Z "/>
                            </g>
                            <g id="Group">
                                <path fill="rgb(11,117,211)" d=" M 159.2 109.2 L 159.2 121.4 L 79.9 167.6 L 79.9 155.3 L 159.2 109.2 Z "/>
                            </g>
                            <g id="Group">
                                <path fill="rgb(8,83,148)" d=" M 79.9 155.3 L 79.9 167.6 L 0 121.5 L 0 109.2 L 79.9 155.3 Z "/>
                            </g>
                        </g>
                    </g>
                    <g id="Group">
                        <g id="Group">
                            <g id="Group">
                                <path fill="rgb(11,146,211)" d=" M 159.2 83.4 L 79.9 129.5 L 0 83.4 L 79.4 37.3 L 159.2 83.4 Z "/>
                            </g>
                            <g id="Group">
                                <path fill="rgb(11,117,211)" d=" M 159.2 83.4 L 159.2 95.7 L 79.9 141.8 L 79.9 129.5 L 159.2 83.4 Z "/>
                            </g>
                            <g id="Group">
                                <path fill="rgb(8,83,148)" d=" M 79.9 129.5 L 79.9 141.8 L 0 95.7 L 0 83.4 L 79.9 129.5 Z "/>
                            </g>
                        </g>
                    </g>
                </g>
                <g id="Group">
                    <g id="Group">
                        <g id="Group">
                            <g id="Group">
                                <path fill="rgb(11,177,211)" d=" M 262.9 252.4 L 183.6 298.5 L 103.7 252.4 L 183.1 206.3 L 262.9 252.4 Z "/>
                            </g>
                            <g id="Group">
                                <path fill="rgb(11,146,211)" d=" M 262.9 252.4 L 262.9 264.6 L 183.6 310.7 L 183.6 298.5 L 262.9 252.4 Z "/>
                            </g>
                            <g id="Group">
                                <path fill="rgb(11,117,211)" d=" M 183.6 298.5 L 183.6 310.7 L 103.7 264.6 L 103.7 252.4 L 183.6 298.5 Z "/>
                            </g>
                        </g>
                    </g>
                    <g id="Group">
                        <g id="Group">
                            <g id="Group">
                                <path fill="rgb(11,177,211)" d=" M 262.9 226.6 L 183.6 272.7 L 103.7 226.6 L 183.1 180.5 L 262.9 226.6 Z "/>
                            </g>
                            <g id="Group">
                                <path fill="rgb(11,146,211)" d=" M 262.9 226.6 L 262.9 238.8 L 183.6 284.9 L 183.6 272.7 L 262.9 226.6 Z "/>
                            </g>
                            <g id="Group">
                                <path fill="rgb(11,117,211)" d=" M 183.6 272.7 L 183.6 284.9 L 103.7 238.8 L 103.7 226.6 L 183.6 272.7 Z "/>
                            </g>
                        </g>
                    </g>
                    <g id="Group">
                        <g id="Group">
                            <g id="Group">
                                <path fill="rgb(11,177,211)" d=" M 262.9 200.8 L 183.6 246.9 L 103.7 200.8 L 183.1 154.7 L 262.9 200.8 Z "/>
                            </g>
                            <g id="Group">
                                <path fill="rgb(11,146,211)" d=" M 262.9 200.8 L 262.9 213 L 183.6 259.1 L 183.6 246.9 L 262.9 200.8 Z "/>
                            </g>
                            <g id="Group">
                                <path fill="rgb(11,117,211)" d=" M 183.6 246.9 L 183.6 259.1 L 103.7 213 L 103.7 200.8 L 183.6 246.9 Z "/>
                            </g>
                        </g>
                    </g>
                    <g id="Group">
                        <g id="Group">
                            <g id="Group">
                                <path fill="rgb(11,177,211)" d=" M 262.9 175 L 183.6 221.1 L 103.7 175 L 183.1 128.9 L 262.9 175 Z "/>
                            </g>
                            <g id="Group">
                                <path fill="rgb(11,146,211)" d=" M 262.9 175 L 262.9 187.2 L 183.6 233.3 L 183.6 221.1 L 262.9 175 Z "/>
                            </g>
                            <g id="Group">
                                <path fill="rgb(11,117,211)" d=" M 183.6 221.1 L 183.6 233.3 L 103.7 187.2 L 103.7 175 L 183.6 221.1 Z "/>
                            </g>
                        </g>
                    </g>
                    <g id="Group">
                        <g id="Group">
                            <g id="Group">
                                <path fill="rgb(11,177,211)" d=" M 262.9 149.2 L 183.6 195.3 L 103.7 149.2 L 183.1 103.1 L 262.9 149.2 Z "/>
                            </g>
                            <g id="Group">
                                <path fill="rgb(11,146,211)" d=" M 262.9 149.2 L 262.9 161.4 L 183.6 207.6 L 183.6 195.3 L 262.9 149.2 Z "/>
                            </g>
                            <g id="Group">
                                <path fill="rgb(11,117,211)" d=" M 183.6 195.3 L 183.6 207.6 L 103.7 161.4 L 103.7 149.2 L 183.6 195.3 Z "/>
                            </g>
                        </g>
                    </g>
                    <g id="Group">
                        <g id="Group">
                            <g id="Group">
                                <path fill="rgb(11,177,211)" d=" M 262.9 123.4 L 183.6 169.5 L 103.7 123.4 L 183.1 77.3 L 262.9 123.4 Z "/>
                            </g>
                            <g id="Group">
                                <path fill="rgb(11,146,211)" d=" M 262.9 123.4 L 262.9 135.7 L 183.6 181.8 L 183.6 169.5 L 262.9 123.4 Z "/>
                            </g>
                            <g id="Group">
                                <path fill="rgb(11,117,211)" d=" M 183.6 169.5 L 183.6 181.8 L 103.7 135.7 L 103.7 123.4 L 183.6 169.5 Z "/>
                            </g>
                        </g>
                    </g>
                    <g id="Group">
                        <g id="Group">
                            <g id="Group">
                                <path fill="rgb(11,177,211)" d=" M 262.9 97.6 L 183.6 143.8 L 103.7 97.6 L 183.1 51.5 L 262.9 97.6 Z "/>
                            </g>
                            <g id="Group">
                                <path fill="rgb(11,146,211)" d=" M 262.9 97.6 L 262.9 109.9 L 183.6 156 L 183.6 143.8 L 262.9 97.6 Z "/>
                            </g>
                            <g id="Group">
                                <path fill="rgb(11,117,211)" d=" M 183.6 143.8 L 183.6 156 L 103.7 109.9 L 103.7 97.6 L 183.6 143.8 Z "/>
                            </g>
                        </g>
                    </g>
                    <g id="Group">
                        <g id="Group">
                            <g id="Group">
                                <path fill="rgb(11,177,211)" d=" M 262.9 71.9 L 183.6 118 L 103.7 71.9 L 183.1 25.7 L 262.9 71.9 Z "/>
                            </g>
                            <g id="Group">
                                <path fill="rgb(11,146,211)" d=" M 262.9 71.9 L 262.9 84.1 L 183.6 130.2 L 183.6 118 L 262.9 71.9 Z "/>
                            </g>
                            <g id="Group">
                                <path fill="rgb(11,117,211)" d=" M 183.6 118 L 183.6 130.2 L 103.7 84.1 L 103.7 71.9 L 183.6 118 Z "/>
                            </g>
                        </g>
                    </g>
                    <g id="Group">
                        <g id="Group">
                            <g id="Group">
                                <path fill="rgb(11,177,211)" d=" M 262.9 46.1 L 183.6 92.2 L 103.7 46.1 L 183.1 0 L 262.9 46.1 Z "/>
                            </g>
                            <g id="Group">
                                <path fill="rgb(11,146,211)" d=" M 262.9 46.1 L 262.9 58.3 L 183.6 104.4 L 183.6 92.2 L 262.9 46.1 Z "/>
                            </g>
                            <g id="Group">
                                <path fill="rgb(11,117,211)" d=" M 183.6 92.2 L 183.6 104.4 L 103.7 58.3 L 103.7 46.1 L 183.6 92.2 Z "/>
                            </g>
                        </g>
                    </g>
                </g>
                <g id="Group">
                    <g id="Group">
                        <g id="Group">
                            <g id="Group">
                                <path fill="rgb(11,117,211)" d=" M 366.6 318.1 L 287.3 364.3 L 207.4 318.2 L 286.8 272 L 366.6 318.1 Z "/>
                            </g>
                            <g id="Group">
                                <path fill="rgb(8,83,148)" d=" M 366.6 318.1 L 366.6 330.4 L 287.3 376.5 L 287.3 364.3 L 366.6 318.1 Z "/>
                            </g>
                            <g id="Group">
                                <path fill="rgb(6,58,104)" d=" M 287.3 364.3 L 287.3 376.5 L 207.4 330.4 L 207.4 318.2 L 287.3 364.3 Z "/>
                            </g>
                        </g>
                    </g>
                    <g id="Group">
                        <g id="Group">
                            <g id="Group">
                                <path fill="rgb(11,117,211)" d=" M 366.6 292.4 L 287.3 338.5 L 207.4 292.4 L 286.8 246.3 L 366.6 292.4 Z "/>
                            </g>
                            <g id="Group">
                                <path fill="rgb(8,83,148)" d=" M 366.6 292.4 L 366.6 304.6 L 287.3 350.7 L 287.3 338.5 L 366.6 292.4 Z "/>
                            </g>
                            <g id="Group">
                                <path fill="rgb(6,58,104)" d=" M 287.3 338.5 L 287.3 350.7 L 207.4 304.6 L 207.4 292.4 L 287.3 338.5 Z "/>
                            </g>
                        </g>
                    </g>
                    <g id="Group">
                        <g id="Group">
                            <g id="Group">
                                <path fill="rgb(11,117,211)" d=" M 366.6 266.6 L 287.3 312.7 L 207.4 266.6 L 286.8 220.5 L 366.6 266.6 Z "/>
                            </g>
                            <g id="Group">
                                <path fill="rgb(8,83,148)" d=" M 366.6 266.6 L 366.6 278.8 L 287.3 324.9 L 287.3 312.7 L 366.6 266.6 Z "/>
                            </g>
                            <g id="Group">
                                <path fill="rgb(6,58,104)" d=" M 287.3 312.7 L 287.3 324.9 L 207.4 278.8 L 207.4 266.6 L 287.3 312.7 Z "/>
                            </g>
                        </g>
                    </g>
                    <g id="Group">
                        <g id="Group">
                            <g id="Group">
                                <path fill="rgb(11,117,211)" d=" M 366.6 240.8 L 287.3 286.9 L 207.4 240.8 L 286.8 194.7 L 366.6 240.8 Z "/>
                            </g>
                            <g id="Group">
                                <path fill="rgb(8,83,148)" d=" M 366.6 240.8 L 366.6 253 L 287.3 299.1 L 287.3 286.9 L 366.6 240.8 Z "/>
                            </g>
                            <g id="Group">
                                <path fill="rgb(6,58,104)" d=" M 287.3 286.9 L 287.3 299.1 L 207.4 253 L 207.4 240.8 L 287.3 286.9 Z "/>
                            </g>
                        </g>
                    </g>
                    <g id="Group">
                        <g id="Group">
                            <g id="Group">
                                <path fill="rgb(11,117,211)" d=" M 366.6 215 L 287.3 261.1 L 207.4 215 L 286.8 168.9 L 366.6 215 Z "/>
                            </g>
                            <g id="Group">
                                <path fill="rgb(8,83,148)" d=" M 366.6 215 L 366.6 227.2 L 287.3 273.3 L 287.3 261.1 L 366.6 215 Z "/>
                            </g>
                            <g id="Group">
                                <path fill="rgb(6,58,104)" d=" M 287.3 261.1 L 287.3 273.3 L 207.4 227.2 L 207.4 215 L 287.3 261.1 Z "/>
                            </g>
                        </g>
                    </g>
                    <g id="Group">
                        <g id="Group">
                            <g id="Group">
                                <path fill="rgb(11,117,211)" d=" M 366.6 189.2 L 287.3 235.3 L 207.4 189.2 L 286.8 143.1 L 366.6 189.2 Z "/>
                            </g>
                            <g id="Group">
                                <path fill="rgb(8,83,148)" d=" M 366.6 189.2 L 366.6 201.4 L 287.3 247.5 L 287.3 235.3 L 366.6 189.2 Z "/>
                            </g>
                            <g id="Group">
                                <path fill="rgb(6,58,104)" d=" M 287.3 235.3 L 287.3 247.5 L 207.4 201.4 L 207.4 189.2 L 287.3 235.3 Z "/>
                            </g>
                        </g>
                    </g>
                    <g id="Group">
                        <g id="Group">
                            <g id="Group">
                                <path fill="rgb(11,117,211)" d=" M 366.6 163.4 L 287.3 209.5 L 207.4 163.4 L 286.8 117.3 L 366.6 163.4 Z "/>
                            </g>
                            <g id="Group">
                                <path fill="rgb(8,83,148)" d=" M 366.6 163.4 L 366.6 175.7 L 287.3 221.8 L 287.3 209.5 L 366.6 163.4 Z "/>
                            </g>
                            <g id="Group">
                                <path fill="rgb(6,58,104)" d=" M 287.3 209.5 L 287.3 221.8 L 207.4 175.7 L 207.4 163.4 L 287.3 209.5 Z "/>
                            </g>
                        </g>
                    </g>
                </g>
            </g>
        </g>
    </g>
</svg>
