<?xml version="1.0" encoding="iso-8859-1"?>
<!--Generator: Adobe Illustrator 16.0.0, SVG Export Plug-In . SVG Version: 6.00 Build 0)-->
<!DOCTYPE svg PUBLIC "-//W3C//DTD SVG 1.1//EN" "http://www.w3.org/Graphics/SVG/1.1/DTD/svg11.dtd">
<svg xmlns="http://www.w3.org/2000/svg" xmlns:xlink="http://www.w3.org/1999/xlink" id="Capa_1" width="116.706px" height="116.706px" x="0px" y="0px" fill="#ffffff" style="enable-background:new 0 0 116.706 116.706" version="1.1" viewBox="0 0 116.706 116.706" xml:space="preserve">
    <g>
        <g>
            <path fill="#888e95" d="M52.077,29.333c0.31,0.067,0.631-0.056,0.816-0.314l19.888-27.76c0.256-0.357,0.174-0.854-0.184-1.11
			c-0.358-0.256-0.854-0.173-1.11,0.184L51.904,27.666l-19.783-4.309c-0.323-0.07-0.656,0.067-0.836,0.345L12.366,52.875
			c-0.239,0.369-0.134,0.861,0.235,1.101c0.133,0.086,0.284,0.128,0.432,0.128c0.26,0,0.516-0.127,0.668-0.363l18.62-28.712
			L52.077,29.333z"/>
            <path fill="#ffffff" d="M104.457,38.061c-0.004-0.091-0.023-0.179-0.062-0.259c-0.003-0.007-0.004-0.013-0.007-0.021
			c-0.043-0.082-0.106-0.15-0.182-0.209c-0.009-0.007-0.012-0.019-0.021-0.025c-0.008-0.006-0.019-0.006-0.026-0.011
			c-0.016-0.01-0.028-0.025-0.045-0.034l-8.121-4.396c-0.164-0.088-0.355-0.105-0.532-0.046l-10.293,3.451V21.077
			c0-0.012-0.007-0.021-0.008-0.032c-0.004-0.091-0.023-0.179-0.062-0.259c-0.003-0.007-0.004-0.013-0.008-0.02
			c-0.043-0.082-0.105-0.15-0.181-0.209c-0.009-0.007-0.012-0.019-0.021-0.025c-0.009-0.006-0.019-0.006-0.026-0.011
			c-0.016-0.01-0.028-0.025-0.045-0.034l-8.121-4.396c-0.164-0.088-0.356-0.105-0.532-0.046L63.047,20.44
			c-0.035,0.012-0.065,0.033-0.099,0.05c-0.009,0.005-0.021,0.003-0.03,0.009c-0.006,0.003-0.007,0.01-0.013,0.013
			c-0.086,0.054-0.156,0.127-0.209,0.212c-0.009,0.015-0.017,0.029-0.025,0.044c-0.04,0.077-0.07,0.158-0.078,0.248
			c-0.001,0.015,0.002,0.028,0.002,0.043c0,0.006-0.006,0.011-0.006,0.018v32.137l-1.133-0.613
			c-0.174-0.095-0.382-0.107-0.565-0.033l-6.604,2.621V41.344c0-0.012-0.008-0.022-0.009-0.035
			c-0.004-0.089-0.023-0.176-0.062-0.254c-0.003-0.007-0.004-0.014-0.008-0.021c-0.043-0.083-0.107-0.152-0.182-0.21
			c-0.008-0.007-0.012-0.018-0.021-0.024c-0.007-0.005-0.017-0.005-0.024-0.01c-0.017-0.011-0.03-0.026-0.047-0.035l-8.122-4.396
			c-0.163-0.088-0.356-0.105-0.532-0.046l-13.114,4.396c-0.036,0.012-0.066,0.033-0.099,0.05c-0.009,0.005-0.02,0.003-0.029,0.008
			c-0.006,0.003-0.008,0.01-0.013,0.013c-0.086,0.054-0.155,0.127-0.208,0.212c-0.01,0.015-0.018,0.028-0.026,0.044
			c-0.04,0.076-0.071,0.158-0.079,0.247c-0.001,0.015,0.003,0.028,0.002,0.042c0,0.006-0.004,0.011-0.004,0.018v16.804l-1.436-0.776
			c-0.163-0.088-0.356-0.105-0.532-0.046l-13.114,4.396c-0.036,0.012-0.066,0.033-0.099,0.05c-0.009,0.005-0.02,0.003-0.029,0.008
			c-0.006,0.003-0.007,0.01-0.013,0.014c-0.087,0.054-0.156,0.127-0.209,0.212c-0.009,0.015-0.018,0.027-0.026,0.044
			c-0.04,0.077-0.071,0.158-0.079,0.247c-0.001,0.014,0.002,0.027,0.002,0.042c0,0.006-0.004,0.011-0.004,0.018v46.196
			c0,0.245,0.133,0.47,0.347,0.587l8.122,4.471c0.011,0.006,0.023,0.004,0.035,0.01c0.091,0.044,0.188,0.073,0.289,0.073
			c0.073,0,0.146-0.012,0.216-0.036l10.29-3.508v1.418c0,0.245,0.133,0.471,0.347,0.587l8.122,4.472
			c0.011,0.006,0.023,0.004,0.035,0.009c0.091,0.044,0.188,0.074,0.289,0.074c0.073,0,0.146-0.013,0.216-0.036l13.114-4.472
			c0.271-0.093,0.454-0.347,0.454-0.635v-1.953l1.432,0.788c0.011,0.006,0.024,0.003,0.036,0.009
			c0.091,0.045,0.188,0.074,0.288,0.074c0.073,0,0.146-0.012,0.216-0.036l13.114-4.47c0.271-0.093,0.453-0.348,0.453-0.635v-1.816
			l1.536,0.847c0.012,0.006,0.024,0.004,0.036,0.009c0.091,0.043,0.188,0.074,0.288,0.074c0.073,0,0.146-0.013,0.216-0.036
			l13.113-4.471c0.271-0.093,0.455-0.348,0.455-0.635v-0.957l1.078,0.724c0.036,0.023,0.076,0.037,0.115,0.054
			c0.021,0.008,0.038,0.021,0.06,0.028c0.063,0.021,0.132,0.03,0.199,0.03c0.072,0,0.146-0.012,0.216-0.035l13.114-4.471
			c0.271-0.092,0.454-0.347,0.454-0.635V38.092C104.464,38.082,104.457,38.071,104.457,38.061z "/>
            <path fill="#888e95" d="M104.457,38.061c-0.004-0.091-0.023-0.179-0.062-0.259c-0.003-0.007-0.004-0.013-0.007-0.021
			c-0.043-0.082-0.106-0.15-0.182-0.209c-0.009-0.007-0.012-0.019-0.021-0.025c-0.008-0.006-0.019-0.006-0.026-0.011
			c-0.016-0.01-0.028-0.025-0.045-0.034l-8.121-4.396c-0.164-0.088-0.355-0.105-0.532-0.046l-10.293,3.451V21.077
			c0-0.012-0.007-0.021-0.008-0.032c-0.004-0.091-0.023-0.179-0.062-0.259c-0.003-0.007-0.004-0.013-0.008-0.02
			c-0.043-0.082-0.105-0.15-0.181-0.209c-0.009-0.007-0.012-0.019-0.021-0.025c-0.009-0.006-0.019-0.006-0.026-0.011
			c-0.016-0.01-0.028-0.025-0.045-0.034l-8.121-4.396c-0.164-0.088-0.356-0.105-0.532-0.046L63.047,20.44
			c-0.035,0.012-0.065,0.033-0.099,0.05c-0.009,0.005-0.021,0.003-0.03,0.009c-0.006,0.003-0.007,0.01-0.013,0.013
			c-0.086,0.054-0.156,0.127-0.209,0.212c-0.009,0.015-0.017,0.029-0.025,0.044c-0.04,0.077-0.07,0.158-0.078,0.248
			c-0.001,0.015,0.002,0.028,0.002,0.043c0,0.006-0.006,0.011-0.006,0.018v32.137l-1.133-0.613
			c-0.174-0.095-0.382-0.107-0.565-0.033l-6.604,2.621V41.344c0-0.012-0.008-0.022-0.009-0.035
			c-0.004-0.089-0.023-0.176-0.062-0.254c-0.003-0.007-0.004-0.014-0.008-0.021c-0.043-0.083-0.107-0.152-0.182-0.21
			c-0.008-0.007-0.012-0.018-0.021-0.024c-0.007-0.005-0.017-0.005-0.024-0.01c-0.017-0.011-0.03-0.026-0.047-0.035l-8.122-4.396
			c-0.163-0.088-0.356-0.105-0.532-0.046l-13.114,4.396c-0.036,0.012-0.066,0.033-0.099,0.05c-0.009,0.005-0.02,0.003-0.029,0.008
			c-0.006,0.003-0.008,0.01-0.013,0.013c-0.086,0.054-0.155,0.127-0.208,0.212c-0.01,0.015-0.018,0.028-0.026,0.044
			c-0.04,0.076-0.071,0.158-0.079,0.247c-0.001,0.015,0.003,0.028,0.002,0.042c0,0.006-0.004,0.011-0.004,0.018v16.804l-1.436-0.776
			c-0.163-0.088-0.356-0.105-0.532-0.046l-13.114,4.396c-0.036,0.012-0.066,0.033-0.099,0.05c-0.009,0.005-0.02,0.003-0.029,0.008
			c-0.006,0.003-0.007,0.01-0.013,0.014c-0.087,0.054-0.156,0.127-0.209,0.212c-0.009,0.015-0.018,0.027-0.026,0.044
			c-0.04,0.077-0.071,0.158-0.079,0.247c-0.001,0.014,0.002,0.027,0.002,0.042c0,0.006-0.004,0.011-0.004,0.018v46.196
			c0,0.245,0.133,0.47,0.347,0.587l8.122,4.471c0.011,0.006,0.023,0.004,0.035,0.01c0.091,0.044,0.188,0.073,0.289,0.073
			c0.073,0,0.146-0.012,0.216-0.036l10.29-3.508v1.418c0,0.245,0.133,0.471,0.347,0.587l8.122,4.472
			c0.011,0.006,0.023,0.004,0.035,0.009c0.091,0.044,0.188,0.074,0.289,0.074c0.073,0,0.146-0.013,0.216-0.036l13.114-4.472
			c0.271-0.093,0.454-0.347,0.454-0.635v-1.953l1.432,0.788c0.011,0.006,0.024,0.003,0.036,0.009
			c0.091,0.045,0.188,0.074,0.288,0.074c0.073,0,0.146-0.012,0.216-0.036l13.114-4.47c0.271-0.093,0.453-0.348,0.453-0.635v-1.816
			l1.536,0.847c0.012,0.006,0.024,0.004,0.036,0.009c0.091,0.043,0.188,0.074,0.288,0.074c0.073,0,0.146-0.013,0.216-0.036
			l13.113-4.471c0.271-0.093,0.455-0.348,0.455-0.635v-0.957l1.078,0.724c0.036,0.023,0.076,0.037,0.115,0.054
			c0.021,0.008,0.038,0.021,0.06,0.028c0.063,0.021,0.132,0.03,0.199,0.03c0.072,0,0.146-0.012,0.216-0.035l13.114-4.471
			c0.271-0.092,0.454-0.347,0.454-0.635V38.092C104.464,38.082,104.457,38.071,104.457,38.061z M76.312,17.409l6.517,3.528
			l-11.382,3.88l-1.463-0.806l-5.059-2.785L76.312,17.409z M70.711,25.943v30.461l-5.601-3.03c-0.163-0.088-0.356-0.105-0.532-0.046
			l-0.647,0.217V22.211L70.711,25.943z M61.095,53.93l0.615,0.333c0.276-0.112,0.563-0.199,0.859-0.261l-8.283,2.776V56.63
			L61.095,53.93z M52.945,57.228l-1.48,0.496c-0.036,0.012-0.066,0.033-0.099,0.05c-0.009,0.005-0.02,0.003-0.029,0.008
			c-0.006,0.003-0.008,0.01-0.013,0.013c-0.086,0.054-0.155,0.127-0.208,0.212c-0.01,0.015-0.018,0.028-0.026,0.044
			c-0.04,0.076-0.071,0.158-0.079,0.247c-0.001,0.015,0.003,0.028,0.002,0.042c0,0.006-0.004,0.011-0.004,0.018v16.805l-1.436-0.777
			c-0.163-0.088-0.356-0.105-0.532-0.046l-7.867,2.638V46.293l11.772-4.013L52.945,57.228L52.945,57.228z M45.432,37.677
			l6.517,3.527l-4.875,1.662l-6.507,2.218l-6.523-3.59L45.432,37.677z M33.051,42.479l6.781,3.732v31.216l-1.085,0.364V62.354
			c0-0.011-0.007-0.021-0.008-0.032c-0.005-0.092-0.024-0.179-0.063-0.26c-0.003-0.005-0.004-0.012-0.007-0.018
			c-0.043-0.083-0.108-0.152-0.183-0.211c-0.008-0.007-0.011-0.018-0.02-0.023c-0.007-0.005-0.017-0.005-0.024-0.01
			c-0.017-0.011-0.03-0.025-0.047-0.035l-5.344-2.893V42.479z M24.292,111.887l-6.781-3.732V63.489l6.781,3.732V111.887z
			 M25.027,66.095l-4.1-2.257l-2.423-1.333l11.388-3.817l6.517,3.527l-5.784,1.972L25.027,66.095z M25.633,112.085v-44.78
			l6.07-2.069l5.702-1.942V78.24l-1.479,0.496c-0.036,0.013-0.066,0.033-0.099,0.051c-0.009,0.005-0.02,0.003-0.029,0.008
			c-0.006,0.003-0.007,0.009-0.013,0.013c-0.087,0.054-0.156,0.127-0.209,0.212c-0.009,0.016-0.018,0.028-0.026,0.044
			c-0.04,0.077-0.071,0.158-0.079,0.247c-0.001,0.015,0.002,0.028,0.002,0.042c0,0.006-0.004,0.011-0.004,0.019v29.36
			L25.633,112.085z M43.59,114.903l-6.781-3.731V80.505l6.781,3.731V114.903z M44.325,83.111l-4.1-2.257l-2.423-1.333l11.388-3.816
			l6.517,3.526l-5.784,1.973L44.325,83.111z M59.13,108.68l-1.085-0.598V79.372c0-0.012-0.007-0.021-0.008-0.032
			c-0.005-0.092-0.024-0.179-0.063-0.26c-0.003-0.006-0.004-0.013-0.007-0.019c-0.043-0.083-0.108-0.151-0.183-0.211
			c-0.008-0.007-0.011-0.017-0.02-0.022c-0.007-0.006-0.017-0.006-0.024-0.011c-0.017-0.011-0.03-0.024-0.047-0.035l-5.345-2.893
			V59.495l6.781,3.731L59.13,108.68L59.13,108.68z M59.864,62.099l-6.523-3.59l11.388-3.817l6.517,3.527l-4.875,1.662L59.864,62.099
			z M73.576,58.324c-0.004-0.089-0.022-0.176-0.062-0.254c-0.003-0.007-0.004-0.014-0.009-0.021
			c-0.043-0.083-0.106-0.152-0.182-0.21c-0.008-0.007-0.012-0.018-0.021-0.024c-0.008-0.005-0.018-0.005-0.024-0.01
			c-0.017-0.011-0.03-0.026-0.047-0.035l-1.181-0.639V26.026l11.772-4.013V36.96l-1.479,0.496c-0.036,0.012-0.066,0.033-0.1,0.05
			c-0.009,0.005-0.021,0.003-0.029,0.009c-0.007,0.003-0.008,0.01-0.014,0.013c-0.086,0.054-0.156,0.127-0.209,0.212
			c-0.009,0.015-0.017,0.029-0.024,0.044c-0.04,0.077-0.071,0.158-0.079,0.248c-0.001,0.015,0.002,0.028,0.002,0.043
			c0,0.006-0.005,0.011-0.005,0.018V70.23l-1.134-0.612c-0.174-0.096-0.382-0.107-0.565-0.033l-6.604,2.621V58.359
			C73.584,58.347,73.577,58.336,73.576,58.324z M74.774,102.651l-1.189-0.653V78.699l1.189,0.745V102.651z M75.53,78.335
			l-1.945-1.218v-3.472l6.809-2.701l6.498,3.519L75.53,78.335z M90.01,97.268l-0.78-0.522V74.602c0-0.012-0.008-0.021-0.009-0.034
			c-0.004-0.09-0.023-0.176-0.062-0.256c-0.003-0.006-0.004-0.014-0.008-0.021c-0.043-0.083-0.107-0.152-0.182-0.211
			c-0.009-0.008-0.013-0.019-0.021-0.023c-0.007-0.005-0.017-0.005-0.024-0.01c-0.016-0.011-0.028-0.026-0.046-0.035l-5.647-3.057
			V39.228l6.78,3.732V97.268z M90.744,41.833l-1.463-0.806l-5-2.752c0.014-0.022,0.026-0.044,0.041-0.066l11.288-3.784l6.517,3.528
			L90.744,41.833z"/>
        </g>
    </g>
    <g/>
    <g/>
    <g/>
    <g/>
    <g/>
    <g/>
    <g/>
    <g/>
    <g/>
    <g/>
    <g/>
    <g/>
    <g/>
    <g/>
    <g/>
</svg>
